<svg width="185" height="59" viewBox="0 0 185 59" fill="none" xmlns="http://www.w3.org/2000/svg">
<rect x="0.5" y="0.5" width="184" height="58" rx="9.5" stroke="white"/>
<path d="M34.6385 25.8215L29.1038 29.0105L24.4141 24.3947L29.0521 19.7617L34.6471 22.9764C35.742 23.6039 35.742 25.1855 34.6471 25.8129L34.6385 25.8215Z" fill="#FED400"/>
<path d="M29.1064 29.0103L12.4766 38.5857C11.7783 38.9897 10.9766 38.8178 10.4766 38.3106L24.4166 24.3945L29.1064 29.0103Z" fill="#F83345"/>
<path d="M24.4142 24.3864L10.4742 38.3025C10.1897 38.0189 10 37.6149 10 37.1507V11.6393C10 11.2267 10.1466 10.8571 10.3879 10.582L24.4056 24.395L24.4142 24.3864Z" fill="#00D7FE"/>
<path d="M29.0541 19.7618L24.4161 24.3948L10.3984 10.5818C10.8812 10.0145 11.7433 9.79963 12.4761 10.2208L29.0541 19.7618Z" fill="#00EF77"/>
<path d="M51.2163 15.2975C51.0326 14.9112 50.7666 14.6135 50.4183 14.4045C50.0699 14.1892 49.6646 14.0815 49.2023 14.0815C48.7399 14.0815 48.3219 14.1892 47.9483 14.4045C47.5809 14.6135 47.2896 14.9175 47.0743 15.3165C46.8653 15.7092 46.7608 16.1652 46.7608 16.6845C46.7608 17.2038 46.8653 17.6598 47.0743 18.0525C47.2896 18.4452 47.5809 18.7492 47.9483 18.9645C48.3219 19.1735 48.7399 19.278 49.2023 19.278C49.8483 19.278 50.3803 19.0848 50.7983 18.6985C51.2163 18.3122 51.4601 17.7897 51.5298 17.131H48.8888V16.428H52.4513V17.093C52.4006 17.6377 52.2296 18.138 51.9383 18.594C51.6469 19.0437 51.2638 19.4015 50.7888 19.6675C50.3138 19.9272 49.7849 20.057 49.2023 20.057C48.5879 20.057 48.0274 19.9145 47.5208 19.6295C47.0141 19.3382 46.6119 18.936 46.3143 18.423C46.0229 17.91 45.8773 17.3305 45.8773 16.6845C45.8773 16.0385 46.0229 15.459 46.3143 14.946C46.6119 14.4267 47.0141 14.0245 47.5208 13.7395C48.0274 13.4482 48.5879 13.3025 49.2023 13.3025C49.9053 13.3025 50.5259 13.4767 51.0643 13.825C51.6089 14.1733 52.0048 14.6642 52.2518 15.2975H51.2163ZM54.4588 14.0815V16.295H56.8718V17.0075H54.4588V19.2875H57.1568V20H53.5943V13.369H57.1568V14.0815H54.4588ZM62.5404 13.3785V14.0815H60.7354V20H59.8709V14.0815H58.0564V13.3785H62.5404ZM67.0018 13.3785V20H66.1373V13.3785H67.0018ZM72.5507 13.3785V14.0815H70.7457V20H69.8812V14.0815H68.0667V13.3785H72.5507ZM79.1495 20.0665C78.5352 20.0665 77.9747 19.924 77.468 19.639C76.9613 19.3477 76.5592 18.9455 76.2615 18.4325C75.9702 17.9132 75.8245 17.3305 75.8245 16.6845C75.8245 16.0385 75.9702 15.459 76.2615 14.946C76.5592 14.4267 76.9613 14.0245 77.468 13.7395C77.9747 13.4482 78.5352 13.3025 79.1495 13.3025C79.7702 13.3025 80.3338 13.4482 80.8405 13.7395C81.3472 14.0245 81.7462 14.4235 82.0375 14.9365C82.3288 15.4495 82.4745 16.0322 82.4745 16.6845C82.4745 17.3368 82.3288 17.9195 82.0375 18.4325C81.7462 18.9455 81.3472 19.3477 80.8405 19.639C80.3338 19.924 79.7702 20.0665 79.1495 20.0665ZM79.1495 19.316C79.6118 19.316 80.0267 19.2083 80.394 18.993C80.7677 18.7777 81.059 18.4705 81.268 18.0715C81.4833 17.6725 81.591 17.2102 81.591 16.6845C81.591 16.1525 81.4833 15.6902 81.268 15.2975C81.059 14.8985 80.7708 14.5913 80.4035 14.376C80.0362 14.1607 79.6182 14.053 79.1495 14.053C78.6808 14.053 78.2628 14.1607 77.8955 14.376C77.5282 14.5913 77.2368 14.8985 77.0215 15.2975C76.8125 15.6902 76.708 16.1525 76.708 16.6845C76.708 17.2102 76.8125 17.6725 77.0215 18.0715C77.2368 18.4705 77.5282 18.7777 77.8955 18.993C78.2692 19.2083 78.6872 19.316 79.1495 19.316ZM88.8218 20H87.9573L84.4803 14.7275V20H83.6158V13.369H84.4803L87.9573 18.632V13.369H88.8218V20Z" fill="white"/>
<path d="M53.7938 32.68C53.5538 32.24 53.2238 31.905 52.8038 31.675C52.3838 31.445 51.8938 31.33 51.3338 31.33C50.7138 31.33 50.1638 31.47 49.6838 31.75C49.2038 32.03 48.8288 32.43 48.5588 32.95C48.2888 33.47 48.1538 34.07 48.1538 34.75C48.1538 35.45 48.2888 36.06 48.5588 36.58C48.8388 37.1 49.2238 37.5 49.7138 37.78C50.2038 38.06 50.7738 38.2 51.4238 38.2C52.2238 38.2 52.8788 37.99 53.3887 37.57C53.8988 37.14 54.2338 36.545 54.3938 35.785H50.7938V34.18H56.4638V36.01C56.3238 36.74 56.0238 37.415 55.5638 38.035C55.1038 38.655 54.5088 39.155 53.7788 39.535C53.0588 39.905 52.2488 40.09 51.3488 40.09C50.3388 40.09 49.4238 39.865 48.6038 39.415C47.7938 38.955 47.1538 38.32 46.6838 37.51C46.2238 36.7 45.9938 35.78 45.9938 34.75C45.9938 33.72 46.2238 32.8 46.6838 31.99C47.1538 31.17 47.7938 30.535 48.6038 30.085C49.4238 29.625 50.3338 29.395 51.3338 29.395C52.5138 29.395 53.5388 29.685 54.4088 30.265C55.2788 30.835 55.8788 31.64 56.2088 32.68H53.7938ZM61.4074 40.135C60.6074 40.135 59.8874 39.96 59.2474 39.61C58.6074 39.25 58.1024 38.745 57.7324 38.095C57.3724 37.445 57.1924 36.695 57.1924 35.845C57.1924 34.995 57.3774 34.245 57.7474 33.595C58.1274 32.945 58.6424 32.445 59.2924 32.095C59.9424 31.735 60.6674 31.555 61.4674 31.555C62.2674 31.555 62.9924 31.735 63.6424 32.095C64.2924 32.445 64.8024 32.945 65.1724 33.595C65.5524 34.245 65.7424 34.995 65.7424 35.845C65.7424 36.695 65.5474 37.445 65.1574 38.095C64.7774 38.745 64.2574 39.25 63.5974 39.61C62.9474 39.96 62.2174 40.135 61.4074 40.135ZM61.4074 38.305C61.7874 38.305 62.1424 38.215 62.4724 38.035C62.8124 37.845 63.0824 37.565 63.2824 37.195C63.4824 36.825 63.5824 36.375 63.5824 35.845C63.5824 35.055 63.3724 34.45 62.9524 34.03C62.5424 33.6 62.0374 33.385 61.4374 33.385C60.8374 33.385 60.3324 33.6 59.9224 34.03C59.5224 34.45 59.3224 35.055 59.3224 35.845C59.3224 36.635 59.5174 37.245 59.9074 37.675C60.3074 38.095 60.8074 38.305 61.4074 38.305ZM70.6729 40.135C69.8729 40.135 69.1529 39.96 68.5129 39.61C67.8729 39.25 67.3679 38.745 66.9979 38.095C66.6379 37.445 66.4579 36.695 66.4579 35.845C66.4579 34.995 66.6429 34.245 67.0129 33.595C67.3929 32.945 67.9079 32.445 68.5579 32.095C69.2079 31.735 69.9329 31.555 70.7329 31.555C71.5329 31.555 72.2579 31.735 72.9079 32.095C73.5579 32.445 74.0679 32.945 74.4379 33.595C74.8179 34.245 75.0079 34.995 75.0079 35.845C75.0079 36.695 74.8129 37.445 74.4229 38.095C74.0429 38.745 73.5229 39.25 72.8629 39.61C72.2129 39.96 71.4829 40.135 70.6729 40.135ZM70.6729 38.305C71.0529 38.305 71.4079 38.215 71.7379 38.035C72.0779 37.845 72.3479 37.565 72.5479 37.195C72.7479 36.825 72.8479 36.375 72.8479 35.845C72.8479 35.055 72.6379 34.45 72.2179 34.03C71.8079 33.6 71.3029 33.385 70.7029 33.385C70.1029 33.385 69.5979 33.6 69.1879 34.03C68.7879 34.45 68.5879 35.055 68.5879 35.845C68.5879 36.635 68.7829 37.245 69.1729 37.675C69.5729 38.095 70.0729 38.305 70.6729 38.305ZM79.5033 31.555C80.1233 31.555 80.6683 31.68 81.1383 31.93C81.6083 32.17 81.9783 32.485 82.2483 32.875V31.69H84.3633V40.06C84.3633 40.83 84.2083 41.515 83.8983 42.115C83.5883 42.725 83.1233 43.205 82.5033 43.555C81.8833 43.915 81.1333 44.095 80.2533 44.095C79.0733 44.095 78.1033 43.82 77.3433 43.27C76.5933 42.72 76.1683 41.97 76.0683 41.02H78.1533C78.2633 41.4 78.4983 41.7 78.8583 41.92C79.2283 42.15 79.6733 42.265 80.1933 42.265C80.8033 42.265 81.2983 42.08 81.6783 41.71C82.0583 41.35 82.2483 40.8 82.2483 40.06V38.77C81.9783 39.16 81.6033 39.485 81.1233 39.745C80.6533 40.005 80.1133 40.135 79.5033 40.135C78.8033 40.135 78.1633 39.955 77.5833 39.595C77.0033 39.235 76.5433 38.73 76.2033 38.08C75.8733 37.42 75.7083 36.665 75.7083 35.815C75.7083 34.975 75.8733 34.23 76.2033 33.58C76.5433 32.93 76.9983 32.43 77.5683 32.08C78.1483 31.73 78.7933 31.555 79.5033 31.555ZM82.2483 35.845C82.2483 35.335 82.1483 34.9 81.9483 34.54C81.7483 34.17 81.4783 33.89 81.1383 33.7C80.7983 33.5 80.4333 33.4 80.0433 33.4C79.6533 33.4 79.2933 33.495 78.9633 33.685C78.6333 33.875 78.3633 34.155 78.1533 34.525C77.9533 34.885 77.8533 35.315 77.8533 35.815C77.8533 36.315 77.9533 36.755 78.1533 37.135C78.3633 37.505 78.6333 37.79 78.9633 37.99C79.3033 38.19 79.6633 38.29 80.0433 38.29C80.4333 38.29 80.7983 38.195 81.1383 38.005C81.4783 37.805 81.7483 37.525 81.9483 37.165C82.1483 36.795 82.2483 36.355 82.2483 35.845ZM88.2143 28.9V40H86.1143V28.9H88.2143ZM97.7141 35.665C97.7141 35.965 97.6941 36.235 97.6541 36.475H91.5791C91.6291 37.075 91.8391 37.545 92.2091 37.885C92.5791 38.225 93.0341 38.395 93.5741 38.395C94.3541 38.395 94.9091 38.06 95.2391 37.39H97.5041C97.2641 38.19 96.8041 38.85 96.1241 39.37C95.4441 39.88 94.6091 40.135 93.6191 40.135C92.8191 40.135 92.0991 39.96 91.4591 39.61C90.8291 39.25 90.3341 38.745 89.9741 38.095C89.6241 37.445 89.4491 36.695 89.4491 35.845C89.4491 34.985 89.6241 34.23 89.9741 33.58C90.3241 32.93 90.8141 32.43 91.4441 32.08C92.0741 31.73 92.7991 31.555 93.6191 31.555C94.4091 31.555 95.1141 31.725 95.7341 32.065C96.3641 32.405 96.8491 32.89 97.1891 33.52C97.5391 34.14 97.7141 34.855 97.7141 35.665ZM95.5391 35.065C95.5291 34.525 95.3341 34.095 94.9541 33.775C94.5741 33.445 94.1091 33.28 93.5591 33.28C93.0391 33.28 92.5991 33.44 92.2391 33.76C91.8891 34.07 91.6741 34.505 91.5941 35.065H95.5391ZM109.856 32.77C109.856 33.33 109.721 33.855 109.451 34.345C109.191 34.835 108.776 35.23 108.206 35.53C107.646 35.83 106.936 35.98 106.076 35.98H104.321V40H102.221V29.53H106.076C106.886 29.53 107.576 29.67 108.146 29.95C108.716 30.23 109.141 30.615 109.421 31.105C109.711 31.595 109.856 32.15 109.856 32.77ZM105.986 34.285C106.566 34.285 106.996 34.155 107.276 33.895C107.556 33.625 107.696 33.25 107.696 32.77C107.696 31.75 107.126 31.24 105.986 31.24H104.321V34.285H105.986ZM113.147 28.9V40H111.047V28.9H113.147ZM114.382 35.815C114.382 34.975 114.547 34.23 114.877 33.58C115.217 32.93 115.672 32.43 116.242 32.08C116.822 31.73 117.467 31.555 118.177 31.555C118.797 31.555 119.337 31.68 119.797 31.93C120.267 32.18 120.642 32.495 120.922 32.875V31.69H123.037V40H120.922V38.785C120.652 39.175 120.277 39.5 119.797 39.76C119.327 40.01 118.782 40.135 118.162 40.135C117.462 40.135 116.822 39.955 116.242 39.595C115.672 39.235 115.217 38.73 114.877 38.08C114.547 37.42 114.382 36.665 114.382 35.815ZM120.922 35.845C120.922 35.335 120.822 34.9 120.622 34.54C120.422 34.17 120.152 33.89 119.812 33.7C119.472 33.5 119.107 33.4 118.717 33.4C118.327 33.4 117.967 33.495 117.637 33.685C117.307 33.875 117.037 34.155 116.827 34.525C116.627 34.885 116.527 35.315 116.527 35.815C116.527 36.315 116.627 36.755 116.827 37.135C117.037 37.505 117.307 37.79 117.637 37.99C117.977 38.19 118.337 38.29 118.717 38.29C119.107 38.29 119.472 38.195 119.812 38.005C120.152 37.805 120.422 37.525 120.622 37.165C120.822 36.795 120.922 36.355 120.922 35.845ZM132.738 31.69L127.593 43.93H125.358L127.158 39.79L123.828 31.69H126.183L128.328 37.495L130.503 31.69H132.738Z" fill="white"/>
</svg>
