<svg width="182" height="59" viewBox="0 0 182 59" fill="none" xmlns="http://www.w3.org/2000/svg">
<rect x="0.5" y="0.5" width="181" height="58" rx="9.5" stroke="white"/>
<path d="M29.1539 24.9373C29.1194 21.3874 32.0677 19.6597 32.2057 19.5823C30.5332 17.1584 27.9469 16.8232 27.0417 16.7974C24.8693 16.5653 22.7571 18.0953 21.6537 18.0953C20.5502 18.0953 18.8174 16.8232 16.9811 16.8576C14.619 16.892 12.4034 18.2586 11.1878 20.3817C8.68778 24.7053 10.5499 31.0573 12.9465 34.5471C14.1448 36.2576 15.55 38.1744 17.3863 38.097C19.1794 38.0283 19.8519 36.9538 22.0244 36.9538C24.1968 36.9538 24.8003 38.097 26.671 38.0541C28.5935 38.0197 29.809 36.335 30.9643 34.6073C32.3522 32.6475 32.904 30.7135 32.9298 30.619C32.8867 30.6018 29.1883 29.1921 29.1539 24.9373Z" fill="url(#paint0_linear_107_6704)"/>
<path d="M25.6183 14.504C26.5838 13.3007 27.2476 11.6589 27.058 10C25.6614 10.0602 23.9113 10.9627 22.9027 12.1403C22.0061 13.1803 21.213 14.8822 21.4199 16.481C22.9889 16.6013 24.601 15.6902 25.6097 14.504" fill="url(#paint1_linear_107_6704)"/>
<path d="M45.7227 13.3785C46.4447 13.3785 47.0685 13.5147 47.5942 13.787C48.1262 14.053 48.5315 14.4362 48.8102 14.9365C49.0952 15.4368 49.2377 16.0258 49.2377 16.7035C49.2377 17.3812 49.0952 17.9702 48.8102 18.4705C48.5315 18.9645 48.1262 19.3445 47.5942 19.6105C47.0685 19.8702 46.4447 20 45.7227 20H43.6612V13.3785H45.7227ZM45.7227 19.2875C46.5777 19.2875 47.23 19.0627 47.6797 18.613C48.1294 18.157 48.3542 17.5205 48.3542 16.7035C48.3542 15.8802 48.1262 15.2373 47.6702 14.775C47.2205 14.3127 46.5714 14.0815 45.7227 14.0815H44.5257V19.2875H45.7227ZM53.38 20.0665C52.7657 20.0665 52.2052 19.924 51.6985 19.639C51.1918 19.3477 50.7897 18.9455 50.492 18.4325C50.2007 17.9132 50.055 17.3305 50.055 16.6845C50.055 16.0385 50.2007 15.459 50.492 14.946C50.7897 14.4267 51.1918 14.0245 51.6985 13.7395C52.2052 13.4482 52.7657 13.3025 53.38 13.3025C54.0007 13.3025 54.5643 13.4482 55.071 13.7395C55.5777 14.0245 55.9767 14.4235 56.268 14.9365C56.5593 15.4495 56.705 16.0322 56.705 16.6845C56.705 17.3368 56.5593 17.9195 56.268 18.4325C55.9767 18.9455 55.5777 19.3477 55.071 19.639C54.5643 19.924 54.0007 20.0665 53.38 20.0665ZM53.38 19.316C53.8423 19.316 54.2572 19.2083 54.6245 18.993C54.9982 18.7777 55.2895 18.4705 55.4985 18.0715C55.7138 17.6725 55.8215 17.2102 55.8215 16.6845C55.8215 16.1525 55.7138 15.6902 55.4985 15.2975C55.2895 14.8985 55.0013 14.5913 54.634 14.376C54.2667 14.1607 53.8487 14.053 53.38 14.053C52.9113 14.053 52.4933 14.1607 52.126 14.376C51.7587 14.5913 51.4673 14.8985 51.252 15.2975C51.043 15.6902 50.9385 16.1525 50.9385 16.6845C50.9385 17.2102 51.043 17.6725 51.252 18.0715C51.4673 18.4705 51.7587 18.7777 52.126 18.993C52.4997 19.2083 52.9177 19.316 53.38 19.316ZM66.1682 13.3785L64.2492 20H63.2802L61.7412 14.6705L60.1452 20L59.1857 20.0095L57.3332 13.3785H58.2547L59.6987 18.993L61.2947 13.3785H62.2637L63.7837 18.974L65.2372 13.3785H66.1682ZM72.3203 20H71.4558L67.9788 14.7275V20H67.1143V13.369H67.9788L71.4558 18.632V13.369H72.3203V20ZM74.6585 19.297H76.9765V20H73.794V13.3785H74.6585V19.297ZM80.8966 20.0665C80.2823 20.0665 79.7218 19.924 79.2151 19.639C78.7084 19.3477 78.3063 18.9455 78.0086 18.4325C77.7173 17.9132 77.5716 17.3305 77.5716 16.6845C77.5716 16.0385 77.7173 15.459 78.0086 14.946C78.3063 14.4267 78.7084 14.0245 79.2151 13.7395C79.7218 13.4482 80.2823 13.3025 80.8966 13.3025C81.5173 13.3025 82.0809 13.4482 82.5876 13.7395C83.0943 14.0245 83.4933 14.4235 83.7846 14.9365C84.0759 15.4495 84.2216 16.0322 84.2216 16.6845C84.2216 17.3368 84.0759 17.9195 83.7846 18.4325C83.4933 18.9455 83.0943 19.3477 82.5876 19.639C82.0809 19.924 81.5173 20.0665 80.8966 20.0665ZM80.8966 19.316C81.3589 19.316 81.7738 19.2083 82.1411 18.993C82.5148 18.7777 82.8061 18.4705 83.0151 18.0715C83.2304 17.6725 83.3381 17.2102 83.3381 16.6845C83.3381 16.1525 83.2304 15.6902 83.0151 15.2975C82.8061 14.8985 82.5179 14.5913 82.1506 14.376C81.7833 14.1607 81.3653 14.053 80.8966 14.053C80.4279 14.053 80.0099 14.1607 79.6426 14.376C79.2753 14.5913 78.9839 14.8985 78.7686 15.2975C78.5596 15.6902 78.4551 16.1525 78.4551 16.6845C78.4551 17.2102 78.5596 17.6725 78.7686 18.0715C78.9839 18.4705 79.2753 18.7777 79.6426 18.993C80.0163 19.2083 80.4343 19.316 80.8966 19.316ZM89.2768 18.5275H86.3888L85.8568 20H84.9448L87.3388 13.4165H88.3363L90.7208 20H89.8088L89.2768 18.5275ZM89.0298 17.8245L87.8328 14.4805L86.6358 17.8245H89.0298ZM93.8257 13.3785C94.5477 13.3785 95.1715 13.5147 95.6972 13.787C96.2292 14.053 96.6345 14.4362 96.9132 14.9365C97.1982 15.4368 97.3407 16.0258 97.3407 16.7035C97.3407 17.3812 97.1982 17.9702 96.9132 18.4705C96.6345 18.9645 96.2292 19.3445 95.6972 19.6105C95.1715 19.8702 94.5477 20 93.8257 20H91.7642V13.3785H93.8257ZM93.8257 19.2875C94.6807 19.2875 95.333 19.0627 95.7827 18.613C96.2324 18.157 96.4572 17.5205 96.4572 16.7035C96.4572 15.8802 96.2292 15.2373 95.7732 14.775C95.3235 14.3127 94.6744 14.0815 93.8257 14.0815H92.6287V19.2875H93.8257ZM104.016 20.0665C103.401 20.0665 102.841 19.924 102.334 19.639C101.828 19.3477 101.425 18.9455 101.128 18.4325C100.836 17.9132 100.691 17.3305 100.691 16.6845C100.691 16.0385 100.836 15.459 101.128 14.946C101.425 14.4267 101.828 14.0245 102.334 13.7395C102.841 13.4482 103.401 13.3025 104.016 13.3025C104.636 13.3025 105.2 13.4482 105.707 13.7395C106.213 14.0245 106.612 14.4235 106.904 14.9365C107.195 15.4495 107.341 16.0322 107.341 16.6845C107.341 17.3368 107.195 17.9195 106.904 18.4325C106.612 18.9455 106.213 19.3477 105.707 19.639C105.2 19.924 104.636 20.0665 104.016 20.0665ZM104.016 19.316C104.478 19.316 104.893 19.2083 105.26 18.993C105.634 18.7777 105.925 18.4705 106.134 18.0715C106.35 17.6725 106.457 17.2102 106.457 16.6845C106.457 16.1525 106.35 15.6902 106.134 15.2975C105.925 14.8985 105.637 14.5913 105.27 14.376C104.902 14.1607 104.484 14.053 104.016 14.053C103.547 14.053 103.129 14.1607 102.762 14.376C102.394 14.5913 102.103 14.8985 101.888 15.2975C101.679 15.6902 101.574 16.1525 101.574 16.6845C101.574 17.2102 101.679 17.6725 101.888 18.0715C102.103 18.4705 102.394 18.7777 102.762 18.993C103.135 19.2083 103.553 19.316 104.016 19.316ZM113.688 20H112.823L109.346 14.7275V20H108.482V13.369H109.346L112.823 18.632V13.369H113.688V20Z" fill="white"/>
<path d="M50.3847 38.005H46.2147L45.5247 40H43.3197L47.0847 29.515H49.5297L53.2947 40H51.0747L50.3847 38.005ZM49.8147 36.325L48.2997 31.945L46.7847 36.325H49.8147ZM56.502 32.89C56.772 32.51 57.142 32.195 57.612 31.945C58.092 31.685 58.637 31.555 59.247 31.555C59.957 31.555 60.597 31.73 61.167 32.08C61.747 32.43 62.202 32.93 62.532 33.58C62.872 34.22 63.042 34.965 63.042 35.815C63.042 36.665 62.872 37.42 62.532 38.08C62.202 38.73 61.747 39.235 61.167 39.595C60.597 39.955 59.957 40.135 59.247 40.135C58.637 40.135 58.097 40.01 57.627 39.76C57.167 39.51 56.792 39.195 56.502 38.815V43.96H54.402V31.69H56.502V32.89ZM60.897 35.815C60.897 35.315 60.792 34.885 60.582 34.525C60.382 34.155 60.112 33.875 59.772 33.685C59.442 33.495 59.082 33.4 58.692 33.4C58.312 33.4 57.952 33.5 57.612 33.7C57.282 33.89 57.012 34.17 56.802 34.54C56.602 34.91 56.502 35.345 56.502 35.845C56.502 36.345 56.602 36.78 56.802 37.15C57.012 37.52 57.282 37.805 57.612 38.005C57.952 38.195 58.312 38.29 58.692 38.29C59.082 38.29 59.442 38.19 59.772 37.99C60.112 37.79 60.382 37.505 60.582 37.135C60.792 36.765 60.897 36.325 60.897 35.815ZM66.368 32.89C66.638 32.51 67.008 32.195 67.478 31.945C67.958 31.685 68.503 31.555 69.113 31.555C69.823 31.555 70.463 31.73 71.033 32.08C71.613 32.43 72.068 32.93 72.398 33.58C72.738 34.22 72.908 34.965 72.908 35.815C72.908 36.665 72.738 37.42 72.398 38.08C72.068 38.73 71.613 39.235 71.033 39.595C70.463 39.955 69.823 40.135 69.113 40.135C68.503 40.135 67.963 40.01 67.493 39.76C67.033 39.51 66.658 39.195 66.368 38.815V43.96H64.268V31.69H66.368V32.89ZM70.763 35.815C70.763 35.315 70.658 34.885 70.448 34.525C70.248 34.155 69.978 33.875 69.638 33.685C69.308 33.495 68.948 33.4 68.558 33.4C68.178 33.4 67.818 33.5 67.478 33.7C67.148 33.89 66.878 34.17 66.668 34.54C66.468 34.91 66.368 35.345 66.368 35.845C66.368 36.345 66.468 36.78 66.668 37.15C66.878 37.52 67.148 37.805 67.478 38.005C67.818 38.195 68.178 38.29 68.558 38.29C68.948 38.29 69.308 38.19 69.638 37.99C69.978 37.79 70.248 37.505 70.448 37.135C70.658 36.765 70.763 36.325 70.763 35.815ZM81.0232 40.105C80.2932 40.105 79.6332 39.98 79.0432 39.73C78.4632 39.48 78.0032 39.12 77.6632 38.65C77.3232 38.18 77.1482 37.625 77.1382 36.985H79.3882C79.4182 37.415 79.5682 37.755 79.8382 38.005C80.1182 38.255 80.4982 38.38 80.9782 38.38C81.4682 38.38 81.8532 38.265 82.1332 38.035C82.4132 37.795 82.5532 37.485 82.5532 37.105C82.5532 36.795 82.4582 36.54 82.2682 36.34C82.0782 36.14 81.8382 35.985 81.5482 35.875C81.2682 35.755 80.8782 35.625 80.3782 35.485C79.6982 35.285 79.1432 35.09 78.7132 34.9C78.2932 34.7 77.9282 34.405 77.6182 34.015C77.3182 33.615 77.1682 33.085 77.1682 32.425C77.1682 31.805 77.3232 31.265 77.6332 30.805C77.9432 30.345 78.3782 29.995 78.9382 29.755C79.4982 29.505 80.1382 29.38 80.8582 29.38C81.9382 29.38 82.8132 29.645 83.4832 30.175C84.1632 30.695 84.5382 31.425 84.6082 32.365H82.2982C82.2782 32.005 82.1232 31.71 81.8332 31.48C81.5532 31.24 81.1782 31.12 80.7082 31.12C80.2982 31.12 79.9682 31.225 79.7182 31.435C79.4782 31.645 79.3582 31.95 79.3582 32.35C79.3582 32.63 79.4482 32.865 79.6282 33.055C79.8182 33.235 80.0482 33.385 80.3182 33.505C80.5982 33.615 80.9882 33.745 81.4882 33.895C82.1682 34.095 82.7232 34.295 83.1532 34.495C83.5832 34.695 83.9532 34.995 84.2632 35.395C84.5732 35.795 84.7282 36.32 84.7282 36.97C84.7282 37.53 84.5832 38.05 84.2932 38.53C84.0032 39.01 83.5782 39.395 83.0182 39.685C82.4582 39.965 81.7932 40.105 81.0232 40.105ZM88.6939 33.415V37.435C88.6939 37.715 88.7589 37.92 88.8889 38.05C89.0289 38.17 89.2589 38.23 89.5789 38.23H90.5539V40H89.2339C87.4639 40 86.5789 39.14 86.5789 37.42V33.415H85.5889V31.69H86.5789V29.635H88.6939V31.69H90.5539V33.415H88.6939ZM95.4543 40.135C94.6543 40.135 93.9343 39.96 93.2943 39.61C92.6543 39.25 92.1493 38.745 91.7793 38.095C91.4193 37.445 91.2393 36.695 91.2393 35.845C91.2393 34.995 91.4243 34.245 91.7943 33.595C92.1743 32.945 92.6893 32.445 93.3393 32.095C93.9893 31.735 94.7143 31.555 95.5143 31.555C96.3143 31.555 97.0393 31.735 97.6893 32.095C98.3393 32.445 98.8493 32.945 99.2193 33.595C99.5993 34.245 99.7893 34.995 99.7893 35.845C99.7893 36.695 99.5943 37.445 99.2043 38.095C98.8243 38.745 98.3043 39.25 97.6443 39.61C96.9943 39.96 96.2643 40.135 95.4543 40.135ZM95.4543 38.305C95.8343 38.305 96.1893 38.215 96.5193 38.035C96.8593 37.845 97.1293 37.565 97.3293 37.195C97.5293 36.825 97.6293 36.375 97.6293 35.845C97.6293 35.055 97.4193 34.45 96.9993 34.03C96.5893 33.6 96.0843 33.385 95.4843 33.385C94.8843 33.385 94.3793 33.6 93.9693 34.03C93.5693 34.45 93.3693 35.055 93.3693 35.845C93.3693 36.635 93.5643 37.245 93.9543 37.675C94.3543 38.095 94.8543 38.305 95.4543 38.305ZM103.13 32.98C103.4 32.54 103.75 32.195 104.18 31.945C104.62 31.695 105.12 31.57 105.68 31.57V33.775H105.125C104.465 33.775 103.965 33.93 103.625 34.24C103.295 34.55 103.13 35.09 103.13 35.86V40H101.03V31.69H103.13V32.98ZM114.519 35.665C114.519 35.965 114.499 36.235 114.459 36.475H108.384C108.434 37.075 108.644 37.545 109.014 37.885C109.384 38.225 109.839 38.395 110.379 38.395C111.159 38.395 111.714 38.06 112.044 37.39H114.309C114.069 38.19 113.609 38.85 112.929 39.37C112.249 39.88 111.414 40.135 110.424 40.135C109.624 40.135 108.904 39.96 108.264 39.61C107.634 39.25 107.139 38.745 106.779 38.095C106.429 37.445 106.254 36.695 106.254 35.845C106.254 34.985 106.429 34.23 106.779 33.58C107.129 32.93 107.619 32.43 108.249 32.08C108.879 31.73 109.604 31.555 110.424 31.555C111.214 31.555 111.919 31.725 112.539 32.065C113.169 32.405 113.654 32.89 113.994 33.52C114.344 34.14 114.519 34.855 114.519 35.665ZM112.344 35.065C112.334 34.525 112.139 34.095 111.759 33.775C111.379 33.445 110.914 33.28 110.364 33.28C109.844 33.28 109.404 33.44 109.044 33.76C108.694 34.07 108.479 34.505 108.399 35.065H112.344Z" fill="white"/>
<defs>
<linearGradient id="paint0_linear_107_6704" x1="21.4649" y1="22.3202" x2="21.4649" y2="32.5526" gradientUnits="userSpaceOnUse">
<stop stop-color="#5CE9FF"/>
<stop offset="1" stop-color="#277BF0"/>
</linearGradient>
<linearGradient id="paint1_linear_107_6704" x1="24.2386" y1="11.6884" x2="24.2386" y2="14.8032" gradientUnits="userSpaceOnUse">
<stop stop-color="#5CE9FF"/>
<stop offset="1" stop-color="#277BF0"/>
</linearGradient>
</defs>
</svg>
