<svg width="135" height="39" viewBox="0 0 135 39" fill="none" xmlns="http://www.w3.org/2000/svg">
<path d="M133.861 34.4022C133.861 36.4746 132.148 38.1532 130.028 38.1532H4.58621C2.46767 38.1532 0.748047 36.4746 0.748047 34.4022V4.4895C0.748047 2.41815 2.46767 0.733643 4.58621 0.733643H130.027C132.148 0.733643 133.86 2.41815 133.86 4.4895L133.861 34.4022Z" fill="black"/>
<path d="M129.623 0.778935C131.932 0.778935 133.81 2.61027 133.81 4.86085V34.0261C133.81 36.2767 131.932 38.108 129.623 38.108H4.98551C2.67722 38.108 0.798928 36.2767 0.798928 34.0261V4.86085C0.798928 2.61027 2.67722 0.778935 4.98551 0.778935H129.623ZM129.623 -1.87913e-05H4.98551C2.24473 -1.87913e-05 0 2.18859 0 4.86085V34.0261C0 36.6984 2.24473 38.887 4.98551 38.887H129.623C132.364 38.887 134.609 36.6984 134.609 34.0261V4.86085C134.609 2.18859 132.364 -1.87913e-05 129.623 -1.87913e-05Z" fill="#A6A6A6"/>
<path d="M30.0398 19.2332C30.0108 16.0999 32.6711 14.5755 32.7928 14.5045C31.2861 12.3628 28.9509 12.0702 28.1303 12.0469C26.169 11.8456 24.2665 13.1911 23.2674 13.1911C22.2484 13.1911 20.7099 12.0663 19.0517 12.0994C16.9179 12.1315 14.9217 13.336 13.8269 15.2064C11.5674 19.0203 13.2526 24.6249 15.4173 27.7076C16.5001 29.2174 17.7654 30.9032 19.4216 30.8439C21.0419 30.7787 21.6472 29.8367 23.6025 29.8367C25.5398 29.8367 26.1082 30.8439 27.7973 30.806C29.5362 30.7787 30.631 29.2894 31.676 27.766C32.9274 26.0355 33.4299 24.3313 33.4499 24.2438C33.409 24.2302 30.0727 22.9887 30.0398 19.2332Z" fill="white"/>
<path d="M26.849 10.0189C27.7205 8.95634 28.3168 7.51071 28.1513 6.0437C26.8899 6.09814 25.3125 6.89435 24.4041 7.93361C23.6005 8.8494 22.8826 10.3504 23.068 11.762C24.4849 11.8651 25.9397 11.065 26.849 10.0189Z" fill="white"/>
<path d="M53.4895 30.6272H51.2251L49.9847 26.8269H45.6733L44.4917 30.6272H42.2871L46.5587 17.6895H49.197L53.4895 30.6272ZM49.6108 25.2326L48.4891 21.8542C48.3704 21.5091 48.1481 20.6964 47.82 19.417H47.7801C47.6495 19.9673 47.4391 20.78 47.15 21.8542L46.0482 25.2326H49.6108Z" fill="white"/>
<path d="M64.474 25.848C64.474 27.4346 64.0343 28.6887 63.1548 29.6093C62.3671 30.4289 61.389 30.8382 60.2213 30.8382C58.961 30.8382 58.0556 30.3968 57.5042 29.5141H57.4644V34.4284H55.3385V24.3693C55.3385 23.3719 55.3116 22.3482 55.2598 21.2982H57.1293L57.248 22.7769H57.2879C57.9968 21.6628 59.0727 21.1067 60.5165 21.1067C61.6452 21.1067 62.5875 21.5413 63.3413 22.4113C64.0971 23.2824 64.474 24.4276 64.474 25.848ZM62.3083 25.9238C62.3083 25.0158 62.0989 24.2672 61.6781 23.6781C61.2184 23.0637 60.6012 22.7565 59.8275 22.7565C59.303 22.7565 58.8264 22.9276 58.4006 23.2649C57.9739 23.6052 57.6947 24.0495 57.5641 24.5997C57.4983 24.8564 57.4654 25.0664 57.4654 25.2316V26.7871C57.4654 27.4657 57.6787 28.0383 58.1055 28.5059C58.5323 28.9735 59.0866 29.2068 59.7687 29.2068C60.5693 29.2068 61.1925 28.9055 61.6382 28.3047C62.0849 27.7029 62.3083 26.9096 62.3083 25.9238Z" fill="white"/>
<path d="M75.4808 25.848C75.4808 27.4346 75.0411 28.6887 74.1606 29.6093C73.3739 30.4289 72.3958 30.8382 71.2282 30.8382C69.9678 30.8382 69.0625 30.3968 68.5121 29.5141H68.4722V34.4284H66.3464V24.3693C66.3464 23.3719 66.3194 22.3482 66.2676 21.2982H68.1371L68.2558 22.7769H68.2957C69.0036 21.6628 70.0795 21.1067 71.5243 21.1067C72.652 21.1067 73.5943 21.5413 74.3501 22.4113C75.1029 23.2824 75.4808 24.4276 75.4808 25.848ZM73.3151 25.9238C73.3151 25.0158 73.1047 24.2672 72.6839 23.6781C72.2243 23.0637 71.6091 22.7565 70.8343 22.7565C70.3088 22.7565 69.8332 22.9276 69.4065 23.2649C68.9797 23.6052 68.7015 24.0495 68.5709 24.5997C68.5061 24.8564 68.4722 25.0664 68.4722 25.2316V26.7871C68.4722 27.4657 68.6855 28.0383 69.1103 28.5059C69.5371 28.9726 70.0915 29.2068 70.7755 29.2068C71.5762 29.2068 72.1993 28.9055 72.645 28.3047C73.0918 27.7029 73.3151 26.9096 73.3151 25.9238Z" fill="white"/>
<path d="M87.7848 26.9991C87.7848 28.0996 87.393 28.995 86.6062 29.6862C85.7418 30.4416 84.5382 30.8188 82.9917 30.8188C81.5639 30.8188 80.4192 30.5505 79.5527 30.0129L80.0453 28.2853C80.9786 28.8356 82.0026 29.1117 83.1184 29.1117C83.919 29.1117 84.5422 28.9347 84.9899 28.5828C85.4356 28.2309 85.658 27.7584 85.658 27.1693C85.658 26.6443 85.4745 26.2019 85.1066 25.8432C84.7407 25.4845 84.1294 25.151 83.2759 24.8428C80.9527 23.998 79.792 22.7604 79.792 21.133C79.792 20.0695 80.1989 19.1974 81.0135 18.5188C81.8251 17.8393 82.908 17.5 84.262 17.5C85.4695 17.5 86.4726 17.7051 87.2733 18.1144L86.7418 19.8041C85.994 19.4074 85.1485 19.2091 84.2022 19.2091C83.4544 19.2091 82.8701 19.3889 82.4513 19.7467C82.0973 20.0665 81.9199 20.4564 81.9199 20.9182C81.9199 21.4295 82.1223 21.8524 82.5291 22.1849C82.8831 22.4921 83.5262 22.8246 84.4595 23.1833C85.6012 23.6315 86.4397 24.1555 86.9792 24.7563C87.5166 25.3552 87.7848 26.1047 87.7848 26.9991Z" fill="white"/>
<path d="M94.8114 22.8538H92.4682V27.3832C92.4682 28.5352 92.881 29.1107 93.7086 29.1107C94.0885 29.1107 94.4036 29.0787 94.6529 29.0145L94.7117 30.5884C94.2929 30.7411 93.7415 30.8179 93.0585 30.8179C92.219 30.8179 91.5629 30.568 91.0893 30.0693C90.6176 29.5696 90.3803 28.7316 90.3803 27.5543V22.8519H88.9844V21.2964H90.3803V19.5883L92.4682 18.9739V21.2964H94.8114V22.8538Z" fill="white"/>
<path d="M105.383 25.8859C105.383 27.3199 104.963 28.4972 104.123 29.4178C103.243 30.3657 102.074 30.8382 100.617 30.8382C99.2134 30.8382 98.0957 30.3842 97.2621 29.4761C96.4285 28.5681 96.0117 27.4219 96.0117 26.0405C96.0117 24.5949 96.4405 23.4107 97.301 22.4901C98.1595 21.5685 99.3181 21.1077 100.775 21.1077C102.179 21.1077 103.309 21.5617 104.161 22.4707C104.977 23.3524 105.383 24.4908 105.383 25.8859ZM103.178 25.953C103.178 25.0926 102.989 24.3547 102.608 23.7393C102.162 22.9947 101.525 22.6233 100.699 22.6233C99.8446 22.6233 99.1955 22.9956 98.7498 23.7393C98.3679 24.3557 98.1794 25.1052 98.1794 25.9919C98.1794 26.8522 98.3679 27.5901 98.7498 28.2045C99.2094 28.9492 99.8516 29.3206 100.68 29.3206C101.492 29.3206 102.129 28.9414 102.589 28.1851C102.98 27.558 103.178 26.8124 103.178 25.953Z" fill="white"/>
<path d="M112.295 23.121C112.085 23.0831 111.86 23.0637 111.625 23.0637C110.877 23.0637 110.299 23.3388 109.892 23.89C109.538 24.3761 109.36 24.9905 109.36 25.7323V30.6272H107.236L107.256 24.2361C107.256 23.1609 107.229 22.1819 107.176 21.2992H109.027L109.105 23.0841H109.164C109.388 22.4707 109.742 21.9768 110.227 21.6064C110.701 21.2729 111.212 21.1067 111.763 21.1067C111.96 21.1067 112.137 21.1203 112.295 21.1446V23.121Z" fill="white"/>
<path d="M121.802 25.5215C121.802 25.8929 121.777 26.2059 121.724 26.4616H115.347C115.372 27.3832 115.68 28.088 116.272 28.5741C116.81 29.0087 117.505 29.2265 118.358 29.2265C119.302 29.2265 120.164 29.0797 120.939 28.7851L121.272 30.2239C120.366 30.6089 119.297 30.8004 118.064 30.8004C116.58 30.8004 115.416 30.3746 114.568 29.5239C113.723 28.6733 113.299 27.531 113.299 26.098C113.299 24.6913 113.693 23.5198 114.481 22.5855C115.307 21.5881 116.423 21.0894 117.827 21.0894C119.206 21.0894 120.25 21.5881 120.959 22.5855C121.52 23.3779 121.802 24.3578 121.802 25.5215ZM119.775 24.9839C119.789 24.3695 119.65 23.8387 119.362 23.3905C118.994 22.814 118.429 22.5262 117.668 22.5262C116.973 22.5262 116.408 22.8072 115.976 23.371C115.622 23.8192 115.412 24.3568 115.347 24.9829H119.775V24.9839Z" fill="white"/>
<path d="M48.9092 9.73051C48.9092 10.8748 48.5572 11.7361 47.8543 12.3145C47.2032 12.8483 46.2779 13.1156 45.0793 13.1156C44.4851 13.1156 43.9765 13.0903 43.5508 13.0398V6.78773C44.1062 6.70024 44.7044 6.65552 45.3506 6.65552C46.4922 6.65552 47.3527 6.89759 47.933 7.38173C48.5832 7.92907 48.9092 8.71167 48.9092 9.73051ZM47.8074 9.7587C47.8074 9.01693 47.606 8.44821 47.2032 8.05156C46.8003 7.65588 46.2121 7.45756 45.4373 7.45756C45.1083 7.45756 44.8281 7.47895 44.5957 7.52367V12.2766C44.7244 12.2961 44.9597 12.3048 45.3017 12.3048C46.1014 12.3048 46.7186 12.088 47.1533 11.6544C47.5881 11.2208 47.8074 10.5889 47.8074 9.7587Z" fill="white"/>
<path d="M54.7521 10.7296C54.7521 11.4345 54.5457 12.0119 54.1329 12.465C53.7001 12.9306 53.1268 13.163 52.4109 13.163C51.7209 13.163 51.1715 12.9404 50.7617 12.4932C50.3528 12.0469 50.1484 11.484 50.1484 10.8055C50.1484 10.0958 50.3588 9.51345 50.7816 9.06139C51.2044 8.60933 51.7727 8.38281 52.4886 8.38281C53.1786 8.38281 53.733 8.60544 54.1528 9.05167C54.5516 9.48526 54.7521 10.0452 54.7521 10.7296ZM53.6682 10.7627C53.6682 10.3398 53.5745 9.97718 53.388 9.67483C53.1687 9.30929 52.8566 9.12653 52.4508 9.12653C52.031 9.12653 51.7119 9.30929 51.4925 9.67483C51.3051 9.97718 51.2123 10.3456 51.2123 10.7812C51.2123 11.2041 51.3061 11.5667 51.4925 11.869C51.7189 12.2346 52.034 12.4173 52.4408 12.4173C52.8396 12.4173 53.1527 12.2317 53.3781 11.8593C53.5715 11.5511 53.6682 11.1856 53.6682 10.7627Z" fill="white"/>
<path d="M62.5856 8.47656L61.1149 13.0594H60.1577L59.5484 11.0694C59.3939 10.5726 59.2682 10.0787 59.1705 9.58873H59.1516C59.0608 10.0923 58.9352 10.5852 58.7737 11.0694L58.1266 13.0594H57.1584L55.7754 8.47656H56.8493L57.3807 10.6552C57.5093 11.1705 57.615 11.6614 57.6998 12.1261H57.7187C57.7965 11.7431 57.9251 11.255 58.1066 10.6649L58.7737 8.47754H59.6252L60.2643 10.6183C60.4189 11.1403 60.5445 11.6429 60.6412 12.1271H60.6702C60.741 11.6556 60.8476 11.153 60.9892 10.6183L61.5596 8.47754H62.5856V8.47656Z" fill="white"/>
<path d="M68.0028 13.059H66.9579V10.4341C66.9579 9.62524 66.6428 9.22081 66.0106 9.22081C65.7005 9.22081 65.4503 9.33164 65.2558 9.55427C65.0634 9.7769 64.9657 10.0394 64.9657 10.3398V13.058H63.9207V9.78565C63.9207 9.38317 63.9077 8.94666 63.8828 8.47418H64.8011L64.85 9.19068H64.8789C65.0006 8.96805 65.182 8.78431 65.4203 8.63751C65.7035 8.46641 66.0206 8.37988 66.3676 8.37988C66.8063 8.37988 67.1712 8.51793 67.4614 8.795C67.8224 9.13429 68.0028 9.64079 68.0028 10.3135V13.059Z" fill="white"/>
<path d="M70.8838 13.0592H69.8398V6.37354H70.8838V13.0592Z" fill="white"/>
<path d="M77.0353 10.7296C77.0353 11.4345 76.8289 12.0119 76.4161 12.465C75.9833 12.9306 75.409 13.163 74.6941 13.163C74.0031 13.163 73.4537 12.9404 73.0449 12.4932C72.636 12.0469 72.4316 11.484 72.4316 10.8055C72.4316 10.0958 72.642 9.51345 73.0648 9.06139C73.4876 8.60933 74.0559 8.38281 74.7708 8.38281C75.4618 8.38281 76.0152 8.60544 76.436 9.05167C76.8348 9.48526 77.0353 10.0452 77.0353 10.7296ZM75.9504 10.7627C75.9504 10.3398 75.8567 9.97718 75.6702 9.67483C75.4519 9.30929 75.1388 9.12653 74.7339 9.12653C74.3132 9.12653 73.9941 9.30929 73.7757 9.67483C73.5883 9.97718 73.4955 10.3456 73.4955 10.7812C73.4955 11.2041 73.5893 11.5667 73.7757 11.869C74.0021 12.2346 74.3172 12.4173 74.724 12.4173C75.1228 12.4173 75.4349 12.2317 75.6603 11.8593C75.8547 11.5511 75.9504 11.1856 75.9504 10.7627Z" fill="white"/>
<path d="M82.0932 13.059H81.1549L81.0771 12.5311H81.0482C80.7271 12.952 80.2695 13.163 79.6752 13.163C79.2315 13.163 78.8725 13.024 78.6023 12.7479C78.357 12.4971 78.2344 12.185 78.2344 11.8146C78.2344 11.2546 78.4737 10.8278 78.9553 10.5323C79.4359 10.2367 80.1119 10.0919 80.9824 10.0987V10.0131C80.9824 9.40943 80.6573 9.10805 80.0062 9.10805C79.5426 9.10805 79.1338 9.2218 78.7808 9.44734L78.5684 8.77849C79.0051 8.51503 79.5446 8.38281 80.1807 8.38281C81.4091 8.38281 82.0254 9.01473 82.0254 10.2786V11.9662C82.0254 12.4241 82.0483 12.7887 82.0932 13.059ZM81.0083 11.484V10.7773C79.8557 10.7578 79.2793 11.066 79.2793 11.7008C79.2793 11.94 79.3451 12.1189 79.4798 12.2385C79.6144 12.358 79.7859 12.4173 79.9903 12.4173C80.2196 12.4173 80.434 12.3464 80.6294 12.2054C80.8258 12.0635 80.9465 11.8836 80.9914 11.6629C81.0023 11.6133 81.0083 11.5531 81.0083 11.484Z" fill="white"/>
<path d="M88.0319 13.0592H87.1046L87.0557 12.3232H87.0268C86.7307 12.8832 86.2261 13.1632 85.5172 13.1632C84.9508 13.1632 84.4792 12.9464 84.1053 12.5128C83.7314 12.0792 83.5449 11.5163 83.5449 10.8251C83.5449 10.0834 83.7473 9.48255 84.1542 9.02368C84.548 8.59593 85.0306 8.38205 85.6049 8.38205C86.2361 8.38205 86.6778 8.58912 86.9291 9.00424H86.949V6.37354H87.995V11.8245C87.995 12.2707 88.0069 12.682 88.0319 13.0592ZM86.949 11.1265V10.3624C86.949 10.2302 86.939 10.1232 86.9201 10.0415C86.8613 9.79656 86.7346 9.59046 86.5422 9.42422C86.3478 9.25798 86.1134 9.17437 85.8432 9.17437C85.4534 9.17437 85.1483 9.32506 84.9239 9.6274C84.7016 9.92975 84.5889 10.3157 84.5889 10.7872C84.5889 11.2402 84.6956 11.6077 84.9099 11.8906C85.1363 12.192 85.4414 12.3427 85.8233 12.3427C86.1663 12.3427 86.4405 12.2173 86.6489 11.9655C86.8503 11.7331 86.949 11.4531 86.949 11.1265Z" fill="white"/>
<path d="M96.9669 10.7296C96.9669 11.4345 96.7605 12.0119 96.3477 12.465C95.915 12.9306 95.3426 13.163 94.6257 13.163C93.9367 13.163 93.3873 12.9404 92.9765 12.4932C92.5677 12.0469 92.3633 11.484 92.3633 10.8055C92.3633 10.0958 92.5737 9.51345 92.9964 9.06139C93.4192 8.60933 93.9876 8.38281 94.7045 8.38281C95.3935 8.38281 95.9489 8.60544 96.3676 9.05167C96.7665 9.48526 96.9669 10.0452 96.9669 10.7296ZM95.8841 10.7627C95.8841 10.3398 95.7903 9.97718 95.6039 9.67483C95.3835 9.30929 95.0724 9.12653 94.6656 9.12653C94.2468 9.12653 93.9277 9.30929 93.7074 9.67483C93.5199 9.97718 93.4272 10.3456 93.4272 10.7812C93.4272 11.2041 93.5209 11.5667 93.7074 11.869C93.9337 12.2346 94.2488 12.4173 94.6556 12.4173C95.0545 12.4173 95.3685 12.2317 95.5939 11.8593C95.7863 11.5511 95.8841 11.1856 95.8841 10.7627Z" fill="white"/>
<path d="M102.586 13.059H101.542V10.4341C101.542 9.62524 101.227 9.22081 100.594 9.22081C100.284 9.22081 100.033 9.33164 99.8398 9.55427C99.6464 9.7769 99.5496 10.0394 99.5496 10.3398V13.058H98.5037V9.78565C98.5037 9.38317 98.4917 8.94666 98.4668 8.47418H99.3841L99.433 9.19068H99.4619C99.5845 8.96805 99.766 8.78431 100.003 8.63751C100.288 8.46641 100.604 8.37988 100.952 8.37988C101.389 8.37988 101.754 8.51793 102.044 8.795C102.406 9.13429 102.586 9.64079 102.586 10.3135V13.059Z" fill="white"/>
<path d="M109.619 9.23921H108.468V11.4655C108.468 12.0313 108.672 12.3142 109.077 12.3142C109.265 12.3142 109.42 12.2986 109.543 12.2666L109.57 13.0394C109.363 13.1153 109.092 13.1532 108.758 13.1532C108.345 13.1532 108.024 13.0307 107.792 12.7857C107.559 12.5407 107.443 12.1285 107.443 11.5501V9.23921H106.756V8.47605H107.443V7.63609L108.467 7.33472V8.47508H109.618V9.23921H109.619Z" fill="white"/>
<path d="M115.151 13.0592H114.105V10.4538C114.105 9.63226 113.789 9.22103 113.158 9.22103C112.674 9.22103 112.343 9.45922 112.161 9.93558C112.13 10.0357 112.112 10.1582 112.112 10.3021V13.0582H111.068V6.37354H112.112V9.13548H112.132C112.461 8.63287 112.933 8.38205 113.544 8.38205C113.977 8.38205 114.335 8.5201 114.619 8.79717C114.973 9.14229 115.151 9.6556 115.151 10.3342V13.0592Z" fill="white"/>
<path d="M120.857 10.5507C120.857 10.7335 120.843 10.8871 120.818 11.0125H117.684C117.698 11.4655 117.847 11.8107 118.137 12.0498C118.403 12.2637 118.745 12.3706 119.164 12.3706C119.627 12.3706 120.05 12.2987 120.431 12.1538L120.594 12.8616C120.149 13.0502 119.624 13.1445 119.017 13.1445C118.289 13.1445 117.716 12.9355 117.301 12.5174C116.884 12.0994 116.678 11.5385 116.678 10.8346C116.678 10.1434 116.87 9.56785 117.258 9.10899C117.663 8.61901 118.21 8.37402 118.901 8.37402C119.577 8.37402 120.091 8.61901 120.438 9.10899C120.718 9.49786 120.857 9.97908 120.857 10.5507ZM119.859 10.2873C119.867 9.98492 119.799 9.72437 119.657 9.50466C119.476 9.22176 119.199 9.07982 118.825 9.07982C118.484 9.07982 118.206 9.21787 117.994 9.49494C117.82 9.71562 117.718 9.97908 117.684 10.2873H119.859Z" fill="white"/>
</svg>
