<svg width="76" height="76" viewBox="0 0 76 76" fill="none" xmlns="http://www.w3.org/2000/svg">
<path d="M75.2449 0.737529C74.5102 0.00289068 73.3956 -0.199747 72.4584 0.205571L1.52773 30.6044C0.641094 30.9844 0.0585117 31.8203 0.00784693 32.7576C-0.0681502 33.6949 0.413115 34.6069 1.22375 35.0882L26.0241 49.9583L40.8942 74.7587C41.3501 75.5187 42.1862 76 43.0729 76C43.1235 76 43.1741 76 43.2501 76C44.1874 75.924 45.0234 75.3413 45.4034 74.48L75.8022 3.54942C76.2076 2.58679 76.0048 1.49752 75.2702 0.762886L75.2449 0.737529ZM8.06352 33.3149L62.3508 10.0599L27.4427 44.9679L8.06352 33.3403V33.3149ZM42.6675 67.919L31.04 48.5397L65.9479 13.6317L42.6928 67.919H42.6675Z" fill="#BB9B80"/>
<path d="M13.3808 48.083L7.73172 65.0557C7.42774 65.9676 7.6557 66.981 8.33968 67.6396C8.82099 68.1209 9.47969 68.3743 10.1383 68.3743C10.417 68.3743 10.6702 68.3236 10.9488 68.2476L27.9215 62.5985L22.4752 53.5295L13.4061 48.083H13.3808Z" fill="#87919C"/>
</svg>
