<svg width="59" height="59" viewBox="0 0 59 59" fill="none" xmlns="http://www.w3.org/2000/svg">
<rect x="0.5" y="0.5" width="58" height="58" rx="9.5" stroke="white"/>
<g clip-path="url(#clip0_107_6706)">
<path d="M27.8592 31.6113V50H10.1975L10 49.798V31.6113H27.8592ZM24.7066 34.8314H13.1526V46.7772H24.7093V34.8314H24.7066Z" fill="white"/>
<path d="M27.8592 10V28.3886H10.1975L10 28.1867V10H27.8592ZM24.7066 25.1686L24.6408 13.2227H13.1526V25.1686H24.7093H24.7066Z" fill="white"/>
<path d="M48.9998 10V28.1867L48.8023 28.3886H31.1406V10H48.9998ZM45.8499 13.2227H34.359L34.1615 13.4246V24.9694L34.359 25.1713H45.8499V13.2227Z" fill="white"/>
<path d="M38.2337 46.2414C37.0538 46.2414 35.8686 46.2414 34.6887 46.2414V49.8653H31.2754V31.7432H38.2363V35.367H45.3262V31.9451L45.5238 31.7432H48.8712V42.4156L48.6737 42.6175H41.9762L41.7786 42.4156V38.9936H34.6887V42.6175H38.2337C38.2389 43.8237 38.2284 45.0352 38.2337 46.2414C39.4136 46.2414 40.5987 46.2414 41.7786 46.2414V49.6633L41.5811 49.8653H38.4286C38.2995 49.7818 38.2574 49.6795 38.231 49.5287C38.0888 48.7399 38.2363 47.1406 38.231 46.2414H38.2337Z" fill="white"/>
<path d="M48.8718 46.2412V49.6632L48.6743 49.8651H45.5217L45.3242 49.6632V46.2412H48.8718Z" fill="white"/>
<path d="M20.7665 38.8594H17.0898V42.6179H20.7665V38.8594Z" fill="white"/>
<path d="M20.7691 21.0065H17.0898V17.45L17.2874 17.248H20.5716L20.7691 17.45V21.0065Z" fill="white"/>
<path d="M41.9107 21.0063H38.1023C38.0681 20.9067 38.234 20.8448 38.234 20.8044V17.5817C38.234 17.5359 38.0022 17.4336 38.2998 17.2451H41.7131L41.9107 17.447V21.0036V21.0063Z" fill="white"/>
</g>
<defs>
<clipPath id="clip0_107_6706">
<rect width="39" height="40" fill="white" transform="translate(10 10)"/>
</clipPath>
</defs>
</svg>
