<svg width="70" height="70" viewBox="0 0 70 70" fill="none" xmlns="http://www.w3.org/2000/svg">
<path d="M19.8333 0C8.89 0 0 8.89 0 19.8333C0 30.7767 8.89 39.6667 19.8333 39.6667C30.7767 39.6667 39.6667 30.7767 39.6667 19.8333C39.6667 8.89 30.7767 0 19.8333 0ZM19.8333 35C11.48 35 4.66667 28.1867 4.66667 19.8333C4.66667 11.48 11.48 4.66667 19.8333 4.66667C28.1867 4.66667 35 11.48 35 19.8333C35 28.1867 28.1867 35 19.8333 35Z" fill="#BB9B80"/>
<path d="M18.0833 15.1667H25.0833C26.3667 15.1667 27.4167 14.1167 27.4167 12.8333C27.4167 11.55 26.3667 10.5 25.0833 10.5H22.1667V9.33333C22.1667 8.05 21.1167 7 19.8333 7C18.55 7 17.5 8.05 17.5 9.33333V10.57C14.56 10.8733 12.25 13.3233 12.25 16.3333C12.25 19.5533 14.8633 22.1667 18.0833 22.1667H21.5833C22.2367 22.1667 22.75 22.68 22.75 23.3333C22.75 23.9867 22.2367 24.5 21.5833 24.5H14.5833C13.3 24.5 12.25 25.55 12.25 26.8333C12.25 28.1167 13.3 29.1667 14.5833 29.1667H17.5V30.3333C17.5 31.6167 18.55 32.6667 19.8333 32.6667C21.1167 32.6667 22.1667 31.6167 22.1667 30.3333V29.0967C25.1067 28.7933 27.4167 26.3433 27.4167 23.3333C27.4167 20.1133 24.8033 17.5 21.5833 17.5H18.0833C17.43 17.5 16.9167 16.9867 16.9167 16.3333C16.9167 15.68 17.43 15.1667 18.0833 15.1667Z" fill="#BB9B80"/>
<path d="M66.9898 14.6766C66.0798 13.7666 64.6098 13.7666 63.6998 14.6766L60.6898 17.6866V11.6433C60.6898 7.7933 57.5398 4.64331 53.6898 4.64331H46.6898C45.4064 4.64331 44.3564 5.6933 44.3564 6.97663C44.3564 8.25997 45.4064 9.30997 46.6898 9.30997H53.6898C54.9731 9.30997 56.0231 10.36 56.0231 11.6433V17.6866L53.0131 14.6766C52.1031 13.7666 50.6331 13.7666 49.7231 14.6766C48.8131 15.5866 48.8131 17.0566 49.7231 17.9666L56.7231 24.9666C57.1898 25.4333 57.7731 25.6433 58.3798 25.6433C58.9865 25.6433 59.5698 25.41 60.0364 24.9666L67.0364 17.9666C67.9464 17.0566 67.9464 15.5866 67.0364 14.6766H66.9898Z" fill="#BB9B80"/>
<path d="M23.3341 60.6668H16.3341C15.0507 60.6668 14.0007 59.6168 14.0007 58.3335V52.2901L17.0107 55.3001C17.4774 55.7668 18.0607 55.9768 18.6674 55.9768C19.2741 55.9768 19.8574 55.7435 20.3241 55.3001C21.2341 54.3901 21.2341 52.9201 20.3241 52.0101L13.3241 45.0101C12.4141 44.1001 10.9441 44.1001 10.0341 45.0101L3.03406 52.0101C2.12406 52.9201 2.12406 54.3901 3.03406 55.3001C3.94406 56.2101 5.41405 56.2101 6.32405 55.3001L9.33406 52.2901V58.3335C9.33406 62.1835 12.4841 65.3335 16.3341 65.3335H23.3341C24.6174 65.3335 25.6674 64.2835 25.6674 63.0001C25.6674 61.7168 24.6174 60.6668 23.3341 60.6668Z" fill="#BB9B80"/>
<path d="M30.333 50.1666C30.333 39.2233 39.223 30.3333 50.1663 30.3333C61.1097 30.3333 69.9997 39.2233 69.9997 50.1666C69.9997 61.1099 61.1097 69.9999 50.1663 69.9999C39.223 69.9999 30.333 61.1099 30.333 50.1666Z" fill="#87919C"/>
<path d="M53.1333 41H44.6C43.7253 41 43 41.68 43 42.5C43 43.32 43.7253 44 44.6 44H45.1973C45.176 44.16 45.1333 44.32 45.1333 44.5V56.5C45.1333 56.68 45.1547 56.84 45.1973 57H44.6C43.7253 57 43 57.68 43 58.5C43 59.32 43.7253 60 44.6 60H53.1333C56.376 60 59 57.54 59 54.5C59 52.92 58.296 51.5 57.1653 50.5C58.296 49.5 59 48.08 59 46.5C59 43.46 56.376 41 53.1333 41ZM53.1333 57H48.8667C48.568 57 48.3333 56.78 48.3333 56.5V52H53.1333C54.6053 52 55.8 53.12 55.8 54.5C55.8 55.88 54.6053 57 53.1333 57ZM53.1333 49H48.3333V44.5C48.3333 44.22 48.568 44 48.8667 44H53.1333C54.6053 44 55.8 45.12 55.8 46.5C55.8 47.88 54.6053 49 53.1333 49Z" fill="white"/>
</svg>
