<svg width="70" height="70" viewBox="0 0 70 70" fill="none" xmlns="http://www.w3.org/2000/svg">
<path d="M67.6667 32.6667H66.3834C65.24 17.15 52.85 4.76 37.3333 3.61667V2.33333C37.3333 1.05 36.2833 0 35 0C33.7167 0 32.6667 1.05 32.6667 2.33333V3.61667C17.15 4.76 4.75997 17.15 3.61664 32.6667H2.33333C1.05 32.6667 0 33.7167 0 35C0 36.2833 1.05 37.3333 2.33333 37.3333H3.61664C4.75997 52.85 17.15 65.24 32.6667 66.3833V67.6667C32.6667 68.95 33.7167 70 35 70C36.2833 70 37.3333 68.95 37.3333 67.6667V66.3833C52.85 65.24 65.24 52.85 66.3834 37.3333H67.6667C68.95 37.3333 70 36.2833 70 35C70 33.7167 68.95 32.6667 67.6667 32.6667ZM60.6667 37.3333H61.7167C60.5967 50.26 50.26 60.5967 37.3333 61.7167V60.6667C37.3333 59.3833 36.2833 58.3333 35 58.3333C33.7167 58.3333 32.6667 59.3833 32.6667 60.6667V61.7167C19.74 60.5967 9.4033 50.26 8.2833 37.3333H9.33333C10.6167 37.3333 11.6667 36.2833 11.6667 35C11.6667 33.7167 10.6167 32.6667 9.33333 32.6667H8.2833C9.4033 19.74 19.74 9.40333 32.6667 8.28333V9.33333C32.6667 10.6167 33.7167 11.6667 35 11.6667C36.2833 11.6667 37.3333 10.6167 37.3333 9.33333V8.28333C50.26 9.40333 60.5967 19.74 61.7167 32.6667H60.6667C59.3833 32.6667 58.3333 33.7167 58.3333 35C58.3333 36.2833 59.3833 37.3333 60.6667 37.3333Z" fill="#BB9B80"/>
<path d="M64.1667 0H58.3333C57.05 0 56 1.05 56 2.33333C56 3.61667 57.05 4.66667 58.3333 4.66667H64.1667C64.82 4.66667 65.3333 5.18 65.3333 5.83333V11.6667C65.3333 12.95 66.3833 14 67.6667 14C68.95 14 70 12.95 70 11.6667V5.83333C70 2.61333 67.3867 0 64.1667 0Z" fill="#BB9B80"/>
<path d="M67.6667 56C66.3833 56 65.3333 57.05 65.3333 58.3333V64.1667C65.3333 64.82 64.82 65.3333 64.1667 65.3333H58.3333C57.05 65.3333 56 66.3833 56 67.6667C56 68.95 57.05 70 58.3333 70H64.1667C67.3867 70 70 67.3867 70 64.1667V58.3333C70 57.05 68.95 56 67.6667 56Z" fill="#BB9B80"/>
<path d="M2.33333 14C3.61667 14 4.66667 12.95 4.66667 11.6667V5.83333C4.66667 5.18 5.18 4.66667 5.83333 4.66667H11.6667C12.95 4.66667 14 3.61667 14 2.33333C14 1.05 12.95 0 11.6667 0H5.83333C2.61333 0 0 2.61333 0 5.83333V11.6667C0 12.95 1.05 14 2.33333 14Z" fill="#BB9B80"/>
<path d="M11.6667 65.3333H5.83333C5.18 65.3333 4.66667 64.82 4.66667 64.1667V58.3333C4.66667 57.05 3.61667 56 2.33333 56C1.05 56 0 57.05 0 58.3333V64.1667C0 67.3867 2.61333 70 5.83333 70H11.6667C12.95 70 14 68.95 14 67.6667C14 66.3833 12.95 65.3333 11.6667 65.3333Z" fill="#BB9B80"/>
<path d="M34.9997 16.3333C24.7097 16.3333 16.333 24.7099 16.333 34.9999C16.333 45.2899 24.7097 53.6666 34.9997 53.6666C45.2897 53.6666 53.6663 45.2899 53.6663 34.9999C53.6663 24.7099 45.2897 16.3333 34.9997 16.3333ZM33.2497 32.6666H36.7497C39.9697 32.6666 42.583 35.2799 42.583 38.4999C42.583 41.5099 40.273 43.9832 37.333 44.2633V45.4999C37.333 46.7833 36.283 47.8333 34.9997 47.8333C33.7163 47.8333 32.6663 46.7833 32.6663 45.4999V44.3333H29.7497C28.4663 44.3333 27.4163 43.2833 27.4163 41.9999C27.4163 40.7166 28.4663 39.6666 29.7497 39.6666H36.7497C37.403 39.6666 37.9163 39.1533 37.9163 38.4999C37.9163 37.8466 37.403 37.3333 36.7497 37.3333H33.2497C30.0297 37.3333 27.4163 34.7199 27.4163 31.4999C27.4163 28.4899 29.7263 26.0166 32.6663 25.7366V24.4999C32.6663 23.2166 33.7163 22.1666 34.9997 22.1666C36.283 22.1666 37.333 23.2166 37.333 24.4999V25.6666H40.2497C41.533 25.6666 42.583 26.7166 42.583 27.9999C42.583 29.2833 41.533 30.3333 40.2497 30.3333H33.2497C32.5963 30.3333 32.083 30.8466 32.083 31.4999C32.083 32.1533 32.5963 32.6666 33.2497 32.6666Z" fill="#87919C"/>
</svg>
