<svg width="70" height="70" viewBox="0 0 70 70" fill="none" xmlns="http://www.w3.org/2000/svg">
<path d="M25.8467 21.7663H34.4055C35.6881 21.7663 36.7375 20.7169 36.7375 19.4343C36.7375 18.1516 35.6881 17.1022 34.4055 17.1022H30.3243V15.1666C30.3243 13.8839 29.2749 12.8345 27.9923 12.8345C26.7096 12.8345 25.6602 13.8839 25.6602 15.1666V17.1255C22.1154 17.2421 19.247 20.1339 19.247 23.702C19.247 27.27 22.2087 30.3017 25.8467 30.3017H30.1145C31.1872 30.3017 32.0501 31.1646 32.0501 32.2374C32.0501 33.3101 31.1872 34.173 30.1145 34.173H21.5557C20.2731 34.173 19.2236 35.2224 19.2236 36.5051C19.2236 37.7877 20.2731 38.8371 21.5557 38.8371H25.6368V40.7728C25.6368 42.0554 26.6863 43.1049 27.9689 43.1049C29.2516 43.1049 30.301 42.0554 30.301 40.7728V38.8138C33.8458 38.6972 36.7142 35.8054 36.7142 32.2374C36.7142 28.6693 33.7525 25.6376 30.1145 25.6376H25.8467C24.774 25.6376 23.9111 24.7747 23.9111 23.702C23.9111 22.6292 24.774 21.7663 25.8467 21.7663Z" fill="#BB9B80"/>
<path d="M43.1504 25.6609C41.8678 25.6609 40.8184 26.7103 40.8184 27.993C40.8184 29.2756 41.8678 30.325 43.1504 30.325H44.3165C45.5991 30.325 46.6486 29.2756 46.6486 27.993C46.6486 26.7103 45.5991 25.6609 44.3165 25.6609H43.1504Z" fill="#BB9B80"/>
<path d="M12.8331 25.6609H11.667C10.3844 25.6609 9.33496 26.7103 9.33496 27.993C9.33496 29.2756 10.3844 30.325 11.667 30.325H12.8331C14.1157 30.325 15.1652 29.2756 15.1652 27.993C15.1652 26.7103 14.1157 25.6609 12.8331 25.6609Z" fill="#BB9B80"/>
<path d="M64.2319 5.74488C63.3224 4.83537 61.8532 4.83537 60.9437 5.74488L58.5649 8.12361C57.6554 9.03312 57.6554 10.5023 58.5649 11.4118C59.0314 11.8782 59.6144 12.0881 60.2207 12.0881C60.8271 12.0881 61.4101 11.8549 61.8765 11.4118L64.2552 9.03312C65.1647 8.12361 65.1647 6.65439 64.2552 5.74488H64.2319Z" fill="#BB9B80"/>
<path d="M55.1134 0.0782313C53.8774 -0.24826 52.5947 0.474691 52.2683 1.73401L51.4054 4.99892C51.0789 6.23492 51.8018 7.51756 53.0612 7.84406C53.271 7.8907 53.4576 7.91401 53.6675 7.91401C54.6936 7.91401 55.6498 7.23772 55.9296 6.18828L56.7925 2.92337C57.119 1.68737 56.396 0.404722 55.1367 0.0782313H55.1134Z" fill="#BB9B80"/>
<path d="M69.9002 14.8636C69.5737 13.6276 68.291 12.8813 67.055 13.2078L63.7901 14.0707C62.5541 14.3972 61.8078 15.6798 62.1343 16.9158C62.4142 17.9653 63.347 18.6416 64.3965 18.6416C64.6063 18.6416 64.7929 18.6182 65.0028 18.5716L68.2677 17.7087C69.5037 17.3822 70.25 16.0996 69.9235 14.8636H69.9002Z" fill="#BB9B80"/>
<path d="M8.12239 58.5662L5.74366 60.9449C4.83415 61.8544 4.83415 63.3236 5.74366 64.2331C6.21007 64.6995 6.79309 64.9094 7.39943 64.9094C8.00577 64.9094 8.58879 64.6762 9.0552 64.2331L11.4339 61.8544C12.3434 60.9449 12.3434 59.4757 11.4339 58.5662C10.5244 57.6567 9.0552 57.6567 8.14569 58.5662H8.12239Z" fill="#BB9B80"/>
<path d="M16.9386 62.1344C15.7026 61.8079 14.4199 62.5308 14.0935 63.7902L13.2306 67.0551C12.9041 68.2911 13.627 69.5737 14.8863 69.9002C15.0962 69.9468 15.2828 69.9702 15.4927 69.9702C16.5188 69.9702 17.475 69.2939 17.7548 68.2444L18.6177 64.9795C18.9442 63.7435 18.2212 62.4609 16.9619 62.1344H16.9386Z" fill="#BB9B80"/>
<path d="M7.84254 53.0394C7.51605 51.8034 6.23341 51.0571 4.9974 51.3836L1.7325 52.2465C0.496499 52.573 -0.249773 53.8556 0.0767182 55.0916C0.356568 56.1411 1.2894 56.8173 2.33884 56.8173C2.54872 56.8173 2.73529 56.794 2.94517 56.7474L6.21009 55.8845C7.4461 55.558 8.19236 54.2754 7.86587 53.0394H7.84254Z" fill="#BB9B80"/>
<path d="M27.9918 0.00805664C12.5534 0.00805664 0.00683594 12.5546 0.00683594 27.993C0.00683594 43.4313 12.5534 55.9779 27.9918 55.9779C43.4301 55.9779 55.9767 43.4313 55.9767 27.993C55.9767 12.5546 43.4301 0.00805664 27.9918 0.00805664ZM27.9918 51.3138C15.142 51.3138 4.67099 40.8427 4.67099 27.993C4.67099 15.1432 15.142 4.67221 27.9918 4.67221C40.8415 4.67221 51.3126 15.1432 51.3126 27.993C51.3126 40.8427 40.8415 51.3138 27.9918 51.3138Z" fill="#BB9B80"/>
<path d="M60.6405 28.0396C60.6172 46.0199 45.9951 60.6187 28.0381 60.642C32.3058 66.2856 39.0455 69.9703 46.6481 69.9703C59.4978 69.9703 69.9689 59.4993 69.9689 46.6495C69.9689 39.047 66.2842 32.2839 60.6405 28.0396ZM50.566 64.3967C49.2833 64.3967 48.2339 63.3472 48.2339 62.0646C48.2339 60.7819 49.2833 59.7325 50.566 59.7325C55.7199 59.7325 59.8943 55.5581 59.8943 50.4042C59.8943 49.1215 60.9437 48.0721 62.2264 48.0721C63.509 48.0721 64.5584 49.1215 64.5584 50.4042C64.5584 58.1234 58.2851 64.3967 50.566 64.3967Z" fill="#87919C"/>
</svg>
