<svg width="600" height="285" viewBox="0 0 600 285" fill="none" xmlns="http://www.w3.org/2000/svg">
<path opacity="0.0416667" d="M169.771 478.027C38.4562 442.741 -31.4637 334.318 12.9311 236.137C57.3261 137.957 199.524 86.5338 330.839 121.82C462.154 157.107 532.074 265.529 487.679 363.71C443.284 461.891 301.087 513.313 169.771 478.027Z" stroke="url(#paint0_linear_107_2017)" stroke-opacity="0.5" stroke-width="2"/>
<path opacity="0.0833333" d="M181.863 453.158C58.3399 406.292 0.954129 290.56 53.1234 194.846C105.293 99.1319 247.553 59.1462 371.076 106.011C494.598 152.877 551.983 268.609 499.814 364.323C447.645 460.037 305.385 500.023 181.863 453.158Z" stroke="url(#paint1_linear_107_2017)" stroke-opacity="0.5" stroke-width="2"/>
<path opacity="0.125" d="M195.341 429.519C80.3679 371.757 35.8156 249.846 95.3651 157.334C154.915 64.8222 296.287 36.3196 411.26 94.0813C526.233 151.843 570.786 273.753 511.236 366.265C451.687 458.778 310.314 487.281 195.341 429.519Z" stroke="url(#paint2_linear_107_2017)" stroke-opacity="0.5" stroke-width="2"/>
<path opacity="0.166667" d="M210.046 407.242C104.29 339.336 72.7527 212.418 139.23 123.819C205.707 35.2202 345.271 18.1642 451.028 86.0703C556.785 153.976 588.321 280.895 521.844 369.494C455.366 458.093 315.803 475.148 210.046 407.242Z" stroke="url(#paint3_linear_107_2017)" stroke-opacity="0.5" stroke-width="2"/>
<path opacity="0.208333" d="M225.807 386.443C129.84 309.206 111.384 178.479 184.282 94.475C257.181 10.4709 394.047 4.74943 490.015 81.9861C585.982 159.223 604.438 289.951 531.539 373.955C458.641 457.958 321.775 463.679 225.807 386.443Z" stroke="url(#paint4_linear_107_2017)" stroke-opacity="0.5" stroke-width="2"/>
<path opacity="0.25" d="M242.453 367.223C156.752 281.523 151.327 148.203 230.09 69.4401C308.852 -9.32253 442.172 -3.89703 527.873 81.8034C613.573 167.504 618.998 300.823 540.235 379.586C461.473 458.348 328.153 452.923 242.453 367.223Z" stroke="url(#paint5_linear_107_2017)" stroke-opacity="0.5" stroke-width="2"/>
<path opacity="0.291667" d="M259.803 349.669C184.752 256.416 192.193 121.728 276.216 48.8127C360.239 -24.1027 489.208 -7.79145 564.26 85.4615C639.312 178.714 631.87 313.402 547.847 386.318C463.823 459.233 334.855 442.922 259.803 349.669Z" stroke="url(#paint6_linear_107_2017)" stroke-opacity="0.5" stroke-width="2"/>
<path opacity="0.333333" d="M277.681 333.848C213.563 233.991 233.593 99.1545 322.233 32.6466C410.872 -33.8612 534.735 -6.99079 598.853 92.867C662.971 192.725 642.94 327.561 554.3 394.069C465.661 460.576 341.799 433.706 277.681 333.848Z" stroke="url(#paint7_linear_107_2017)" stroke-opacity="0.5" stroke-width="2"/>
<path opacity="0.375" d="M295.908 319.815C242.912 214.327 275.147 80.5494 367.722 20.9592C460.298 -38.6307 578.349 -1.59146 631.346 103.896C684.342 209.383 652.107 343.161 559.532 402.751C466.957 462.341 348.904 425.302 295.908 319.815Z" stroke="url(#paint8_linear_107_2017)" stroke-opacity="0.5" stroke-width="2"/>
<path opacity="0.416667" d="M314.304 307.605C272.523 197.483 316.471 65.9428 412.272 13.7262C508.073 -38.4902 619.669 8.2699 661.45 118.392C703.231 228.514 659.283 360.054 563.482 412.271C467.681 464.487 356.085 417.727 314.304 307.605Z" stroke="url(#paint9_linear_107_2017)" stroke-opacity="0.5" stroke-width="2"/>
<path opacity="0.458333" d="M332.696 297.239C302.13 183.488 357.201 55.3291 455.492 10.8842C553.784 -33.5605 658.336 22.4199 688.903 136.171C719.47 249.922 664.398 378.08 566.107 422.524C467.815 466.969 363.263 410.99 332.696 297.239Z" stroke="url(#paint10_linear_107_2017)" stroke-opacity="0.5" stroke-width="2"/>
<path opacity="0.5" d="M350.912 288.718C331.467 172.347 396.979 48.6688 497.008 12.333C597.037 -24.0025 694.017 40.649 713.463 157.02C732.908 273.392 667.396 397.068 567.367 433.404C467.339 469.74 370.357 405.09 350.912 288.718Z" stroke="url(#paint11_linear_107_2017)" stroke-opacity="0.5" stroke-width="2"/>
<path opacity="0.541667" d="M368.787 282.031C360.282 164.042 435.467 45.8879 536.467 17.9354C637.467 -10.0169 726.413 62.7134 734.919 180.703C743.424 298.692 668.239 416.845 567.239 444.797C466.239 472.75 377.293 400.02 368.787 282.031Z" stroke="url(#paint12_linear_107_2017)" stroke-opacity="0.5" stroke-width="2"/>
<path opacity="0.583333" d="M386.165 277.149C388.331 158.531 472.344 46.878 573.544 27.5182C674.744 8.1585 755.253 88.3383 753.088 206.956C750.921 325.574 666.909 437.227 565.709 456.587C464.509 475.947 383.999 395.767 386.165 277.149Z" stroke="url(#paint13_linear_107_2017)" stroke-opacity="0.5" stroke-width="2"/>
<path opacity="0.625" d="M402.894 274.029C415.382 155.749 507.307 51.5019 607.935 40.8773C708.562 30.253 780.3 117.22 767.812 235.5C755.324 353.781 663.397 458.029 562.77 468.653C462.143 479.277 390.406 392.309 402.894 274.029Z" stroke="url(#paint14_linear_107_2017)" stroke-opacity="0.5" stroke-width="2"/>
<path opacity="0.666667" d="M418.834 272.613C441.218 155.607 540.083 59.5885 639.372 57.7754C738.661 55.9626 801.352 149.031 778.969 266.037C756.585 383.043 657.721 479.06 558.432 480.873C459.143 482.687 396.451 389.619 418.834 272.613Z" stroke="url(#paint15_linear_107_2017)" stroke-opacity="0.5" stroke-width="2"/>
<path opacity="0.708333" d="M433.858 272.828C465.638 157.995 570.418 70.9426 667.614 77.9491C764.81 84.9559 818.25 183.414 786.469 298.247C754.688 413.08 649.908 500.132 552.712 493.125C455.516 486.118 402.077 387.661 433.858 272.828Z" stroke="url(#paint16_linear_107_2017)" stroke-opacity="0.5" stroke-width="2"/>
<path opacity="0.75" d="M447.844 274.59C488.458 162.784 598.088 85.3425 692.455 101.111C786.822 116.879 830.864 219.998 790.25 331.805C749.636 443.611 640.005 521.053 545.638 505.284C451.271 489.516 407.23 386.396 447.844 274.59Z" stroke="url(#paint17_linear_107_2017)" stroke-opacity="0.5" stroke-width="2"/>
<path opacity="0.791667" d="M460.688 277.804C509.512 169.828 622.901 102.542 713.725 126.948C804.549 151.353 839.111 258.396 790.287 366.373C741.462 474.349 628.073 541.636 537.249 517.23C446.425 492.824 411.864 385.781 460.688 277.804Z" stroke="url(#paint18_linear_107_2017)" stroke-opacity="0.5" stroke-width="2"/>
<path opacity="0.833333" d="M472.298 282.363C528.657 178.962 644.694 122.274 731.29 155.129C817.885 187.984 842.946 298.206 786.587 401.606C730.228 505.007 614.192 561.696 527.597 528.841C441.001 495.986 415.939 385.764 472.298 282.363Z" stroke="url(#paint19_linear_107_2017)" stroke-opacity="0.5" stroke-width="2"/>
<path opacity="0.875" d="M482.593 288.151C545.767 190.008 663.33 144.257 745.046 185.31C826.761 226.363 842.362 339.016 779.188 437.158C716.014 535.301 598.45 581.053 516.735 539.999C435.019 498.946 419.42 386.294 482.593 288.151Z" stroke="url(#paint20_linear_107_2017)" stroke-opacity="0.5" stroke-width="2"/>
<path opacity="0.916667" d="M491.511 295.044C560.742 202.775 678.716 168.191 754.936 217.131C831.157 266.072 837.392 380.411 768.161 472.68C698.93 564.949 580.956 599.532 504.735 550.591C428.515 501.651 422.28 387.312 491.511 295.044Z" stroke="url(#paint21_linear_107_2017)" stroke-opacity="0.5" stroke-width="2"/>
<path opacity="0.958333" d="M498.999 302.909C573.501 217.058 690.782 193.766 760.934 250.226C831.086 306.686 828.109 421.972 753.608 507.823C679.106 593.674 561.825 616.967 491.672 560.507C421.52 504.047 424.498 388.76 498.999 302.909Z" stroke="url(#paint22_linear_107_2017)" stroke-opacity="0.5" stroke-width="2"/>
<path d="M505.023 311.614C583.986 232.65 699.494 220.666 763.05 284.222C826.606 347.777 814.622 463.285 735.658 542.249C656.694 621.213 541.186 633.197 477.63 569.642C414.075 506.086 426.059 390.578 505.023 311.614Z" stroke="url(#paint23_linear_107_2017)" stroke-opacity="0.5" stroke-width="2"/>
<defs>
<linearGradient id="paint0_linear_107_2017" x1="169.359" y1="478.938" x2="269.991" y2="104.448" gradientUnits="userSpaceOnUse">
<stop stop-color="#3062DD"/>
<stop offset="0.5" stop-color="#F0F0F0"/>
</linearGradient>
<linearGradient id="paint1_linear_107_2017" x1="181.384" y1="454.036" x2="321.032" y2="85.9654" gradientUnits="userSpaceOnUse">
<stop stop-color="#3062DD"/>
<stop offset="0.5" stop-color="#F0F0F0"/>
</linearGradient>
<linearGradient id="paint2_linear_107_2017" x1="194.8" y1="430.36" x2="373.767" y2="74.1319" gradientUnits="userSpaceOnUse">
<stop stop-color="#3062DD"/>
<stop offset="0.5" stop-color="#F0F0F0"/>
</linearGradient>
<linearGradient id="paint3_linear_107_2017" x1="209.446" y1="408.042" x2="426.894" y2="69.389" gradientUnits="userSpaceOnUse">
<stop stop-color="#3062DD"/>
<stop offset="0.5" stop-color="#F0F0F0"/>
</linearGradient>
<linearGradient id="paint4_linear_107_2017" x1="225.152" y1="387.198" x2="478.976" y2="71.8189" gradientUnits="userSpaceOnUse">
<stop stop-color="#3062DD"/>
<stop offset="0.5" stop-color="#F0F0F0"/>
</linearGradient>
<linearGradient id="paint5_linear_107_2017" x1="241.746" y1="367.93" x2="528.58" y2="81.0959" gradientUnits="userSpaceOnUse">
<stop stop-color="#3062DD"/>
<stop offset="0.5" stop-color="#F0F0F0"/>
</linearGradient>
<linearGradient id="paint6_linear_107_2017" x1="259.048" y1="350.324" x2="574.427" y2="96.5005" gradientUnits="userSpaceOnUse">
<stop stop-color="#3062DD"/>
<stop offset="0.5" stop-color="#F0F0F0"/>
</linearGradient>
<linearGradient id="paint7_linear_107_2017" x1="276.881" y1="334.448" x2="615.534" y2="117" gradientUnits="userSpaceOnUse">
<stop stop-color="#3062DD"/>
<stop offset="0.5" stop-color="#F0F0F0"/>
</linearGradient>
<linearGradient id="paint8_linear_107_2017" x1="295.067" y1="320.356" x2="651.295" y2="141.389" gradientUnits="userSpaceOnUse">
<stop stop-color="#3062DD"/>
<stop offset="0.5" stop-color="#F0F0F0"/>
</linearGradient>
<linearGradient id="paint9_linear_107_2017" x1="313.426" y1="308.084" x2="681.496" y2="168.436" gradientUnits="userSpaceOnUse">
<stop stop-color="#3062DD"/>
<stop offset="0.5" stop-color="#F0F0F0"/>
</linearGradient>
<linearGradient id="paint10_linear_107_2017" x1="331.785" y1="297.65" x2="706.275" y2="197.019" gradientUnits="userSpaceOnUse">
<stop stop-color="#3062DD"/>
<stop offset="0.5" stop-color="#F0F0F0"/>
</linearGradient>
<linearGradient id="paint11_linear_107_2017" x1="349.972" y1="289.059" x2="726.023" y2="226.223" gradientUnits="userSpaceOnUse">
<stop stop-color="#3062DD"/>
<stop offset="0.5" stop-color="#F0F0F0"/>
</linearGradient>
<linearGradient id="paint12_linear_107_2017" x1="367.823" y1="282.298" x2="741.285" y2="255.375" gradientUnits="userSpaceOnUse">
<stop stop-color="#3062DD"/>
<stop offset="0.5" stop-color="#F0F0F0"/>
</linearGradient>
<linearGradient id="paint13_linear_107_2017" x1="385.183" y1="277.337" x2="752.658" y2="284.048" gradientUnits="userSpaceOnUse">
<stop stop-color="#3062DD"/>
<stop offset="0.5" stop-color="#F0F0F0"/>
</linearGradient>
<linearGradient id="paint14_linear_107_2017" x1="401.899" y1="274.134" x2="760.716" y2="312.018" gradientUnits="userSpaceOnUse">
<stop stop-color="#3062DD"/>
<stop offset="0.5" stop-color="#F0F0F0"/>
</linearGradient>
<linearGradient id="paint15_linear_107_2017" x1="417.834" y1="272.631" x2="765.963" y2="339.229" gradientUnits="userSpaceOnUse">
<stop stop-color="#3062DD"/>
<stop offset="0.5" stop-color="#F0F0F0"/>
</linearGradient>
<linearGradient id="paint16_linear_107_2017" x1="432.86" y1="272.756" x2="768.809" y2="365.731" gradientUnits="userSpaceOnUse">
<stop stop-color="#3062DD"/>
<stop offset="0.5" stop-color="#F0F0F0"/>
</linearGradient>
<linearGradient id="paint17_linear_107_2017" x1="446.858" y1="274.425" x2="769.558" y2="391.647" gradientUnits="userSpaceOnUse">
<stop stop-color="#3062DD"/>
<stop offset="0.5" stop-color="#F0F0F0"/>
</linearGradient>
<linearGradient id="paint18_linear_107_2017" x1="459.722" y1="277.545" x2="768.419" y2="417.13" gradientUnits="userSpaceOnUse">
<stop stop-color="#3062DD"/>
<stop offset="0.5" stop-color="#F0F0F0"/>
</linearGradient>
<linearGradient id="paint19_linear_107_2017" x1="471.363" y1="282.009" x2="765.515" y2="442.337" gradientUnits="userSpaceOnUse">
<stop stop-color="#3062DD"/>
<stop offset="0.5" stop-color="#F0F0F0"/>
</linearGradient>
<linearGradient id="paint20_linear_107_2017" x1="481.7" y1="287.702" x2="760.893" y2="467.417" gradientUnits="userSpaceOnUse">
<stop stop-color="#3062DD"/>
<stop offset="0.5" stop-color="#F0F0F0"/>
</linearGradient>
<linearGradient id="paint21_linear_107_2017" x1="490.67" y1="294.503" x2="754.542" y2="492.492" gradientUnits="userSpaceOnUse">
<stop stop-color="#3062DD"/>
<stop offset="0.5" stop-color="#F0F0F0"/>
</linearGradient>
<linearGradient id="paint22_linear_107_2017" x1="498.22" y1="302.282" x2="746.4" y2="517.653" gradientUnits="userSpaceOnUse">
<stop stop-color="#3062DD"/>
<stop offset="0.5" stop-color="#F0F0F0"/>
</linearGradient>
<linearGradient id="paint23_linear_107_2017" x1="504.316" y1="310.907" x2="736.366" y2="542.957" gradientUnits="userSpaceOnUse">
<stop stop-color="#3062DD"/>
<stop offset="0.5" stop-color="#F0F0F0"/>
</linearGradient>
</defs>
</svg>
