<svg width="1291" height="1145" viewBox="0 0 1291 1145" fill="none" xmlns="http://www.w3.org/2000/svg">
<path opacity="0.0416667" d="M220.477 504.316C127.888 338.932 167.97 163.491 309.336 112.174C450.701 60.8566 640.501 152.847 733.09 318.231C825.678 483.614 785.596 659.055 644.231 710.372C502.865 761.69 313.065 669.699 220.477 504.316Z" stroke="url(#paint0_linear_115_1949)" stroke-opacity="0.5" stroke-width="2"/>
<path opacity="0.0833333" d="M257.028 492.159C183.571 323.264 243.178 153.22 389.639 112.079C536.101 70.9383 714.54 174.115 787.998 343.009C861.455 511.904 801.847 681.947 655.386 723.088C508.925 764.229 330.486 661.053 257.028 492.159Z" stroke="url(#paint1_linear_115_1949)" stroke-opacity="0.5" stroke-width="2"/>
<path opacity="0.125" d="M293.703 482.581C239.436 311.597 317.728 148.352 468.167 117.707C618.606 87.0621 784.717 200.522 838.983 371.507C893.249 542.492 814.958 705.737 664.519 736.382C514.079 767.026 347.969 653.566 293.703 482.581Z" stroke="url(#paint2_linear_115_1949)" stroke-opacity="0.5" stroke-width="2"/>
<path opacity="0.166667" d="M330.215 475.552C295.043 303.877 391.024 148.753 544.292 128.843C697.561 108.934 850.481 231.726 885.654 403.401C920.827 575.077 824.845 730.201 671.577 750.11C518.309 770.02 365.388 647.228 330.215 475.552Z" stroke="url(#paint3_linear_115_1949)" stroke-opacity="0.5" stroke-width="2"/>
<path opacity="0.208333" d="M366.284 471.013C349.954 300.013 462.49 154.244 617.415 145.226C772.339 136.208 911.318 267.337 927.648 438.337C943.978 609.337 831.442 755.105 676.517 764.124C521.592 773.142 382.614 642.013 366.284 471.013Z" stroke="url(#paint4_linear_115_1949)" stroke-opacity="0.5" stroke-width="2"/>
<path opacity="0.25" d="M401.64 468.892C403.756 299.892 531.58 164.612 686.975 166.557C842.37 168.503 966.768 306.94 964.653 475.94C962.537 644.94 834.713 780.219 679.318 778.274C523.922 776.329 399.525 637.892 401.64 468.892Z" stroke="url(#paint5_linear_115_1949)" stroke-opacity="0.5" stroke-width="2"/>
<path opacity="0.291667" d="M436.021 469.093C456.045 303.364 597.772 179.602 752.448 192.497C907.124 205.393 1016.42 350.082 996.391 515.811C976.367 681.541 834.64 805.304 679.964 792.408C525.288 779.513 415.997 634.822 436.021 469.093Z" stroke="url(#paint6_linear_115_1949)" stroke-opacity="0.5" stroke-width="2"/>
<path opacity="0.333333" d="M469.189 471.507C506.454 310.259 660.595 198.924 813.366 222.672C966.138 246.419 1059.91 396.292 1022.65 557.539C985.383 718.787 831.242 830.123 678.47 806.376C525.698 782.628 431.924 632.755 469.189 471.507Z" stroke="url(#paint7_linear_115_1949)" stroke-opacity="0.5" stroke-width="2"/>
<path opacity="0.375" d="M500.917 476.008C554.632 320.382 719.605 222.261 869.304 256.679C1019 291.096 1096.96 445.071 1043.25 600.697C989.531 756.323 824.558 854.443 674.86 820.026C525.162 785.608 447.202 631.634 500.917 476.008Z" stroke="url(#paint8_linear_115_1949)" stroke-opacity="0.5" stroke-width="2"/>
<path opacity="0.416667" d="M530.991 482.45C600.253 333.511 774.401 249.263 919.881 294.086C1065.36 338.91 1127.32 495.905 1058.06 644.844C988.798 793.784 814.65 878.032 669.17 833.209C523.69 788.385 461.729 631.39 530.991 482.45Z" stroke="url(#paint9_linear_115_1949)" stroke-opacity="0.5" stroke-width="2"/>
<path opacity="0.458333" d="M559.226 490.682C643.029 349.409 824.635 279.558 964.785 334.443C1104.93 389.327 1150.82 548.267 1067.02 689.54C983.218 830.813 801.611 900.664 661.462 845.78C521.312 790.896 475.424 631.955 559.226 490.682Z" stroke="url(#paint10_linear_115_1949)" stroke-opacity="0.5" stroke-width="2"/>
<path opacity="0.5" d="M585.452 500.533C682.696 367.817 870 312.751 1003.75 377.274C1137.5 441.797 1167.35 601.621 1070.1 734.337C972.86 867.054 785.556 922.121 651.806 857.598C518.057 793.075 488.208 633.249 585.452 500.533Z" stroke="url(#paint11_linear_115_1949)" stroke-opacity="0.5" stroke-width="2"/>
<path opacity="0.541667" d="M609.52 511.829C719.025 388.464 910.239 348.429 1036.57 422.095C1162.9 495.761 1176.85 655.43 1067.34 778.795C957.835 902.159 766.622 942.194 640.292 868.528C513.961 794.861 500.015 635.193 609.52 511.829Z" stroke="url(#paint12_linear_115_1949)" stroke-opacity="0.5" stroke-width="2"/>
<path opacity="0.583333" d="M631.306 524.384C751.823 411.066 945.148 386.17 1063.1 468.414C1181.05 550.658 1179.33 709.156 1058.81 822.474C938.295 935.792 744.97 960.687 627.02 878.443C509.071 796.199 510.789 637.702 631.306 524.384Z" stroke="url(#paint13_linear_115_1949)" stroke-opacity="0.5" stroke-width="2"/>
<path opacity="0.625" d="M650.708 538.006C780.931 435.325 974.573 425.538 1083.25 515.729C1191.92 605.92 1174.87 762.266 1044.65 864.946C914.425 967.626 720.782 977.413 612.108 887.222C503.435 797.031 520.486 640.686 650.708 538.006Z" stroke="url(#paint14_linear_115_1949)" stroke-opacity="0.5" stroke-width="2"/>
<path opacity="0.666667" d="M667.648 552.499C806.225 460.941 998.416 466.092 1096.99 563.54C1195.56 660.988 1163.6 814.237 1025.02 905.795C886.448 997.353 694.257 992.203 595.683 894.755C497.11 797.306 529.071 644.057 667.648 552.499Z" stroke="url(#paint15_linear_115_1949)" stroke-opacity="0.5" stroke-width="2"/>
<path opacity="0.708333" d="M682.07 567.666C827.62 487.606 1016.63 507.392 1104.36 611.353C1192.08 715.314 1145.72 864.566 1000.17 944.626C854.621 1024.69 665.614 1004.9 577.886 900.939C490.158 796.978 536.521 647.726 682.07 567.666Z" stroke="url(#paint16_linear_115_1949)" stroke-opacity="0.5" stroke-width="2"/>
<path opacity="0.75" d="M693.944 583.305C845.065 515.011 1029.21 548.998 1105.43 658.679C1181.65 768.361 1121.47 912.763 970.354 981.057C819.233 1049.35 635.087 1015.36 558.866 905.683C482.646 796.001 542.824 651.6 693.944 583.305Z" stroke="url(#paint17_linear_115_1949)" stroke-opacity="0.5" stroke-width="2"/>
<path opacity="0.791667" d="M703.264 599.22C858.55 542.849 1036.23 590.48 1100.37 705.047C1164.5 819.614 1091.17 958.363 935.886 1014.73C780.6 1071.1 602.924 1023.48 538.784 908.908C474.645 794.34 547.979 655.59 703.264 599.22Z" stroke="url(#paint18_linear_115_1949)" stroke-opacity="0.5" stroke-width="2"/>
<path opacity="0.833333" d="M710.044 615.214C868.095 570.818 1037.78 631.415 1089.35 749.999C1140.93 868.583 1055.17 1000.93 897.115 1045.33C739.065 1089.73 569.384 1029.13 517.807 910.546C466.231 791.962 551.994 659.611 710.044 615.214Z" stroke="url(#paint19_linear_115_1949)" stroke-opacity="0.5" stroke-width="2"/>
<path opacity="0.875" d="M714.323 631.096C873.759 598.619 1034.02 671.396 1072.64 793.098C1111.27 914.801 1013.86 1040.06 854.427 1072.54C694.992 1105.02 534.735 1032.24 496.11 910.539C457.485 788.836 554.888 663.573 714.323 631.096Z" stroke="url(#paint20_linear_115_1949)" stroke-opacity="0.5" stroke-width="2"/>
<path opacity="0.916667" d="M716.163 646.682C875.635 625.967 1025.15 710.038 1050.53 833.939C1075.92 957.84 967.711 1075.39 808.24 1096.1C648.769 1116.82 499.257 1032.75 473.872 908.847C448.487 784.946 556.692 667.397 716.163 646.682Z" stroke="url(#paint21_linear_115_1949)" stroke-opacity="0.5" stroke-width="2"/>
<path opacity="0.958333" d="M715.643 661.793C873.845 652.585 1011.41 746.97 1023.36 872.135C1035.32 997.299 917.198 1106.57 758.997 1115.78C600.796 1124.99 463.229 1030.6 451.276 905.435C439.323 780.271 557.442 671.002 715.643 661.793Z" stroke="url(#paint22_linear_115_1949)" stroke-opacity="0.5" stroke-width="2"/>
<path d="M712.865 676.264C868.545 678.213 993.093 781.853 991.523 907.337C989.952 1032.82 862.848 1133.31 707.168 1131.36C551.488 1129.41 426.939 1025.77 428.51 900.289C430.081 774.805 557.185 674.315 712.865 676.264Z" stroke="url(#paint23_linear_115_1949)" stroke-opacity="0.5" stroke-width="2"/>
<defs>
<linearGradient id="paint0_linear_115_1949" x1="219.537" y1="504.657" x2="690.865" y2="240.788" gradientUnits="userSpaceOnUse">
<stop stop-color="#3062DD"/>
<stop offset="0.5" stop-color="#F0F0F0"/>
</linearGradient>
<linearGradient id="paint1_linear_115_1949" x1="256.066" y1="492.429" x2="758.939" y2="273.713" gradientUnits="userSpaceOnUse">
<stop stop-color="#3062DD"/>
<stop offset="0.5" stop-color="#F0F0F0"/>
</linearGradient>
<linearGradient id="paint2_linear_115_1949" x1="292.723" y1="482.781" x2="822.027" y2="314.793" gradientUnits="userSpaceOnUse">
<stop stop-color="#3062DD"/>
<stop offset="0.5" stop-color="#F0F0F0"/>
</linearGradient>
<linearGradient id="paint3_linear_115_1949" x1="329.224" y1="475.681" x2="878.427" y2="363.161" gradientUnits="userSpaceOnUse">
<stop stop-color="#3062DD"/>
<stop offset="0.5" stop-color="#F0F0F0"/>
</linearGradient>
<linearGradient id="paint4_linear_115_1949" x1="365.285" y1="471.071" x2="926.658" y2="417.462" gradientUnits="userSpaceOnUse">
<stop stop-color="#3062DD"/>
<stop offset="0.5" stop-color="#F0F0F0"/>
</linearGradient>
<linearGradient id="paint5_linear_115_1949" x1="400.64" y1="468.879" x2="965.652" y2="475.952" gradientUnits="userSpaceOnUse">
<stop stop-color="#3062DD"/>
<stop offset="0.5" stop-color="#F0F0F0"/>
</linearGradient>
<linearGradient id="paint6_linear_115_1949" x1="435.024" y1="469.01" x2="994.879" y2="536.655" gradientUnits="userSpaceOnUse">
<stop stop-color="#3062DD"/>
<stop offset="0.5" stop-color="#F0F0F0"/>
</linearGradient>
<linearGradient id="paint7_linear_115_1949" x1="468.201" y1="471.354" x2="1014.42" y2="597.586" gradientUnits="userSpaceOnUse">
<stop stop-color="#3062DD"/>
<stop offset="0.5" stop-color="#F0F0F0"/>
</linearGradient>
<linearGradient id="paint8_linear_115_1949" x1="499.943" y1="475.784" x2="1024.88" y2="656.969" gradientUnits="userSpaceOnUse">
<stop stop-color="#3062DD"/>
<stop offset="0.5" stop-color="#F0F0F0"/>
</linearGradient>
<linearGradient id="paint9_linear_115_1949" x1="530.035" y1="482.156" x2="1027.28" y2="713.391" gradientUnits="userSpaceOnUse">
<stop stop-color="#3062DD"/>
<stop offset="0.5" stop-color="#F0F0F0"/>
</linearGradient>
<linearGradient id="paint10_linear_115_1949" x1="558.295" y1="490.317" x2="1022.87" y2="765.902" gradientUnits="userSpaceOnUse">
<stop stop-color="#3062DD"/>
<stop offset="0.5" stop-color="#F0F0F0"/>
</linearGradient>
<linearGradient id="paint11_linear_115_1949" x1="584.551" y1="500.099" x2="1012.95" y2="813.998" gradientUnits="userSpaceOnUse">
<stop stop-color="#3062DD"/>
<stop offset="0.5" stop-color="#F0F0F0"/>
</linearGradient>
<linearGradient id="paint12_linear_115_1949" x1="608.656" y1="511.324" x2="998.726" y2="857.571" gradientUnits="userSpaceOnUse">
<stop stop-color="#3062DD"/>
<stop offset="0.5" stop-color="#F0F0F0"/>
</linearGradient>
<linearGradient id="paint13_linear_115_1949" x1="630.486" y1="523.812" x2="981.194" y2="896.799" gradientUnits="userSpaceOnUse">
<stop stop-color="#3062DD"/>
<stop offset="0.5" stop-color="#F0F0F0"/>
</linearGradient>
<linearGradient id="paint14_linear_115_1949" x1="649.939" y1="537.367" x2="961.138" y2="932.038" gradientUnits="userSpaceOnUse">
<stop stop-color="#3062DD"/>
<stop offset="0.5" stop-color="#F0F0F0"/>
</linearGradient>
<linearGradient id="paint15_linear_115_1949" x1="666.937" y1="551.796" x2="939.106" y2="963.735" gradientUnits="userSpaceOnUse">
<stop stop-color="#3062DD"/>
<stop offset="0.5" stop-color="#F0F0F0"/>
</linearGradient>
<linearGradient id="paint16_linear_115_1949" x1="681.425" y1="566.901" x2="915.444" y2="992.349" gradientUnits="userSpaceOnUse">
<stop stop-color="#3062DD"/>
<stop offset="0.5" stop-color="#F0F0F0"/>
</linearGradient>
<linearGradient id="paint17_linear_115_1949" x1="693.374" y1="582.484" x2="890.328" y2="1018.3" gradientUnits="userSpaceOnUse">
<stop stop-color="#3062DD"/>
<stop offset="0.5" stop-color="#F0F0F0"/>
</linearGradient>
<linearGradient id="paint18_linear_115_1949" x1="702.776" y1="598.347" x2="863.809" y2="1041.95" gradientUnits="userSpaceOnUse">
<stop stop-color="#3062DD"/>
<stop offset="0.5" stop-color="#F0F0F0"/>
</linearGradient>
<linearGradient id="paint19_linear_115_1949" x1="709.645" y1="614.297" x2="835.846" y2="1063.57" gradientUnits="userSpaceOnUse">
<stop stop-color="#3062DD"/>
<stop offset="0.5" stop-color="#F0F0F0"/>
</linearGradient>
<linearGradient id="paint20_linear_115_1949" x1="714.021" y1="630.143" x2="806.34" y2="1083.35" gradientUnits="userSpaceOnUse">
<stop stop-color="#3062DD"/>
<stop offset="0.5" stop-color="#F0F0F0"/>
</linearGradient>
<linearGradient id="paint21_linear_115_1949" x1="715.962" y1="645.702" x2="775.158" y2="1101.41" gradientUnits="userSpaceOnUse">
<stop stop-color="#3062DD"/>
<stop offset="0.5" stop-color="#F0F0F0"/>
</linearGradient>
<linearGradient id="paint22_linear_115_1949" x1="715.548" y1="660.798" x2="742.147" y2="1117.76" gradientUnits="userSpaceOnUse">
<stop stop-color="#3062DD"/>
<stop offset="0.5" stop-color="#F0F0F0"/>
</linearGradient>
<linearGradient id="paint23_linear_115_1949" x1="712.877" y1="675.264" x2="707.155" y2="1132.36" gradientUnits="userSpaceOnUse">
<stop stop-color="#3062DD"/>
<stop offset="0.5" stop-color="#F0F0F0"/>
</linearGradient>
</defs>
</svg>
