<svg width="76" height="76" viewBox="0 0 76 76" fill="none" xmlns="http://www.w3.org/2000/svg">
<path d="M68.3535 10.1951H63.2559V7.64634C63.2559 3.44085 59.8151 0 55.6096 0H22.4754C18.27 0 14.8291 3.44085 14.8291 7.64634V26.1505C14.8291 27.5523 15.9761 28.6993 17.3779 28.6993C18.7797 28.6993 19.9267 27.5523 19.9267 26.1505V14.8594C20.7168 15.1398 21.5834 15.2927 22.4754 15.2927H68.3535C69.7553 15.2927 70.9023 16.4396 70.9023 17.8415V26.7622H56.884C51.9648 26.7622 47.9632 30.7638 47.9632 35.6829C47.9632 40.6021 51.9648 44.6037 56.884 44.6037H70.9023V53.5244C70.9023 54.9262 69.7553 56.0732 68.3535 56.0732H49.8493C48.4475 56.0732 47.3005 57.2201 47.3005 58.6219C47.3005 60.0238 48.4475 61.1707 49.8493 61.1707H68.3535C72.559 61.1707 75.9998 57.7299 75.9998 53.5244V17.8415C75.9998 13.636 72.559 10.1951 68.3535 10.1951ZM19.9267 7.64634C19.9267 6.24451 21.0736 5.09756 22.4754 5.09756H55.6096C57.0114 5.09756 58.1584 6.24451 58.1584 7.64634V10.1951H22.4754C21.0736 10.1951 19.9267 9.04817 19.9267 7.64634ZM53.0608 35.6829C53.0608 33.5674 54.7685 31.8598 56.884 31.8598H58.1584V39.5061H56.884C54.7685 39.5061 53.0608 37.7984 53.0608 35.6829ZM63.2559 39.5061V31.8598H70.9023V39.5061H63.2559Z" fill="#BB9B80"/>
<path d="M22.7073 30.5854C10.1931 30.5854 0 40.7785 0 53.2928C0 65.807 10.1931 76.0001 22.7073 76.0001C35.2216 76.0001 45.4146 65.807 45.4146 53.2928C45.4146 40.7785 35.2216 30.5854 22.7073 30.5854ZM20.815 50.7697H24.5996C28.0814 50.7697 30.9072 53.5955 30.9072 57.0773C30.9072 60.332 28.4094 63.0065 25.2304 63.3092V64.6464C25.2304 66.0341 24.095 67.1695 22.7073 67.1695C21.3196 67.1695 20.1843 66.0341 20.1843 64.6464V63.3849H17.0305C15.6428 63.3849 14.5075 62.2495 14.5075 60.8619C14.5075 59.4742 15.6428 58.3388 17.0305 58.3388H24.5996C25.306 58.3388 25.8611 57.7838 25.8611 57.0773C25.8611 56.3709 25.306 55.8158 24.5996 55.8158H20.815C17.3333 55.8158 14.5075 52.99 14.5075 49.5082C14.5075 46.2535 17.0053 43.5791 20.1843 43.2763V41.9391C20.1843 40.5514 21.3196 39.4161 22.7073 39.4161C24.095 39.4161 25.2304 40.5514 25.2304 41.9391V43.2006H28.3841C29.7718 43.2006 30.9072 44.336 30.9072 45.7237C30.9072 47.1113 29.7718 48.2467 28.3841 48.2467H20.815C20.1086 48.2467 19.5535 48.8018 19.5535 49.5082C19.5535 50.2147 20.1086 50.7697 20.815 50.7697Z" fill="#87919C"/>
</svg>
