<svg width="135" height="39" viewBox="0 0 135 39" fill="none" xmlns="http://www.w3.org/2000/svg">
<path d="M129.445 38.887H4.97866C2.24164 38.887 0 36.6984 0 34.0261V4.86087C0 2.18861 2.24164 4.0085e-06 4.97866 4.0085e-06H129.445C132.182 4.0085e-06 134.424 2.18861 134.424 4.86087V34.0261C134.424 36.6984 132.182 38.887 129.445 38.887Z" fill="black"/>
<path d="M129.445 0.778958C131.75 0.778958 133.626 2.61029 133.626 4.86087V34.0261C133.626 36.2767 131.75 38.108 129.445 38.108H4.97866C2.67354 38.108 0.79783 36.2767 0.79783 34.0261V4.86087C0.79783 2.61029 2.67354 0.778958 4.97866 0.778958H129.445ZM129.445 4.0085e-06H4.97866C2.24164 4.0085e-06 0 2.18861 0 4.86087V34.0261C0 36.6984 2.24164 38.887 4.97866 38.887H129.445C132.182 38.887 134.424 36.6984 134.424 34.0261V4.86087C134.424 2.18861 132.182 4.0085e-06 129.445 4.0085e-06Z" fill="#A6A6A6"/>
<path d="M47.2149 9.95882C47.2149 10.7706 46.966 11.4207 46.4756 11.9056C45.9117 12.4804 45.1774 12.7696 44.2775 12.7696C43.4174 12.7696 42.6831 12.4755 42.0806 11.8959C41.477 11.3077 41.1758 10.5859 41.1758 9.72185C41.1758 8.85783 41.477 8.13599 42.0806 7.55269C42.6831 6.96817 43.4174 6.67409 44.2775 6.67409C44.7057 6.67409 45.1139 6.76037 45.5035 6.92077C45.8918 7.0824 46.208 7.30114 46.437 7.57092L45.9167 8.08374C45.5172 7.62317 44.9733 7.39593 44.2775 7.39593C43.6502 7.39593 43.1063 7.6098 42.6445 8.04121C42.1877 8.47382 41.9587 9.03404 41.9587 9.72185C41.9587 10.4097 42.1877 10.9747 42.6445 11.4074C43.1063 11.8339 43.6502 12.0526 44.2775 12.0526C44.9434 12.0526 45.5035 11.8339 45.9453 11.4025C46.2366 11.1169 46.4021 10.7232 46.4457 10.2201H44.2775V9.5177H47.1701C47.2049 9.6696 47.2149 9.81664 47.2149 9.95882Z" fill="white" stroke="white" stroke-width="0.5" stroke-miterlimit="10"/>
<path d="M51.8047 7.52339H49.0876V9.37053H51.5371V10.0729H49.0876V11.9201H51.8047V12.6358H48.3184V6.80763H51.8047V7.52339Z" fill="white" stroke="white" stroke-width="0.5" stroke-miterlimit="10"/>
<path d="M55.0432 12.6358H54.274V7.52339H52.6074V6.80763H56.7111V7.52339H55.0432V12.6358Z" fill="white" stroke="white" stroke-width="0.5" stroke-miterlimit="10"/>
<path d="M59.6797 12.6358V6.80763H60.4476V12.6358H59.6797Z" fill="white" stroke="white" stroke-width="0.5" stroke-miterlimit="10"/>
<path d="M63.8518 12.6358H63.0888V7.52339H61.416V6.80763H65.5246V7.52339H63.8518V12.6358Z" fill="white" stroke="white" stroke-width="0.5" stroke-miterlimit="10"/>
<path d="M73.2944 11.8862C72.7057 12.4755 71.9763 12.7696 71.1063 12.7696C70.2313 12.7696 69.5019 12.4755 68.9132 11.8862C68.3257 11.298 68.0332 10.5762 68.0332 9.72185C68.0332 8.86755 68.3257 8.14571 68.9132 7.55755C69.5019 6.96817 70.2313 6.67409 71.1063 6.67409C71.9713 6.67409 72.7007 6.96817 73.2894 7.56241C73.8819 8.15544 74.1744 8.87242 74.1744 9.72185C74.1744 10.5762 73.8819 11.298 73.2944 11.8862ZM69.482 11.3976C69.9251 11.8339 70.464 12.0526 71.1063 12.0526C71.7435 12.0526 72.2875 11.8339 72.7256 11.3976C73.1674 10.9614 73.3915 10.4012 73.3915 9.72185C73.3915 9.04255 73.1674 8.48233 72.7256 8.04607C72.2875 7.6098 71.7435 7.39106 71.1063 7.39106C70.464 7.39106 69.9251 7.6098 69.482 8.04607C69.0401 8.48233 68.8161 9.04255 68.8161 9.72185C68.8161 10.4012 69.0401 10.9614 69.482 11.3976Z" fill="white" stroke="white" stroke-width="0.5" stroke-miterlimit="10"/>
<path d="M75.2539 12.6358V6.80763H76.1874L79.09 11.3404H79.1236L79.09 10.22V6.80763H79.8579V12.6358H79.0564L76.0169 7.87945H75.9833L76.0169 9.00474V12.6358H75.2539Z" fill="white" stroke="white" stroke-width="0.5" stroke-miterlimit="10"/>
<path d="M67.8446 21.1471C65.5058 21.1471 63.5953 22.8849 63.5953 25.2825C63.5953 27.6607 65.5058 29.4167 67.8446 29.4167C70.1883 29.4167 72.0988 27.6607 72.0988 25.2825C72.0988 22.8849 70.1883 21.1471 67.8446 21.1471ZM67.8446 27.7883C66.5613 27.7883 65.4573 26.7541 65.4573 25.2825C65.4573 23.7914 66.5613 22.7755 67.8446 22.7755C69.1278 22.7755 70.2368 23.7914 70.2368 25.2825C70.2368 26.7541 69.1278 27.7883 67.8446 27.7883ZM58.5731 21.1471C56.2294 21.1471 54.3238 22.8849 54.3238 25.2825C54.3238 27.6607 56.2294 29.4167 58.5731 29.4167C60.9155 29.4167 62.8223 27.6607 62.8223 25.2825C62.8223 22.8849 60.9155 21.1471 58.5731 21.1471ZM58.5731 27.7883C57.2886 27.7883 56.1808 26.7541 56.1808 25.2825C56.1808 23.7914 57.2886 22.7755 58.5731 22.7755C59.8563 22.7755 60.9603 23.7914 60.9603 25.2825C60.9603 26.7541 59.8563 27.7883 58.5731 27.7883ZM47.5404 22.4146V24.1718H51.8382C51.7125 25.1537 51.3764 25.8755 50.8611 26.3786C50.2338 26.9862 49.2568 27.6607 47.5404 27.6607C44.8955 27.6607 42.8243 25.5766 42.8243 22.9942C42.8243 20.4119 44.8955 18.3278 47.5404 18.3278C48.9705 18.3278 50.011 18.8734 50.779 19.5807L52.0473 18.3424C50.9732 17.3411 49.5443 16.5718 47.5404 16.5718C43.9134 16.5718 40.8652 19.4531 40.8652 22.9942C40.8652 26.5354 43.9134 29.4167 47.5404 29.4167C49.5007 29.4167 50.9731 28.7896 52.1307 27.6133C53.3169 26.4552 53.6865 24.8268 53.6865 23.5119C53.6865 23.1036 53.6517 22.7281 53.5894 22.4146H47.5404ZM92.6545 23.7768C92.3047 22.8521 91.2256 21.1471 89.0275 21.1471C86.8493 21.1471 85.0359 22.8229 85.0359 25.2825C85.0359 27.5987 86.8307 29.4167 89.2366 29.4167C91.182 29.4167 92.3047 28.2586 92.7665 27.5841L91.3227 26.6448C90.841 27.3326 90.185 27.7883 89.2366 27.7883C88.2944 27.7883 87.6185 27.3666 87.1854 26.5354L92.8499 24.2471L92.6545 23.7768ZM86.8792 25.1537C86.8307 23.5593 88.1475 22.7427 89.091 22.7427C89.8303 22.7427 90.4576 23.1036 90.6667 23.6201L86.8792 25.1537ZM82.2752 29.1651H84.1372V17.0129H82.2752V29.1651ZM79.2258 22.0683H79.1635C78.7453 21.5846 77.9475 21.1471 76.9368 21.1471C74.8159 21.1471 72.8767 22.9651 72.8767 25.2959C72.8767 27.6133 74.8159 29.4167 76.9368 29.4167C77.9475 29.4167 78.7453 28.9755 79.1635 28.4773H79.2258V29.0703C79.2258 30.6513 78.3607 31.5008 76.9655 31.5008C75.8278 31.5008 75.1221 30.6987 74.8309 30.0243L73.2116 30.6841C73.6783 31.7803 74.9143 33.1292 76.9655 33.1292C79.1486 33.1292 80.9907 31.8751 80.9907 28.8236V21.3987H79.2258V22.0683ZM77.0962 27.7883C75.8129 27.7883 74.7388 26.7395 74.7388 25.2959C74.7388 23.8388 75.8129 22.7755 77.0962 22.7755C78.3607 22.7755 79.3577 23.8388 79.3577 25.2959C79.3577 26.7395 78.3607 27.7883 77.0962 27.7883ZM101.372 17.0129H96.9187V29.1651H98.7757V24.5607H101.372C103.434 24.5607 105.457 23.1036 105.457 20.7862C105.457 18.47 103.43 17.0129 101.372 17.0129ZM101.421 22.8703H98.7757V18.7033H101.421C102.807 18.7033 103.599 19.8274 103.599 20.7862C103.599 21.7268 102.807 22.8703 101.421 22.8703ZM112.9 21.124C111.558 21.124 110.163 21.7025 109.589 22.9845L111.237 23.659C111.592 22.9845 112.244 22.7658 112.934 22.7658C113.897 22.7658 114.874 23.3309 114.889 24.3286V24.4562C114.553 24.2666 113.834 23.9859 112.949 23.9859C111.174 23.9859 109.365 24.9398 109.365 26.7201C109.365 28.3485 110.819 29.3972 112.453 29.3972C113.703 29.3972 114.393 28.8467 114.826 28.2063H114.889V29.1457H116.683V24.4841C116.683 22.3295 115.035 21.124 112.9 21.124ZM112.676 27.7834C112.069 27.7834 111.222 27.4893 111.222 26.7541C111.222 25.8136 112.278 25.4526 113.191 25.4526C114.009 25.4526 114.393 25.6288 114.889 25.8609C114.744 26.9862 113.752 27.7834 112.676 27.7834ZM123.217 21.3902L121.083 26.6581H121.019L118.812 21.3902H116.81L120.125 28.7519L118.234 32.8484H120.174L125.283 21.3902H123.217ZM106.478 29.1651H108.34V17.0129H106.478V29.1651Z" fill="white"/>
<path d="M10.3915 7.32893C10.099 7.62787 9.92969 8.0933 9.92969 8.69605V30.1957C9.92969 30.7984 10.099 31.2639 10.3915 31.5628L10.4636 31.6284L22.8032 19.5856V19.3013L10.4636 7.25845L10.3915 7.32893Z" fill="url(#paint0_linear_107_6931)"/>
<path d="M26.9114 23.6021L22.8027 19.5858V19.3014L26.9164 15.2851L27.0085 15.3374L31.8801 18.0437C33.2704 18.8117 33.2704 20.0755 31.8801 20.8484L27.0085 23.5498L26.9114 23.6021Z" fill="url(#paint1_linear_107_6931)"/>
<path d="M27.0081 23.5498L22.8024 19.4436L10.3906 31.563C10.8524 32.0369 11.6054 32.094 12.4617 31.6201L27.0081 23.5498Z" fill="url(#paint2_linear_107_6931)"/>
<path d="M27.0081 15.3374L12.4617 7.26713C11.6054 6.79806 10.8524 6.85517 10.3906 7.32911L22.8024 19.4436L27.0081 15.3374Z" fill="url(#paint3_linear_107_6931)"/>
<defs>
<linearGradient id="paint0_linear_107_6931" x1="21.7076" y1="30.4196" x2="5.39689" y2="13.7136" gradientUnits="userSpaceOnUse">
<stop stop-color="#00A0FF"/>
<stop offset="0.0066" stop-color="#00A1FF"/>
<stop offset="0.2601" stop-color="#00BEFF"/>
<stop offset="0.5122" stop-color="#00D2FF"/>
<stop offset="0.7604" stop-color="#00DFFF"/>
<stop offset="1" stop-color="#00E3FF"/>
</linearGradient>
<linearGradient id="paint1_linear_107_6931" x1="33.6905" y1="19.4422" x2="9.59685" y2="19.4422" gradientUnits="userSpaceOnUse">
<stop stop-color="#FFE000"/>
<stop offset="0.4087" stop-color="#FFBD00"/>
<stop offset="0.7754" stop-color="#FFA500"/>
<stop offset="1" stop-color="#FF9C00"/>
</linearGradient>
<linearGradient id="paint2_linear_107_6931" x1="24.7212" y1="17.2114" x2="2.60249" y2="-5.44328" gradientUnits="userSpaceOnUse">
<stop stop-color="#FF3A44"/>
<stop offset="1" stop-color="#C31162"/>
</linearGradient>
<linearGradient id="paint3_linear_107_6931" x1="7.26632" y1="38.7158" x2="17.1433" y2="28.5996" gradientUnits="userSpaceOnUse">
<stop stop-color="#32A071"/>
<stop offset="0.0685" stop-color="#2DA771"/>
<stop offset="0.4762" stop-color="#15CF74"/>
<stop offset="0.8009" stop-color="#06E775"/>
<stop offset="1" stop-color="#00F076"/>
</linearGradient>
</defs>
</svg>
