<svg width="76" height="76" viewBox="0 0 76 76" fill="none" xmlns="http://www.w3.org/2000/svg">
<path d="M37.9983 50.6665C49.1698 50.6665 58.2641 41.5722 58.2641 30.4006C58.2641 19.2291 49.1698 10.1348 37.9983 10.1348C26.8267 10.1348 17.7324 19.2291 17.7324 30.4006C17.7324 41.5722 26.8267 50.6665 37.9983 50.6665ZM39.6449 32.9339H36.3517C33.1345 32.9339 30.5252 30.3246 30.5252 27.1074C30.5252 24.1942 32.6785 21.813 35.4397 21.3823V20.5464C35.4397 19.1531 36.5797 18.0131 37.9729 18.0131C39.3662 18.0131 40.5062 19.1531 40.5062 20.5464V21.3063H42.8874C44.2807 21.3063 45.4206 22.4463 45.4206 23.8396C45.4206 25.2328 44.2807 26.3728 42.8874 26.3728H36.3263C35.921 26.3728 35.5664 26.7021 35.5664 27.1328C35.5664 27.5634 35.8957 27.8927 36.3263 27.8927H39.6196C42.8368 27.8927 45.446 30.502 45.446 33.7192C45.446 36.6324 43.2927 39.0136 40.5315 39.4443V40.2802C40.5315 41.6735 39.3916 42.8135 37.9983 42.8135C36.605 42.8135 35.4651 41.6735 35.4651 40.2802V39.5203H33.0838C31.6905 39.5203 30.5506 38.3803 30.5506 36.987C30.5506 35.5938 31.6905 34.4538 33.0838 34.4538H39.6449C40.0502 34.4538 40.4049 34.1245 40.4049 33.6938C40.4049 33.2632 40.0755 32.9339 39.6449 32.9339Z" fill="url(#paint0_linear_115_1937)"/>
<path d="M63.2057 14.4918C63.8896 14.4918 64.5736 14.2131 65.0802 13.6811L70.0707 8.26003C71.008 7.2214 70.9573 5.62546 69.9187 4.68816C68.8801 3.75086 67.2841 3.80153 66.3469 4.84016L61.3564 10.2613C60.4191 11.2999 60.4697 12.8958 61.5084 13.8331C61.9897 14.2891 62.5976 14.4918 63.2309 14.4918H63.2057Z" fill="url(#paint1_linear_115_1937)"/>
<path d="M53.0951 8.64016C53.0951 8.64016 53.1711 8.64016 53.1965 8.64016C54.5898 8.5895 55.679 7.39888 55.6284 6.0056L55.4764 2.43373C55.4257 1.04045 54.3111 0.00183105 52.8418 0.00183105C51.4485 0.0524957 50.3592 1.24312 50.4099 2.6364L50.5619 6.20824C50.6126 7.57619 51.7525 8.64016 53.0951 8.64016Z" fill="url(#paint2_linear_115_1937)"/>
<path d="M67.3591 21.6356C67.4098 23.0036 68.5497 24.0675 69.8924 24.0675C69.9177 24.0675 69.9684 24.0675 69.9937 24.0675L73.5656 23.9155C74.9589 23.8649 76.0481 22.6743 75.9975 21.281C75.9468 19.8877 74.7561 18.8237 73.3629 18.8491L69.791 19.0011C68.3977 19.0517 67.3085 20.2423 67.3591 21.6356Z" fill="url(#paint3_linear_115_1937)"/>
<path d="M10.9152 13.6811C11.4219 14.2131 12.1059 14.4918 12.7898 14.4918C13.3978 14.4918 14.0058 14.2638 14.5124 13.8331C15.5511 12.8958 15.6017 11.2746 14.6644 10.2613L9.67398 4.84016C8.73669 3.80153 7.11541 3.75086 6.10212 4.68816C5.06349 5.62546 5.01283 7.24674 5.95013 8.26003L10.9406 13.6811H10.9152Z" fill="url(#paint4_linear_115_1937)"/>
<path d="M22.7989 8.64007C22.7989 8.64007 22.8749 8.64007 22.9002 8.64007C24.2428 8.64007 25.3828 7.5761 25.4334 6.20815L25.5854 2.6363C25.6361 1.24302 24.5722 0.0524009 23.1535 0.00173623C21.7349 -0.0489284 20.5696 1.01503 20.519 2.43364L20.367 6.00551C20.3163 7.39878 21.3802 8.58941 22.7989 8.64007Z" fill="url(#paint5_linear_115_1937)"/>
<path d="M2.43366 23.9156L6.00549 24.0675C6.00549 24.0675 6.0815 24.0675 6.10684 24.0675C7.44945 24.0675 8.58941 23.0036 8.64007 21.6356C8.69073 20.2424 7.62676 19.0517 6.20815 19.0011L2.63628 18.8491C1.243 18.8238 0.0524009 19.8624 0.0017362 21.281C-0.0489285 22.6996 1.01505 23.8649 2.43366 23.9156Z" fill="url(#paint6_linear_115_1937)"/>
<path d="M73.4638 60.5966H71.5638V34.6309C71.5638 30.7804 68.448 27.6646 64.5974 27.6646C63.2042 27.6646 62.0642 28.8045 62.0642 30.1978C62.0642 31.5911 63.2042 32.731 64.5974 32.731C65.6361 32.731 66.4974 33.5923 66.4974 34.6309V60.5966H9.49962V34.6309C9.49962 33.5923 10.3609 32.731 11.3995 32.731C12.7928 32.731 13.9328 31.5911 13.9328 30.1978C13.9328 28.8045 12.7928 27.6646 11.3995 27.6646C7.54903 27.6646 4.43316 30.7804 4.43316 34.6309V60.5966H2.53323C1.13995 60.5966 0 61.7365 0 63.1298V69.0323C0 72.8828 3.11588 75.9986 6.96639 75.9986H69.0306C72.8811 75.9986 75.997 72.8828 75.997 69.0323V63.1298C75.997 61.7365 74.857 60.5966 73.4638 60.5966ZM70.9305 69.0323C70.9305 70.0709 70.0692 70.9322 69.0306 70.9322H6.96639C5.92776 70.9322 5.06647 70.0709 5.06647 69.0323V65.663H70.9305V69.0323Z" fill="url(#paint7_linear_115_1937)"/>
<path d="M13.9336 52.9969C13.9336 54.3901 15.0735 55.5301 16.4668 55.5301H21.5333C22.9266 55.5301 24.0665 54.3901 24.0665 52.9969C24.0665 51.6036 22.9266 50.4636 21.5333 50.4636H16.4668C15.0735 50.4636 13.9336 51.6036 13.9336 52.9969Z" fill="url(#paint8_linear_115_1937)"/>
<path d="M51.9316 52.9969C51.9316 54.3901 53.0716 55.5301 54.4649 55.5301H59.5313C60.9246 55.5301 62.0646 54.3901 62.0646 52.9969C62.0646 51.6036 60.9246 50.4636 59.5313 50.4636H54.4649C53.0716 50.4636 51.9316 51.6036 51.9316 52.9969Z" fill="url(#paint9_linear_115_1937)"/>
<defs>
<linearGradient id="paint0_linear_115_1937" x1="37.9983" y1="10.1348" x2="37.9983" y2="50.6665" gradientUnits="userSpaceOnUse">
<stop stop-color="white"/>
<stop offset="1" stop-color="white" stop-opacity="0.5"/>
</linearGradient>
<linearGradient id="paint1_linear_115_1937" x1="65.7135" y1="4.02124" x2="65.7135" y2="14.4918" gradientUnits="userSpaceOnUse">
<stop stop-color="white"/>
<stop offset="1" stop-color="white" stop-opacity="0.5"/>
</linearGradient>
<linearGradient id="paint2_linear_115_1937" x1="53.0191" y1="0.00183105" x2="53.0191" y2="8.64016" gradientUnits="userSpaceOnUse">
<stop stop-color="white"/>
<stop offset="1" stop-color="white" stop-opacity="0.5"/>
</linearGradient>
<linearGradient id="paint3_linear_115_1937" x1="71.6783" y1="18.8486" x2="71.6783" y2="24.0675" gradientUnits="userSpaceOnUse">
<stop stop-color="white"/>
<stop offset="1" stop-color="white" stop-opacity="0.5"/>
</linearGradient>
<linearGradient id="paint4_linear_115_1937" x1="10.3073" y1="4.02124" x2="10.3073" y2="14.4918" gradientUnits="userSpaceOnUse">
<stop stop-color="white"/>
<stop offset="1" stop-color="white" stop-opacity="0.5"/>
</linearGradient>
<linearGradient id="paint5_linear_115_1937" x1="22.9762" y1="0" x2="22.9762" y2="8.64007" gradientUnits="userSpaceOnUse">
<stop stop-color="white"/>
<stop offset="1" stop-color="white" stop-opacity="0.5"/>
</linearGradient>
<linearGradient id="paint6_linear_115_1937" x1="4.3209" y1="18.8486" x2="4.3209" y2="24.0675" gradientUnits="userSpaceOnUse">
<stop stop-color="white"/>
<stop offset="1" stop-color="white" stop-opacity="0.5"/>
</linearGradient>
<linearGradient id="paint7_linear_115_1937" x1="37.9985" y1="27.6646" x2="37.9985" y2="75.9986" gradientUnits="userSpaceOnUse">
<stop stop-color="white"/>
<stop offset="1" stop-color="white" stop-opacity="0.5"/>
</linearGradient>
<linearGradient id="paint8_linear_115_1937" x1="19.0001" y1="50.4636" x2="19.0001" y2="55.5301" gradientUnits="userSpaceOnUse">
<stop stop-color="white"/>
<stop offset="1" stop-color="white" stop-opacity="0.5"/>
</linearGradient>
<linearGradient id="paint9_linear_115_1937" x1="56.9981" y1="50.4636" x2="56.9981" y2="55.5301" gradientUnits="userSpaceOnUse">
<stop stop-color="white"/>
<stop offset="1" stop-color="white" stop-opacity="0.5"/>
</linearGradient>
</defs>
</svg>
