<svg width="76" height="76" viewBox="0 0 76 76" fill="none" xmlns="http://www.w3.org/2000/svg">
<path d="M69.6709 24.481V17.3165C73.3165 16.2278 76 12.8608 76 8.86076C76 3.97469 72.0253 0 67.1392 0C63.1392 0 59.7975 2.68355 58.6835 6.32912H46.4557C45.367 2.68355 42 0 38 0C34 0 30.6582 2.68355 29.5443 6.32912H12.6835C11.2911 6.32912 10.1518 7.46836 10.1518 8.86076C10.1518 10.2532 11.2911 11.3924 12.6835 11.3924H29.5443C30.6329 15.038 34 17.7215 38 17.7215C42 17.7215 45.3417 15.038 46.4557 11.3924H58.6835C59.5443 14.2279 61.7721 16.4557 64.6076 17.3165V24.481C61.7721 25.3418 59.5443 27.5696 58.6835 30.4051H46.4557C45.367 26.7595 42 24.0759 38 24.0759C34 24.0759 30.6582 26.7595 29.5443 30.4051H17.3165C16.2278 26.7595 12.8608 24.0759 8.86076 24.0759C3.97469 24.0759 0 28.0506 0 32.9367C0 36.9367 2.68355 40.2785 6.32912 41.3924V52.3545C2.68355 53.4431 0 56.8102 0 60.8102C0 65.6962 3.97469 69.6709 8.86076 69.6709C12.8608 69.6709 16.2025 66.9874 17.3165 63.3418H37.9747C39.3671 63.3418 40.5063 62.2026 40.5063 60.8102C40.5063 59.4178 39.3671 58.2785 37.9747 58.2785H17.3165C16.4557 55.4431 14.2279 53.2152 11.3924 52.3545V41.3924C14.2279 40.5316 16.4557 38.3038 17.3165 35.4684H29.5443C30.6329 39.1139 34 41.7975 38 41.7975C42 41.7975 45.3417 39.1139 46.4557 35.4684H58.6835C59.7722 39.1139 63.1392 41.7975 67.1392 41.7975C72.0253 41.7975 76 37.8228 76 32.9367C76 28.9367 73.3165 25.5949 69.6709 24.481ZM38.0253 12.6835C35.924 12.6835 34.2278 10.9873 34.2278 8.88607C34.2278 6.7848 35.924 5.0886 38.0253 5.0886C40.1266 5.0886 41.8228 6.7848 41.8228 8.88607C41.8228 10.9873 40.1266 12.6835 38.0253 12.6835ZM12.7088 60.7848C12.7088 62.8861 11.0126 64.5823 8.91137 64.5823C6.8101 64.5823 5.1139 62.8861 5.1139 60.7848C5.1139 58.6836 6.8101 56.9874 8.91137 56.9874C11.0126 56.9874 12.7088 58.6836 12.7088 60.7848ZM8.91137 36.7342C6.8101 36.7342 5.1139 35.038 5.1139 32.9367C5.1139 30.8354 6.8101 29.1392 8.91137 29.1392C11.0126 29.1392 12.7088 30.8354 12.7088 32.9367C12.7088 35.038 11.0126 36.7342 8.91137 36.7342ZM38.0253 36.7342C35.924 36.7342 34.2278 35.038 34.2278 32.9367C34.2278 30.8354 35.924 29.1392 38.0253 29.1392C40.1266 29.1392 41.8228 30.8354 41.8228 32.9367C41.8228 35.038 40.1266 36.7342 38.0253 36.7342ZM63.3418 8.88607C63.3418 6.7848 65.038 5.0886 67.1392 5.0886C69.2405 5.0886 70.9367 6.7848 70.9367 8.88607C70.9367 10.9873 69.2405 12.6835 67.1392 12.6835C65.038 12.6835 63.3418 10.9873 63.3418 8.88607ZM67.1392 36.7342C65.038 36.7342 63.3418 35.038 63.3418 32.9367C63.3418 30.8354 65.038 29.1392 67.1392 29.1392C69.2405 29.1392 70.9367 30.8354 70.9367 32.9367C70.9367 35.038 69.2405 36.7342 67.1392 36.7342Z" fill="url(#paint0_linear_110_1197)"/>
<path d="M2.58047 11.4178H3.8463C5.2387 11.4178 6.37794 10.2785 6.37794 8.88614C6.37794 7.49373 5.2387 6.35449 3.8463 6.35449H2.58047C1.18807 6.35449 0.0488281 7.49373 0.0488281 8.88614C0.0488281 10.2785 1.18807 11.4178 2.58047 11.4178Z" fill="url(#paint1_linear_110_1197)"/>
<path d="M68.404 45.595H53.2141C49.0369 45.595 45.6191 49.0127 45.6191 53.1899V68.3798C45.6191 72.557 49.0369 75.9747 53.2141 75.9747H68.404C72.5812 75.9747 75.9989 72.557 75.9989 68.3798V53.1899C75.9989 49.0127 72.5812 45.595 68.404 45.595ZM68.9356 58.6836L61.1635 66.4557C60.6825 66.9367 60.0495 67.1899 59.366 67.1899C58.6824 67.1899 58.0495 66.9114 57.5685 66.4557L52.6825 61.5697C51.6951 60.5823 51.6951 58.9874 52.6825 58C53.6698 57.0127 55.2647 57.0127 56.2521 58L59.366 61.114L65.3407 55.1392C66.328 54.1519 67.923 54.1519 68.9103 55.1392C69.8977 56.1266 69.8977 57.7215 68.9103 58.7089L68.9356 58.6836Z" fill="url(#paint2_linear_110_1197)"/>
<defs>
<linearGradient id="paint0_linear_110_1197" x1="38" y1="0" x2="38" y2="69.6709" gradientUnits="userSpaceOnUse">
<stop stop-color="white"/>
<stop offset="1" stop-color="white" stop-opacity="0.5"/>
</linearGradient>
<linearGradient id="paint1_linear_110_1197" x1="3.21339" y1="6.35449" x2="3.21339" y2="11.4178" gradientUnits="userSpaceOnUse">
<stop stop-color="white"/>
<stop offset="1" stop-color="white" stop-opacity="0.5"/>
</linearGradient>
<linearGradient id="paint2_linear_110_1197" x1="60.809" y1="45.595" x2="60.809" y2="75.9747" gradientUnits="userSpaceOnUse">
<stop stop-color="white"/>
<stop offset="1" stop-color="white" stop-opacity="0.5"/>
</linearGradient>
</defs>
</svg>
