<svg width="70" height="70" viewBox="0 0 70 70" fill="none" xmlns="http://www.w3.org/2000/svg">
<path d="M69.5752 2.19655C69.3887 1.26389 68.6659 0.54108 67.7566 0.377865C67.4068 0.307916 59.1295 -1.2776 48.1941 2.61624C41.922 4.8313 33.9478 9.2381 26.1368 17.7952L18.1392 16.3962C15.5744 15.9532 12.9397 16.7926 11.0977 18.6346L3.03019 26.7021C2.4706 27.2617 2.23743 28.0778 2.40064 28.8705C2.58717 29.64 3.14676 30.2928 3.89289 30.5493L14.5951 34.3499C14.0122 35.4224 13.4526 36.495 12.893 37.6375C12.45 38.5235 12.6366 39.6194 13.336 40.3189L29.6808 56.6637C30.1239 57.1067 30.7301 57.3399 31.3363 57.3399C31.6861 57.3399 32.0358 57.2699 32.3623 57.1067C33.5048 56.5471 34.5773 55.9642 35.6498 55.4046L39.4504 66.1069C39.7069 66.853 40.3598 67.4359 41.1292 67.5991C41.2924 67.6457 41.479 67.6457 41.6422 67.6457C42.2484 67.6457 42.8547 67.4126 43.2977 66.9696L51.3651 58.9021C53.2071 57.0601 54.0465 54.4253 53.6035 51.8605L52.2045 43.863C60.785 36.052 65.1684 28.0778 67.3835 21.8057C71.2773 10.8469 69.6918 2.59293 69.6219 2.24318L69.5752 2.19655ZM65.2151 4.71472C65.4249 7.11631 65.5182 11.9428 63.7695 17.9118C62.557 15.3703 60.9249 13.0387 58.9197 11.0102C56.9144 8.98162 54.5595 7.34948 52.018 6.16034C58.0103 4.41161 62.8135 4.50487 65.2384 4.71472H65.2151ZM8.92925 27.355L14.362 21.9222C15.1314 21.1528 16.2273 20.8031 17.2998 20.9896L22.6393 21.9222C20.7041 24.3938 18.7921 27.1218 16.9268 30.1996L8.92925 27.355ZM48.9402 52.63C49.1268 53.7025 48.777 54.7984 48.0076 55.5678L42.5748 61.0006L39.7302 53.003C42.808 51.1377 45.536 49.2258 48.0076 47.2905L48.9402 52.63ZM31.756 52.117L17.7895 38.1505C26.3233 21.5725 36.396 13.0853 45.1863 8.79509C49.1501 9.58785 52.7408 11.4532 55.5854 14.3211C58.43 17.1657 60.3186 20.7564 61.1114 24.7202C56.8212 33.5105 48.334 43.6065 31.756 52.117Z" fill="#BB9B80"/>
<path d="M28.7958 37.1254C27.8865 36.216 26.4175 36.216 25.5082 37.1254C24.5988 38.0347 24.5988 39.5036 25.5082 40.413L29.5186 44.4234C29.9849 44.8897 30.5678 45.0996 31.1741 45.0996C31.7803 45.0996 32.3632 44.8664 32.8295 44.4234C33.7389 43.5141 33.7389 42.0451 32.8295 41.1358L28.8191 37.1254H28.7958Z" fill="#BB9B80"/>
<path d="M16.042 48.4568C15.3425 47.7573 14.2467 47.5708 13.3606 48.0138C-2.09816 55.6616 0.0469579 67.4364 0.16354 67.9494C0.350071 68.882 1.07288 69.6048 1.98222 69.768C2.0988 69.7914 2.82162 69.9313 3.94081 69.9313C7.69475 69.9313 16.0187 68.4623 21.8944 56.5709C22.3375 55.6849 22.1509 54.589 21.4514 53.8896L16.0187 48.4568H16.042Z" fill="#87919C"/>
<path d="M32.1309 26.7258C32.1309 32.0419 35.8848 36.4721 40.8745 37.5446V15.907C35.8848 16.9795 32.1309 21.4097 32.1309 26.7258Z" fill="#87919C"/>
<path d="M45.5381 15.907V37.5446C50.5278 36.4721 54.2817 32.0419 54.2817 26.7258C54.2817 21.4097 50.5278 16.9795 45.5381 15.907Z" fill="#87919C"/>
</svg>
