<svg width="171" height="49" viewBox="0 0 171 49" fill="none" xmlns="http://www.w3.org/2000/svg">
<path d="M9.89902 23.1369C9.61007 22.5912 9.35323 21.9812 9.1285 21.307C8.68973 19.98 8.4757 18.3319 8.4757 16.4912C8.4757 14.6505 8.70043 13.0239 9.1499 11.6327C9.59937 10.2308 10.1773 9.1392 10.8836 8.34728C11.6434 7.49115 12.4888 6.89186 13.3985 6.5173C14.3081 6.14274 15.3033 5.96081 16.32 5.96081C17.3367 5.96081 18.3212 6.15344 19.263 6.5387C19.4449 6.61361 19.6161 6.70993 19.7873 6.79554L22.9978 1.07016C21.0287 0.353154 18.8028 0 16.3093 0C11.226 0 7.23431 1.47683 4.34487 4.43048C1.44472 7.38413 0 11.4508 0 16.4912C0 20.6649 1.00595 24.1322 2.99646 26.8825L9.89902 23.1369Z" fill="url(#paint0_linear_107_2864)"/>
<path d="M29.2902 5.59696L22.2164 9.00008C22.7194 9.72779 23.1475 10.5946 23.4792 11.622C23.918 12.9597 24.1427 14.5756 24.1427 16.4698C24.1427 18.2463 23.9501 19.7873 23.5648 21.0929C23.1796 22.4092 22.591 23.5436 21.7991 24.5068C21.0928 25.3629 20.2687 25.9836 19.3163 26.3903C18.3638 26.7969 17.3686 27.0002 16.3198 27.0002C15.2711 27.0002 14.2758 26.7969 13.3234 26.401C13.0451 26.2832 12.7669 26.1334 12.51 25.9729L9.74902 31.923C11.6753 32.6079 13.8585 32.9504 16.2984 32.9504C21.4031 32.9504 25.3948 31.4628 28.2843 28.4985C31.1737 25.5341 32.6184 21.521 32.6184 16.4805C32.6184 12.0393 31.5055 8.40079 29.2902 5.58626V5.59696Z" fill="url(#paint1_linear_107_2864)"/>
<path d="M46.6055 3.61715V0.6528H44.2832L46.6055 3.61715Z" fill="url(#paint2_linear_107_2864)"/>
<path d="M65.2045 27.0323C66.1142 25.3201 66.5636 23.2547 66.5636 20.8468V7.31992L61.2449 0.6528H58.3555V18.8135L65.2045 27.0323Z" fill="url(#paint3_linear_107_2864)"/>
<path d="M56.3227 25.898C55.4024 26.5722 54.1396 26.9253 52.4701 26.9253C50.4047 26.9253 48.9065 26.3903 47.9861 25.3094C47.0658 24.2285 46.6056 22.5912 46.6056 20.3973V12.232L38.3975 1.53035V20.8682C38.3975 24.7636 39.5853 27.7494 41.9611 29.8362C44.3369 31.923 47.8363 32.9611 52.4701 32.9611C55.7555 32.9611 58.463 32.426 60.6141 31.3879L56.3227 25.9087V25.898Z" fill="url(#paint4_linear_107_2864)"/>
<path d="M82.3061 10.3378V6.47449H85.2598C85.8163 6.47449 86.3193 6.47449 86.7901 6.49589L93.1255 1.07016C92.9864 1.03805 92.8472 1.00595 92.6974 0.984545C91.349 0.770512 89.7438 0.663496 87.871 0.663496H74.1836V17.2831L82.2954 10.3378H82.3061Z" fill="url(#paint5_linear_107_2864)"/>
<path d="M94.0994 18.7493C96.1113 17.7647 97.6631 16.5447 98.7439 15.0679C99.8248 13.6018 100.371 11.6862 100.371 9.35323C100.371 7.65167 100.017 6.23906 99.3218 5.11539C99.1506 4.83714 98.958 4.5696 98.7653 4.32346L91.9163 9.8134C91.9377 9.98463 91.9484 10.1666 91.9484 10.3485C91.9484 11.2474 91.82 11.9537 91.5524 12.4781C91.2956 13.0132 90.8782 13.4948 90.311 13.9335C89.7118 14.383 88.9733 14.672 88.0958 14.8004C87.3681 14.9074 86.4799 14.9716 85.4525 14.9823L74.2051 23.9824V32.2976H82.3276V20.697H86.1053L94.7094 32.2976H104.673L94.1101 18.7386L94.0994 18.7493Z" fill="url(#paint6_linear_107_2864)"/>
<path d="M127.574 14.8111L136.082 0.6635H127.103L123.443 7.45904L127.574 14.8111Z" fill="url(#paint7_linear_107_2864)"/>
<path d="M120.522 12.8634L120.511 12.8741L113.684 0.663496H104.395L116.252 20.4508V32.3082H124.417V20.2689L120.522 12.8634Z" fill="url(#paint8_linear_107_2864)"/>
<path d="M155.666 26.3688L159.551 32.3082H169L160.599 20.1084L155.666 26.3688Z" fill="url(#paint9_linear_107_2864)"/>
<path d="M168.829 0.663498H159.786L153.012 10.5197L146.43 0.663498H137.013L148.003 16.3628L136.777 32.3083H145.799L168.829 0.663498Z" fill="url(#paint10_linear_107_2864)"/>
<path d="M12.936 37.826L10.2168 47H8.514L6.5868 40.0568L4.5408 47L2.8512 47.0132L0.2508 37.826H1.848L3.7488 45.2972L5.808 37.826H7.4976L9.4116 45.2576L11.3256 37.826H12.936ZM17.8731 39.608C18.4275 39.608 18.9203 39.7268 19.3515 39.9644C19.7915 40.202 20.1347 40.554 20.3811 41.0204C20.6363 41.4868 20.7639 42.05 20.7639 42.71V47H19.2723V42.9344C19.2723 42.2832 19.1095 41.786 18.7839 41.4428C18.4583 41.0908 18.0139 40.9148 17.4507 40.9148C16.8875 40.9148 16.4387 41.0908 16.1043 41.4428C15.7787 41.786 15.6159 42.2832 15.6159 42.9344V47H14.1111V37.232H15.6159V40.5716C15.8711 40.2636 16.1923 40.026 16.5795 39.8588C16.9755 39.6916 17.4067 39.608 17.8731 39.608ZM29.2834 43.1852C29.2834 43.458 29.2658 43.7044 29.2306 43.9244H23.6734C23.7174 44.5052 23.933 44.9716 24.3202 45.3236C24.7074 45.6756 25.1826 45.8516 25.7458 45.8516C26.5554 45.8516 27.1274 45.5128 27.4618 44.8352H29.0854C28.8654 45.504 28.465 46.054 27.8842 46.4852C27.3122 46.9076 26.5994 47.1188 25.7458 47.1188C25.0506 47.1188 24.4258 46.9648 23.8714 46.6568C23.3258 46.34 22.8946 45.9 22.5778 45.3368C22.2698 44.7648 22.1158 44.1048 22.1158 43.3568C22.1158 42.6088 22.2654 41.9532 22.5646 41.39C22.8726 40.818 23.2994 40.378 23.845 40.07C24.3994 39.762 25.033 39.608 25.7458 39.608C26.4322 39.608 27.0438 39.7576 27.5806 40.0568C28.1174 40.356 28.5354 40.7784 28.8346 41.324C29.1338 41.8608 29.2834 42.4812 29.2834 43.1852ZM27.7126 42.71C27.7038 42.1556 27.5058 41.7112 27.1186 41.3768C26.7314 41.0424 26.2518 40.8752 25.6798 40.8752C25.1606 40.8752 24.7162 41.0424 24.3466 41.3768C23.977 41.7024 23.757 42.1468 23.6866 42.71H27.7126ZM32.203 40.7828C32.423 40.4132 32.7134 40.1272 33.0742 39.9248C33.4438 39.7136 33.8794 39.608 34.381 39.608V41.1656H33.9982C33.4086 41.1656 32.9598 41.3152 32.6518 41.6144C32.3526 41.9136 32.203 42.4328 32.203 43.172V47H30.6982V39.7268H32.203V40.7828ZM42.3643 43.1852C42.3643 43.458 42.3467 43.7044 42.3115 43.9244H36.7543C36.7983 44.5052 37.0139 44.9716 37.4011 45.3236C37.7883 45.6756 38.2635 45.8516 38.8267 45.8516C39.6363 45.8516 40.2083 45.5128 40.5427 44.8352H42.1663C41.9463 45.504 41.5459 46.054 40.9651 46.4852C40.3931 46.9076 39.6803 47.1188 38.8267 47.1188C38.1315 47.1188 37.5067 46.9648 36.9523 46.6568C36.4067 46.34 35.9755 45.9 35.6587 45.3368C35.3507 44.7648 35.1967 44.1048 35.1967 43.3568C35.1967 42.6088 35.3463 41.9532 35.6455 41.39C35.9535 40.818 36.3803 40.378 36.9259 40.07C37.4803 39.762 38.1139 39.608 38.8267 39.608C39.5131 39.608 40.1247 39.7576 40.6615 40.0568C41.1983 40.356 41.6163 40.7784 41.9155 41.324C42.2147 41.8608 42.3643 42.4812 42.3643 43.1852ZM40.7935 42.71C40.7847 42.1556 40.5867 41.7112 40.1995 41.3768C39.8123 41.0424 39.3327 40.8752 38.7607 40.8752C38.2415 40.8752 37.7971 41.0424 37.4275 41.3768C37.0579 41.7024 36.8379 42.1468 36.7675 42.71H40.7935ZM55.0488 37.826L51.6036 47H49.8612L46.4028 37.826H48.0132L50.7324 45.4556L53.4648 37.826H55.0488ZM55.7397 43.3304C55.7397 42.6 55.8893 41.9532 56.1885 41.39C56.4965 40.8268 56.9101 40.3912 57.4293 40.0832C57.9573 39.7664 58.5381 39.608 59.1717 39.608C59.7437 39.608 60.2409 39.7224 60.6633 39.9512C61.0945 40.1712 61.4377 40.4484 61.6929 40.7828V39.7268H63.2109V47H61.6929V45.9176C61.4377 46.2608 61.0901 46.5468 60.6501 46.7756C60.2101 47.0044 59.7085 47.1188 59.1453 47.1188C58.5205 47.1188 57.9485 46.9604 57.4293 46.6436C56.9101 46.318 56.4965 45.8692 56.1885 45.2972C55.8893 44.7164 55.7397 44.0608 55.7397 43.3304ZM61.6929 43.3568C61.6929 42.8552 61.5873 42.4196 61.3761 42.05C61.1737 41.6804 60.9053 41.3988 60.5709 41.2052C60.2365 41.0116 59.8757 40.9148 59.4885 40.9148C59.1013 40.9148 58.7405 41.0116 58.4061 41.2052C58.0717 41.39 57.7989 41.6672 57.5877 42.0368C57.3853 42.3976 57.2841 42.8288 57.2841 43.3304C57.2841 43.832 57.3853 44.272 57.5877 44.6504C57.7989 45.0288 58.0717 45.3192 58.4061 45.5216C58.7493 45.7152 59.1101 45.812 59.4885 45.812C59.8757 45.812 60.2365 45.7152 60.5709 45.5216C60.9053 45.328 61.1737 45.0464 61.3761 44.6768C61.5873 44.2984 61.6929 43.8584 61.6929 43.3568ZM66.6262 37.232V47H65.1214V37.232H66.6262ZM75.1226 39.7268V47H73.6178V46.142C73.3802 46.4412 73.0678 46.6788 72.6806 46.8548C72.3022 47.022 71.8974 47.1056 71.4662 47.1056C70.8942 47.1056 70.3794 46.9868 69.9218 46.7492C69.473 46.5116 69.1166 46.1596 68.8526 45.6932C68.5974 45.2268 68.4698 44.6636 68.4698 44.0036V39.7268H69.9614V43.7792C69.9614 44.4304 70.1242 44.932 70.4498 45.284C70.7754 45.6272 71.2198 45.7988 71.783 45.7988C72.3462 45.7988 72.7906 45.6272 73.1162 45.284C73.4506 44.932 73.6178 44.4304 73.6178 43.7792V39.7268H75.1226ZM83.7081 43.1852C83.7081 43.458 83.6905 43.7044 83.6553 43.9244H78.0981C78.1421 44.5052 78.3577 44.9716 78.7449 45.3236C79.1321 45.6756 79.6073 45.8516 80.1705 45.8516C80.9801 45.8516 81.5521 45.5128 81.8865 44.8352H83.5101C83.2901 45.504 82.8897 46.054 82.3089 46.4852C81.7369 46.9076 81.0241 47.1188 80.1705 47.1188C79.4753 47.1188 78.8505 46.9648 78.2961 46.6568C77.7505 46.34 77.3193 45.9 77.0025 45.3368C76.6945 44.7648 76.5405 44.1048 76.5405 43.3568C76.5405 42.6088 76.6901 41.9532 76.9893 41.39C77.2973 40.818 77.7241 40.378 78.2697 40.07C78.8241 39.762 79.4577 39.608 80.1705 39.608C80.8569 39.608 81.4685 39.7576 82.0053 40.0568C82.5421 40.356 82.9601 40.7784 83.2593 41.324C83.5585 41.8608 83.7081 42.4812 83.7081 43.1852ZM82.1373 42.71C82.1285 42.1556 81.9305 41.7112 81.5433 41.3768C81.1561 41.0424 80.6765 40.8752 80.1045 40.8752C79.5853 40.8752 79.1409 41.0424 78.7713 41.3768C78.4017 41.7024 78.1817 42.1468 78.1113 42.71H82.1373ZM98.1483 37.826V47H96.6435V40.7168L93.8451 47H92.8023L89.9907 40.7168V47H88.4859V37.826H90.1095L93.3303 45.02L96.5379 37.826H98.1483ZM106.726 43.1852C106.726 43.458 106.709 43.7044 106.673 43.9244H101.116C101.16 44.5052 101.376 44.9716 101.763 45.3236C102.15 45.6756 102.625 45.8516 103.189 45.8516C103.998 45.8516 104.57 45.5128 104.905 44.8352H106.528C106.308 45.504 105.908 46.054 105.327 46.4852C104.755 46.9076 104.042 47.1188 103.189 47.1188C102.493 47.1188 101.869 46.9648 101.314 46.6568C100.769 46.34 100.337 45.9 100.021 45.3368C99.7125 44.7648 99.5585 44.1048 99.5585 43.3568C99.5585 42.6088 99.7081 41.9532 100.007 41.39C100.315 40.818 100.742 40.378 101.288 40.07C101.842 39.762 102.476 39.608 103.189 39.608C103.875 39.608 104.487 39.7576 105.023 40.0568C105.56 40.356 105.978 40.7784 106.277 41.324C106.577 41.8608 106.726 42.4812 106.726 43.1852ZM105.155 42.71C105.147 42.1556 104.949 41.7112 104.561 41.3768C104.174 41.0424 103.695 40.8752 103.123 40.8752C102.603 40.8752 102.159 41.0424 101.789 41.3768C101.42 41.7024 101.2 42.1468 101.129 42.71H105.155ZM114.807 43.1852C114.807 43.458 114.789 43.7044 114.754 43.9244H109.197C109.241 44.5052 109.457 44.9716 109.844 45.3236C110.231 45.6756 110.706 45.8516 111.269 45.8516C112.079 45.8516 112.651 45.5128 112.985 44.8352H114.609C114.389 45.504 113.989 46.054 113.408 46.4852C112.836 46.9076 112.123 47.1188 111.269 47.1188C110.574 47.1188 109.949 46.9648 109.395 46.6568C108.849 46.34 108.418 45.9 108.101 45.3368C107.793 44.7648 107.639 44.1048 107.639 43.3568C107.639 42.6088 107.789 41.9532 108.088 41.39C108.396 40.818 108.823 40.378 109.369 40.07C109.923 39.762 110.557 39.608 111.269 39.608C111.956 39.608 112.567 39.7576 113.104 40.0568C113.641 40.356 114.059 40.7784 114.358 41.324C114.657 41.8608 114.807 42.4812 114.807 43.1852ZM113.236 42.71C113.227 42.1556 113.029 41.7112 112.642 41.3768C112.255 41.0424 111.775 40.8752 111.203 40.8752C110.684 40.8752 110.24 41.0424 109.87 41.3768C109.501 41.7024 109.281 42.1468 109.21 42.71H113.236ZM117.977 40.9544V44.9804C117.977 45.2532 118.039 45.4512 118.162 45.5744C118.294 45.6888 118.514 45.746 118.822 45.746H119.746V47H118.558C117.881 47 117.361 46.8416 117.001 46.5248C116.64 46.208 116.459 45.6932 116.459 44.9804V40.9544H115.601V39.7268H116.459V37.9184H117.977V39.7268H119.746V40.9544H117.977ZM123.707 47.1188C123.135 47.1188 122.62 47.0176 122.163 46.8152C121.714 46.604 121.358 46.3224 121.094 45.9704C120.83 45.6096 120.689 45.2092 120.671 44.7692H122.229C122.255 45.0772 122.4 45.3368 122.664 45.548C122.937 45.7504 123.276 45.8516 123.681 45.8516C124.103 45.8516 124.429 45.7724 124.658 45.614C124.895 45.4468 125.014 45.2356 125.014 44.9804C125.014 44.7076 124.882 44.5052 124.618 44.3732C124.363 44.2412 123.954 44.096 123.39 43.9376C122.845 43.788 122.4 43.6428 122.057 43.502C121.714 43.3612 121.415 43.1456 121.16 42.8552C120.913 42.5648 120.79 42.182 120.79 41.7068C120.79 41.3196 120.904 40.9676 121.133 40.6508C121.362 40.3252 121.688 40.07 122.11 39.8852C122.541 39.7004 123.034 39.608 123.588 39.608C124.416 39.608 125.08 39.8192 125.582 40.2416C126.092 40.6552 126.365 41.2228 126.4 41.9444H124.895C124.869 41.6188 124.737 41.3592 124.499 41.1656C124.262 40.972 123.94 40.8752 123.536 40.8752C123.14 40.8752 122.836 40.95 122.625 41.0996C122.414 41.2492 122.308 41.4472 122.308 41.6936C122.308 41.8872 122.378 42.05 122.519 42.182C122.66 42.314 122.832 42.4196 123.034 42.4988C123.236 42.5692 123.536 42.6616 123.932 42.776C124.46 42.9168 124.891 43.062 125.225 43.2116C125.568 43.3524 125.863 43.5636 126.11 43.8452C126.356 44.1268 126.484 44.5008 126.492 44.9672C126.492 45.3808 126.378 45.7504 126.149 46.076C125.92 46.4016 125.595 46.6568 125.172 46.8416C124.759 47.0264 124.27 47.1188 123.707 47.1188ZM139.322 37.826L135.877 47H134.134L130.676 37.826H132.286L135.006 45.4556L137.738 37.826H139.322ZM141.28 38.7632C141.007 38.7632 140.779 38.6708 140.594 38.486C140.409 38.3012 140.317 38.0724 140.317 37.7996C140.317 37.5268 140.409 37.298 140.594 37.1132C140.779 36.9284 141.007 36.836 141.28 36.836C141.544 36.836 141.769 36.9284 141.953 37.1132C142.138 37.298 142.231 37.5268 142.231 37.7996C142.231 38.0724 142.138 38.3012 141.953 38.486C141.769 38.6708 141.544 38.7632 141.28 38.7632ZM142.019 39.7268V47H140.515V39.7268H142.019ZM146.569 47.1188C145.997 47.1188 145.482 47.0176 145.025 46.8152C144.576 46.604 144.219 46.3224 143.955 45.9704C143.691 45.6096 143.551 45.2092 143.533 44.7692H145.091C145.117 45.0772 145.262 45.3368 145.526 45.548C145.799 45.7504 146.138 45.8516 146.543 45.8516C146.965 45.8516 147.291 45.7724 147.519 45.614C147.757 45.4468 147.876 45.2356 147.876 44.9804C147.876 44.7076 147.744 44.5052 147.48 44.3732C147.225 44.2412 146.815 44.096 146.252 43.9376C145.707 43.788 145.262 43.6428 144.919 43.502C144.576 43.3612 144.277 43.1456 144.021 42.8552C143.775 42.5648 143.652 42.182 143.652 41.7068C143.652 41.3196 143.766 40.9676 143.995 40.6508C144.224 40.3252 144.549 40.07 144.972 39.8852C145.403 39.7004 145.896 39.608 146.45 39.608C147.277 39.608 147.942 39.8192 148.443 40.2416C148.954 40.6552 149.227 41.2228 149.262 41.9444H147.757C147.731 41.6188 147.599 41.3592 147.361 41.1656C147.123 40.972 146.802 40.8752 146.397 40.8752C146.001 40.8752 145.698 40.95 145.487 41.0996C145.275 41.2492 145.17 41.4472 145.17 41.6936C145.17 41.8872 145.24 42.05 145.381 42.182C145.522 42.314 145.693 42.4196 145.896 42.4988C146.098 42.5692 146.397 42.6616 146.793 42.776C147.321 42.9168 147.753 43.062 148.087 43.2116C148.43 43.3524 148.725 43.5636 148.971 43.8452C149.218 44.1268 149.345 44.5008 149.354 44.9672C149.354 45.3808 149.24 45.7504 149.011 46.076C148.782 46.4016 148.457 46.6568 148.034 46.8416C147.621 47.0264 147.132 47.1188 146.569 47.1188ZM151.68 38.7632C151.407 38.7632 151.178 38.6708 150.993 38.486C150.809 38.3012 150.716 38.0724 150.716 37.7996C150.716 37.5268 150.809 37.298 150.993 37.1132C151.178 36.9284 151.407 36.836 151.68 36.836C151.944 36.836 152.168 36.9284 152.353 37.1132C152.538 37.298 152.63 37.5268 152.63 37.7996C152.63 38.0724 152.538 38.3012 152.353 38.486C152.168 38.6708 151.944 38.7632 151.68 38.7632ZM152.419 39.7268V47H150.914V39.7268H152.419ZM157.483 47.1188C156.797 47.1188 156.177 46.9648 155.622 46.6568C155.068 46.34 154.632 45.9 154.315 45.3368C153.999 44.7648 153.84 44.1048 153.84 43.3568C153.84 42.6176 154.003 41.962 154.329 41.39C154.654 40.818 155.099 40.378 155.662 40.07C156.225 39.762 156.854 39.608 157.549 39.608C158.245 39.608 158.874 39.762 159.437 40.07C160 40.378 160.445 40.818 160.77 41.39C161.096 41.962 161.259 42.6176 161.259 43.3568C161.259 44.096 161.091 44.7516 160.757 45.3236C160.423 45.8956 159.965 46.34 159.384 46.6568C158.812 46.9648 158.179 47.1188 157.483 47.1188ZM157.483 45.812C157.871 45.812 158.231 45.7196 158.566 45.5348C158.909 45.35 159.186 45.0728 159.397 44.7032C159.609 44.3336 159.714 43.8848 159.714 43.3568C159.714 42.8288 159.613 42.3844 159.411 42.0236C159.208 41.654 158.94 41.3768 158.605 41.192C158.271 41.0072 157.91 40.9148 157.523 40.9148C157.136 40.9148 156.775 41.0072 156.441 41.192C156.115 41.3768 155.855 41.654 155.662 42.0236C155.468 42.3844 155.371 42.8288 155.371 43.3568C155.371 44.14 155.569 44.7472 155.965 45.1784C156.37 45.6008 156.876 45.812 157.483 45.812ZM166.35 39.608C166.922 39.608 167.432 39.7268 167.881 39.9644C168.339 40.202 168.695 40.554 168.95 41.0204C169.205 41.4868 169.333 42.05 169.333 42.71V47H167.841V42.9344C167.841 42.2832 167.679 41.786 167.353 41.4428C167.027 41.0908 166.583 40.9148 166.02 40.9148C165.457 40.9148 165.008 41.0908 164.673 41.4428C164.348 41.786 164.185 42.2832 164.185 42.9344V47H162.68V39.7268H164.185V40.5584C164.431 40.2592 164.744 40.026 165.122 39.8588C165.509 39.6916 165.919 39.608 166.35 39.608Z" fill="#1F2834"/>
<defs>
<linearGradient id="paint0_linear_107_2864" x1="22.9978" y1="13.4413" x2="-2.26463e-08" y2="13.4413" gradientUnits="userSpaceOnUse">
<stop stop-color="#9E826A"/>
<stop offset="1" stop-color="#CDAC91"/>
</linearGradient>
<linearGradient id="paint1_linear_107_2864" x1="32.6184" y1="19.2683" x2="9.74902" y2="19.2683" gradientUnits="userSpaceOnUse">
<stop stop-color="#9E826A"/>
<stop offset="1" stop-color="#CDAC91"/>
</linearGradient>
<linearGradient id="paint2_linear_107_2864" x1="46.6055" y1="2.13498" x2="44.2832" y2="2.13498" gradientUnits="userSpaceOnUse">
<stop stop-color="#9E826A"/>
<stop offset="1" stop-color="#CDAC91"/>
</linearGradient>
<linearGradient id="paint3_linear_107_2864" x1="66.5636" y1="13.8426" x2="58.3555" y2="13.8426" gradientUnits="userSpaceOnUse">
<stop stop-color="#9E826A"/>
<stop offset="1" stop-color="#CDAC91"/>
</linearGradient>
<linearGradient id="paint4_linear_107_2864" x1="60.6141" y1="17.2457" x2="38.3975" y2="17.2457" gradientUnits="userSpaceOnUse">
<stop stop-color="#9E826A"/>
<stop offset="1" stop-color="#CDAC91"/>
</linearGradient>
<linearGradient id="paint5_linear_107_2864" x1="93.1255" y1="8.97332" x2="74.1836" y2="8.97332" gradientUnits="userSpaceOnUse">
<stop stop-color="#9E826A"/>
<stop offset="1" stop-color="#CDAC91"/>
</linearGradient>
<linearGradient id="paint6_linear_107_2864" x1="104.673" y1="18.3105" x2="74.2051" y2="18.3105" gradientUnits="userSpaceOnUse">
<stop stop-color="#9E826A"/>
<stop offset="1" stop-color="#CDAC91"/>
</linearGradient>
<linearGradient id="paint7_linear_107_2864" x1="136.082" y1="7.73728" x2="123.443" y2="7.73728" gradientUnits="userSpaceOnUse">
<stop stop-color="#9E826A"/>
<stop offset="1" stop-color="#CDAC91"/>
</linearGradient>
<linearGradient id="paint8_linear_107_2864" x1="124.417" y1="16.4859" x2="104.395" y2="16.4859" gradientUnits="userSpaceOnUse">
<stop stop-color="#9E826A"/>
<stop offset="1" stop-color="#CDAC91"/>
</linearGradient>
<linearGradient id="paint9_linear_107_2864" x1="169" y1="26.2083" x2="155.666" y2="26.2083" gradientUnits="userSpaceOnUse">
<stop stop-color="#9E826A"/>
<stop offset="1" stop-color="#CDAC91"/>
</linearGradient>
<linearGradient id="paint10_linear_107_2864" x1="168.829" y1="16.4859" x2="136.777" y2="16.4859" gradientUnits="userSpaceOnUse">
<stop stop-color="#9E826A"/>
<stop offset="1" stop-color="#CDAC91"/>
</linearGradient>
</defs>
</svg>
