<svg width="178" height="56" viewBox="0 0 178 56" fill="none" xmlns="http://www.w3.org/2000/svg">
<path d="M13.648 23.1369C13.3591 22.5912 13.1023 21.9812 12.8775 21.307C12.4388 19.98 12.2247 18.3319 12.2247 16.4912C12.2247 14.6505 12.4495 13.0239 12.8989 11.6327C13.3484 10.2308 13.9263 9.1392 14.6326 8.34728C15.3924 7.49115 16.2378 6.89186 17.1475 6.5173C18.0571 6.14274 19.0524 5.96081 20.069 5.96081C21.0857 5.96081 22.0702 6.15344 23.012 6.5387C23.1939 6.61361 23.3651 6.70993 23.5364 6.79554L26.7468 1.07016C24.7777 0.353154 22.5518 0 20.0583 0C14.975 0 10.9833 1.47683 8.09389 4.43048C5.19375 7.38413 3.74902 11.4508 3.74902 16.4912C3.74902 20.6649 4.75498 24.1322 6.74548 26.8825L13.648 23.1369Z" fill="white"/>
<path d="M33.0392 5.59696L25.9655 9.00008C26.4684 9.72779 26.8965 10.5946 27.2283 11.622C27.667 12.9597 27.8918 14.5756 27.8918 16.4698C27.8918 18.2463 27.6991 19.7873 27.3139 21.0929C26.9286 22.4092 26.34 23.5436 25.5481 24.5068C24.8418 25.3629 24.0178 25.9836 23.0653 26.3903C22.1129 26.7969 21.1176 27.0002 20.0689 27.0002C19.0201 27.0002 18.0248 26.7969 17.0724 26.401C16.7942 26.2832 16.5159 26.1334 16.2591 25.9729L13.498 31.923C15.4243 32.6079 17.6075 32.9504 20.0475 32.9504C25.1521 32.9504 29.1438 31.4628 32.0333 28.4985C34.9227 25.5341 36.3675 21.521 36.3675 16.4805C36.3675 12.0393 35.2545 8.40079 33.0392 5.58626V5.59696Z" fill="white"/>
<path d="M50.3545 3.61715V0.6528H48.0322L50.3545 3.61715Z" fill="white"/>
<path d="M68.9535 27.0323C69.8632 25.3201 70.3126 23.2547 70.3126 20.8468V7.31992L64.9939 0.6528H62.1045V18.8135L68.9535 27.0323Z" fill="white"/>
<path d="M60.0717 25.898C59.1514 26.5722 57.8886 26.9253 56.2191 26.9253C54.1537 26.9253 52.6555 26.3903 51.7352 25.3094C50.8148 24.2285 50.3546 22.5912 50.3546 20.3973V12.232L42.1465 1.53035V20.8682C42.1465 24.7636 43.3344 27.7494 45.7101 29.8362C48.0859 31.923 51.5853 32.9611 56.2191 32.9611C59.5045 32.9611 62.2121 32.426 64.3631 31.3879L60.0717 25.9087V25.898Z" fill="white"/>
<path d="M86.0552 10.3378V6.47449H89.0088C89.5653 6.47449 90.0683 6.47449 90.5391 6.49589L96.8745 1.07016C96.7354 1.03805 96.5963 1.00595 96.4464 0.984545C95.098 0.770512 93.4928 0.663496 91.62 0.663496H77.9326V17.2831L86.0445 10.3378H86.0552Z" fill="white"/>
<path d="M97.8485 18.7493C99.8604 17.7647 101.412 16.5447 102.493 15.0679C103.574 13.6018 104.12 11.6862 104.12 9.35323C104.12 7.65167 103.766 6.23906 103.071 5.11539C102.9 4.83714 102.707 4.5696 102.514 4.32346L95.6653 9.8134C95.6867 9.98463 95.6974 10.1666 95.6974 10.3485C95.6974 11.2474 95.569 11.9537 95.3015 12.4781C95.0446 13.0132 94.6273 13.4948 94.0601 13.9335C93.4608 14.383 92.7224 14.672 91.8448 14.8004C91.1171 14.9074 90.2289 14.9716 89.2015 14.9823L77.9541 23.9824V32.2976H86.0767V20.697H89.8543L98.4584 32.2976H108.422L97.8592 18.7386L97.8485 18.7493Z" fill="white"/>
<path d="M131.323 14.8111L139.831 0.6635H130.852L127.192 7.45904L131.323 14.8111Z" fill="white"/>
<path d="M124.271 12.8634L124.26 12.8741L117.433 0.663496H108.144L120.001 20.4508V32.3082H128.166V20.2689L124.271 12.8634Z" fill="white"/>
<path d="M159.415 26.3688L163.3 32.3082H172.749L164.348 20.1084L159.415 26.3688Z" fill="white"/>
<path d="M172.578 0.663498H163.535L156.761 10.5197L150.179 0.663498H140.762L151.752 16.3628L140.526 32.3083H149.548L172.578 0.663498Z" fill="white"/>
<g filter="url(#filter0_d_105_986)">
<path d="M16.685 37.826L13.9658 47H12.263L10.3358 40.0568L8.28982 47L6.60022 47.0132L3.99982 37.826H5.59702L7.49782 45.2972L9.55702 37.826H11.2466L13.1606 45.2576L15.0746 37.826H16.685ZM21.6221 39.608C22.1765 39.608 22.6693 39.7268 23.1005 39.9644C23.5405 40.202 23.8837 40.554 24.1301 41.0204C24.3853 41.4868 24.5129 42.05 24.5129 42.71V47H23.0213V42.9344C23.0213 42.2832 22.8585 41.786 22.5329 41.4428C22.2073 41.0908 21.7629 40.9148 21.1997 40.9148C20.6365 40.9148 20.1877 41.0908 19.8533 41.4428C19.5277 41.786 19.3649 42.2832 19.3649 42.9344V47H17.8601V37.232H19.3649V40.5716C19.6201 40.2636 19.9413 40.026 20.3285 39.8588C20.7245 39.6916 21.1557 39.608 21.6221 39.608ZM33.0324 43.1852C33.0324 43.458 33.0148 43.7044 32.9796 43.9244H27.4224C27.4664 44.5052 27.682 44.9716 28.0692 45.3236C28.4564 45.6756 28.9316 45.8516 29.4948 45.8516C30.3044 45.8516 30.8764 45.5128 31.2108 44.8352H32.8344C32.6144 45.504 32.214 46.054 31.6332 46.4852C31.0612 46.9076 30.3484 47.1188 29.4948 47.1188C28.7996 47.1188 28.1748 46.9648 27.6204 46.6568C27.0748 46.34 26.6436 45.9 26.3268 45.3368C26.0188 44.7648 25.8648 44.1048 25.8648 43.3568C25.8648 42.6088 26.0144 41.9532 26.3136 41.39C26.6216 40.818 27.0484 40.378 27.594 40.07C28.1484 39.762 28.782 39.608 29.4948 39.608C30.1812 39.608 30.7928 39.7576 31.3296 40.0568C31.8664 40.356 32.2844 40.7784 32.5836 41.324C32.8828 41.8608 33.0324 42.4812 33.0324 43.1852ZM31.4616 42.71C31.4528 42.1556 31.2548 41.7112 30.8676 41.3768C30.4804 41.0424 30.0008 40.8752 29.4288 40.8752C28.9096 40.8752 28.4652 41.0424 28.0956 41.3768C27.726 41.7024 27.506 42.1468 27.4356 42.71H31.4616ZM35.9521 40.7828C36.1721 40.4132 36.4625 40.1272 36.8233 39.9248C37.1929 39.7136 37.6285 39.608 38.1301 39.608V41.1656H37.7473C37.1577 41.1656 36.7089 41.3152 36.4009 41.6144C36.1017 41.9136 35.9521 42.4328 35.9521 43.172V47H34.4473V39.7268H35.9521V40.7828ZM46.1133 43.1852C46.1133 43.458 46.0957 43.7044 46.0605 43.9244H40.5033C40.5473 44.5052 40.7629 44.9716 41.1501 45.3236C41.5373 45.6756 42.0125 45.8516 42.5757 45.8516C43.3853 45.8516 43.9573 45.5128 44.2917 44.8352H45.9153C45.6953 45.504 45.2949 46.054 44.7141 46.4852C44.1421 46.9076 43.4293 47.1188 42.5757 47.1188C41.8805 47.1188 41.2557 46.9648 40.7013 46.6568C40.1557 46.34 39.7245 45.9 39.4077 45.3368C39.0997 44.7648 38.9457 44.1048 38.9457 43.3568C38.9457 42.6088 39.0953 41.9532 39.3945 41.39C39.7025 40.818 40.1293 40.378 40.6749 40.07C41.2293 39.762 41.8629 39.608 42.5757 39.608C43.2621 39.608 43.8737 39.7576 44.4105 40.0568C44.9473 40.356 45.3653 40.7784 45.6645 41.324C45.9637 41.8608 46.1133 42.4812 46.1133 43.1852ZM44.5425 42.71C44.5337 42.1556 44.3357 41.7112 43.9485 41.3768C43.5613 41.0424 43.0817 40.8752 42.5097 40.8752C41.9905 40.8752 41.5461 41.0424 41.1765 41.3768C40.8069 41.7024 40.5869 42.1468 40.5165 42.71H44.5425ZM58.7979 37.826L55.3527 47H53.6103L50.1519 37.826H51.7623L54.4815 45.4556L57.2139 37.826H58.7979ZM59.4887 43.3304C59.4887 42.6 59.6383 41.9532 59.9375 41.39C60.2455 40.8268 60.6591 40.3912 61.1783 40.0832C61.7063 39.7664 62.2871 39.608 62.9207 39.608C63.4927 39.608 63.9899 39.7224 64.4123 39.9512C64.8435 40.1712 65.1867 40.4484 65.4419 40.7828V39.7268H66.9599V47H65.4419V45.9176C65.1867 46.2608 64.8391 46.5468 64.3991 46.7756C63.9591 47.0044 63.4575 47.1188 62.8943 47.1188C62.2695 47.1188 61.6975 46.9604 61.1783 46.6436C60.6591 46.318 60.2455 45.8692 59.9375 45.2972C59.6383 44.7164 59.4887 44.0608 59.4887 43.3304ZM65.4419 43.3568C65.4419 42.8552 65.3363 42.4196 65.1251 42.05C64.9227 41.6804 64.6543 41.3988 64.3199 41.2052C63.9855 41.0116 63.6247 40.9148 63.2375 40.9148C62.8503 40.9148 62.4895 41.0116 62.1551 41.2052C61.8207 41.39 61.5479 41.6672 61.3367 42.0368C61.1343 42.3976 61.0331 42.8288 61.0331 43.3304C61.0331 43.832 61.1343 44.272 61.3367 44.6504C61.5479 45.0288 61.8207 45.3192 62.1551 45.5216C62.4983 45.7152 62.8591 45.812 63.2375 45.812C63.6247 45.812 63.9855 45.7152 64.3199 45.5216C64.6543 45.328 64.9227 45.0464 65.1251 44.6768C65.3363 44.2984 65.4419 43.8584 65.4419 43.3568ZM70.3752 37.232V47H68.8704V37.232H70.3752ZM78.8717 39.7268V47H77.3669V46.142C77.1293 46.4412 76.8169 46.6788 76.4297 46.8548C76.0513 47.022 75.6465 47.1056 75.2153 47.1056C74.6433 47.1056 74.1285 46.9868 73.6709 46.7492C73.2221 46.5116 72.8657 46.1596 72.6017 45.6932C72.3465 45.2268 72.2189 44.6636 72.2189 44.0036V39.7268H73.7105V43.7792C73.7105 44.4304 73.8733 44.932 74.1989 45.284C74.5245 45.6272 74.9689 45.7988 75.5321 45.7988C76.0953 45.7988 76.5397 45.6272 76.8653 45.284C77.1997 44.932 77.3669 44.4304 77.3669 43.7792V39.7268H78.8717ZM87.4571 43.1852C87.4571 43.458 87.4395 43.7044 87.4043 43.9244H81.8471C81.8911 44.5052 82.1067 44.9716 82.4939 45.3236C82.8811 45.6756 83.3563 45.8516 83.9195 45.8516C84.7291 45.8516 85.3011 45.5128 85.6355 44.8352H87.2591C87.0391 45.504 86.6387 46.054 86.0579 46.4852C85.4859 46.9076 84.7731 47.1188 83.9195 47.1188C83.2243 47.1188 82.5995 46.9648 82.0451 46.6568C81.4995 46.34 81.0683 45.9 80.7515 45.3368C80.4435 44.7648 80.2895 44.1048 80.2895 43.3568C80.2895 42.6088 80.4391 41.9532 80.7383 41.39C81.0463 40.818 81.4731 40.378 82.0187 40.07C82.5731 39.762 83.2067 39.608 83.9195 39.608C84.6059 39.608 85.2175 39.7576 85.7543 40.0568C86.2911 40.356 86.7091 40.7784 87.0083 41.324C87.3075 41.8608 87.4571 42.4812 87.4571 43.1852ZM85.8863 42.71C85.8775 42.1556 85.6795 41.7112 85.2923 41.3768C84.9051 41.0424 84.4255 40.8752 83.8535 40.8752C83.3343 40.8752 82.8899 41.0424 82.5203 41.3768C82.1507 41.7024 81.9307 42.1468 81.8603 42.71H85.8863ZM101.897 37.826V47H100.393V40.7168L97.5941 47H96.5513L93.7397 40.7168V47H92.2349V37.826H93.8585L97.0793 45.02L100.287 37.826H101.897ZM110.475 43.1852C110.475 43.458 110.458 43.7044 110.422 43.9244H104.865C104.909 44.5052 105.125 44.9716 105.512 45.3236C105.899 45.6756 106.374 45.8516 106.938 45.8516C107.747 45.8516 108.319 45.5128 108.654 44.8352H110.277C110.057 45.504 109.657 46.054 109.076 46.4852C108.504 46.9076 107.791 47.1188 106.938 47.1188C106.242 47.1188 105.618 46.9648 105.063 46.6568C104.518 46.34 104.086 45.9 103.77 45.3368C103.462 44.7648 103.308 44.1048 103.308 43.3568C103.308 42.6088 103.457 41.9532 103.756 41.39C104.064 40.818 104.491 40.378 105.037 40.07C105.591 39.762 106.225 39.608 106.938 39.608C107.624 39.608 108.236 39.7576 108.772 40.0568C109.309 40.356 109.727 40.7784 110.026 41.324C110.326 41.8608 110.475 42.4812 110.475 43.1852ZM108.904 42.71C108.896 42.1556 108.698 41.7112 108.31 41.3768C107.923 41.0424 107.444 40.8752 106.872 40.8752C106.352 40.8752 105.908 41.0424 105.538 41.3768C105.169 41.7024 104.949 42.1468 104.878 42.71H108.904ZM118.556 43.1852C118.556 43.458 118.538 43.7044 118.503 43.9244H112.946C112.99 44.5052 113.206 44.9716 113.593 45.3236C113.98 45.6756 114.455 45.8516 115.018 45.8516C115.828 45.8516 116.4 45.5128 116.734 44.8352H118.358C118.138 45.504 117.738 46.054 117.157 46.4852C116.585 46.9076 115.872 47.1188 115.018 47.1188C114.323 47.1188 113.698 46.9648 113.144 46.6568C112.598 46.34 112.167 45.9 111.85 45.3368C111.542 44.7648 111.388 44.1048 111.388 43.3568C111.388 42.6088 111.538 41.9532 111.837 41.39C112.145 40.818 112.572 40.378 113.118 40.07C113.672 39.762 114.306 39.608 115.018 39.608C115.705 39.608 116.316 39.7576 116.853 40.0568C117.39 40.356 117.808 40.7784 118.107 41.324C118.406 41.8608 118.556 42.4812 118.556 43.1852ZM116.985 42.71C116.976 42.1556 116.778 41.7112 116.391 41.3768C116.004 41.0424 115.524 40.8752 114.952 40.8752C114.433 40.8752 113.989 41.0424 113.619 41.3768C113.25 41.7024 113.03 42.1468 112.959 42.71H116.985ZM121.726 40.9544V44.9804C121.726 45.2532 121.788 45.4512 121.911 45.5744C122.043 45.6888 122.263 45.746 122.571 45.746H123.495V47H122.307C121.63 47 121.11 46.8416 120.75 46.5248C120.389 46.208 120.208 45.6932 120.208 44.9804V40.9544H119.35V39.7268H120.208V37.9184H121.726V39.7268H123.495V40.9544H121.726ZM127.456 47.1188C126.884 47.1188 126.369 47.0176 125.912 46.8152C125.463 46.604 125.107 46.3224 124.843 45.9704C124.579 45.6096 124.438 45.2092 124.42 44.7692H125.978C126.004 45.0772 126.149 45.3368 126.413 45.548C126.686 45.7504 127.025 45.8516 127.43 45.8516C127.852 45.8516 128.178 45.7724 128.407 45.614C128.644 45.4468 128.763 45.2356 128.763 44.9804C128.763 44.7076 128.631 44.5052 128.367 44.3732C128.112 44.2412 127.703 44.096 127.139 43.9376C126.594 43.788 126.149 43.6428 125.806 43.502C125.463 43.3612 125.164 43.1456 124.909 42.8552C124.662 42.5648 124.539 42.182 124.539 41.7068C124.539 41.3196 124.653 40.9676 124.882 40.6508C125.111 40.3252 125.437 40.07 125.859 39.8852C126.29 39.7004 126.783 39.608 127.337 39.608C128.165 39.608 128.829 39.8192 129.331 40.2416C129.841 40.6552 130.114 41.2228 130.149 41.9444H128.644C128.618 41.6188 128.486 41.3592 128.248 41.1656C128.011 40.972 127.689 40.8752 127.285 40.8752C126.889 40.8752 126.585 40.95 126.374 41.0996C126.163 41.2492 126.057 41.4472 126.057 41.6936C126.057 41.8872 126.127 42.05 126.268 42.182C126.409 42.314 126.581 42.4196 126.783 42.4988C126.985 42.5692 127.285 42.6616 127.681 42.776C128.209 42.9168 128.64 43.062 128.974 43.2116C129.317 43.3524 129.612 43.5636 129.859 43.8452C130.105 44.1268 130.233 44.5008 130.241 44.9672C130.241 45.3808 130.127 45.7504 129.898 46.076C129.669 46.4016 129.344 46.6568 128.921 46.8416C128.508 47.0264 128.019 47.1188 127.456 47.1188ZM143.071 37.826L139.626 47H137.884L134.425 37.826H136.036L138.755 45.4556L141.487 37.826H143.071ZM145.029 38.7632C144.756 38.7632 144.528 38.6708 144.343 38.486C144.158 38.3012 144.066 38.0724 144.066 37.7996C144.066 37.5268 144.158 37.298 144.343 37.1132C144.528 36.9284 144.756 36.836 145.029 36.836C145.293 36.836 145.518 36.9284 145.702 37.1132C145.887 37.298 145.98 37.5268 145.98 37.7996C145.98 38.0724 145.887 38.3012 145.702 38.486C145.518 38.6708 145.293 38.7632 145.029 38.7632ZM145.768 39.7268V47H144.264V39.7268H145.768ZM150.318 47.1188C149.746 47.1188 149.231 47.0176 148.774 46.8152C148.325 46.604 147.968 46.3224 147.704 45.9704C147.44 45.6096 147.3 45.2092 147.282 44.7692H148.84C148.866 45.0772 149.011 45.3368 149.275 45.548C149.548 45.7504 149.887 45.8516 150.292 45.8516C150.714 45.8516 151.04 45.7724 151.268 45.614C151.506 45.4468 151.625 45.2356 151.625 44.9804C151.625 44.7076 151.493 44.5052 151.229 44.3732C150.974 44.2412 150.564 44.096 150.001 43.9376C149.456 43.788 149.011 43.6428 148.668 43.502C148.325 43.3612 148.026 43.1456 147.77 42.8552C147.524 42.5648 147.401 42.182 147.401 41.7068C147.401 41.3196 147.515 40.9676 147.744 40.6508C147.973 40.3252 148.298 40.07 148.721 39.8852C149.152 39.7004 149.645 39.608 150.199 39.608C151.026 39.608 151.691 39.8192 152.192 40.2416C152.703 40.6552 152.976 41.2228 153.011 41.9444H151.506C151.48 41.6188 151.348 41.3592 151.11 41.1656C150.872 40.972 150.551 40.8752 150.146 40.8752C149.75 40.8752 149.447 40.95 149.236 41.0996C149.024 41.2492 148.919 41.4472 148.919 41.6936C148.919 41.8872 148.989 42.05 149.13 42.182C149.271 42.314 149.442 42.4196 149.645 42.4988C149.847 42.5692 150.146 42.6616 150.542 42.776C151.07 42.9168 151.502 43.062 151.836 43.2116C152.179 43.3524 152.474 43.5636 152.72 43.8452C152.967 44.1268 153.094 44.5008 153.103 44.9672C153.103 45.3808 152.989 45.7504 152.76 46.076C152.531 46.4016 152.206 46.6568 151.783 46.8416C151.37 47.0264 150.881 47.1188 150.318 47.1188ZM155.429 38.7632C155.156 38.7632 154.927 38.6708 154.742 38.486C154.558 38.3012 154.465 38.0724 154.465 37.7996C154.465 37.5268 154.558 37.298 154.742 37.1132C154.927 36.9284 155.156 36.836 155.429 36.836C155.693 36.836 155.917 36.9284 156.102 37.1132C156.287 37.298 156.379 37.5268 156.379 37.7996C156.379 38.0724 156.287 38.3012 156.102 38.486C155.917 38.6708 155.693 38.7632 155.429 38.7632ZM156.168 39.7268V47H154.663V39.7268H156.168ZM161.232 47.1188C160.546 47.1188 159.926 46.9648 159.371 46.6568C158.817 46.34 158.381 45.9 158.064 45.3368C157.748 44.7648 157.589 44.1048 157.589 43.3568C157.589 42.6176 157.752 41.962 158.078 41.39C158.403 40.818 158.848 40.378 159.411 40.07C159.974 39.762 160.603 39.608 161.298 39.608C161.994 39.608 162.623 39.762 163.186 40.07C163.749 40.378 164.194 40.818 164.519 41.39C164.845 41.962 165.008 42.6176 165.008 43.3568C165.008 44.096 164.84 44.7516 164.506 45.3236C164.172 45.8956 163.714 46.34 163.133 46.6568C162.561 46.9648 161.928 47.1188 161.232 47.1188ZM161.232 45.812C161.62 45.812 161.98 45.7196 162.315 45.5348C162.658 45.35 162.935 45.0728 163.146 44.7032C163.358 44.3336 163.463 43.8848 163.463 43.3568C163.463 42.8288 163.362 42.3844 163.16 42.0236C162.957 41.654 162.689 41.3768 162.354 41.192C162.02 41.0072 161.659 40.9148 161.272 40.9148C160.885 40.9148 160.524 41.0072 160.19 41.192C159.864 41.3768 159.604 41.654 159.411 42.0236C159.217 42.3844 159.12 42.8288 159.12 43.3568C159.12 44.14 159.318 44.7472 159.714 45.1784C160.119 45.6008 160.625 45.812 161.232 45.812ZM170.099 39.608C170.671 39.608 171.181 39.7268 171.63 39.9644C172.088 40.202 172.444 40.554 172.699 41.0204C172.954 41.4868 173.082 42.05 173.082 42.71V47H171.59V42.9344C171.59 42.2832 171.428 41.786 171.102 41.4428C170.776 41.0908 170.332 40.9148 169.769 40.9148C169.206 40.9148 168.757 41.0908 168.422 41.4428C168.097 41.786 167.934 42.2832 167.934 42.9344V47H166.429V39.7268H167.934V40.5584C168.18 40.2592 168.493 40.026 168.871 39.8588C169.258 39.6916 169.668 39.608 170.099 39.608Z" fill="white"/>
</g>
<defs>
<filter id="filter0_d_105_986" x="0" y="36.836" width="177.082" height="18.2828" filterUnits="userSpaceOnUse" color-interpolation-filters="sRGB">
<feFlood flood-opacity="0" result="BackgroundImageFix"/>
<feColorMatrix in="SourceAlpha" type="matrix" values="0 0 0 0 0 0 0 0 0 0 0 0 0 0 0 0 0 0 127 0" result="hardAlpha"/>
<feOffset dy="4"/>
<feGaussianBlur stdDeviation="2"/>
<feComposite in2="hardAlpha" operator="out"/>
<feColorMatrix type="matrix" values="0 0 0 0 0 0 0 0 0 0 0 0 0 0 0 0 0 0 0.4 0"/>
<feBlend mode="normal" in2="BackgroundImageFix" result="effect1_dropShadow_105_986"/>
<feBlend mode="normal" in="SourceGraphic" in2="effect1_dropShadow_105_986" result="shape"/>
</filter>
</defs>
</svg>
