<svg width="76" height="76" viewBox="0 0 76 76" fill="none" xmlns="http://www.w3.org/2000/svg">
<path d="M28.0632 23.6329H37.3558C38.7485 23.6329 39.8879 22.4935 39.8879 21.1008C39.8879 19.7082 38.7485 18.5687 37.3558 18.5687H32.9247V16.4671C32.9247 15.0745 31.7853 13.9351 30.3927 13.9351C29 13.9351 27.8606 15.0745 27.8606 16.4671V18.5941C24.0118 18.7207 20.8974 21.8604 20.8974 25.7345C20.8974 29.6086 24.1131 32.9002 28.0632 32.9002H32.6968C33.8616 32.9002 34.7984 33.8371 34.7984 35.0019C34.7984 36.1666 33.8616 37.1035 32.6968 37.1035H23.4041C22.0115 37.1035 20.8721 38.2429 20.8721 39.6355C20.8721 41.0282 22.0115 42.1676 23.4041 42.1676H27.8353V44.2692C27.8353 45.6619 28.9747 46.8013 30.3673 46.8013C31.76 46.8013 32.8994 45.6619 32.8994 44.2692V42.1423C36.7481 42.0157 39.8626 38.8759 39.8626 35.0019C39.8626 31.1278 36.6469 27.8361 32.6968 27.8361H28.0632C26.8984 27.8361 25.9615 26.8993 25.9615 25.7345C25.9615 24.5698 26.8984 23.6329 28.0632 23.6329Z" fill="#BB9B80"/>
<path d="M46.8504 27.8613C45.4578 27.8613 44.3184 29.0008 44.3184 30.3934C44.3184 31.786 45.4578 32.9255 46.8504 32.9255H48.1165C49.5091 32.9255 50.6485 31.786 50.6485 30.3934C50.6485 29.0008 49.5091 27.8613 48.1165 27.8613H46.8504Z" fill="#BB9B80"/>
<path d="M13.9338 27.8613H12.6678C11.2752 27.8613 10.1357 29.0008 10.1357 30.3934C10.1357 31.786 11.2752 32.9255 12.6678 32.9255H13.9338C15.3265 32.9255 16.4659 31.786 16.4659 30.3934C16.4659 29.0008 15.3265 27.8613 13.9338 27.8613Z" fill="#BB9B80"/>
<path d="M69.7402 6.2377C68.7527 5.25019 67.1575 5.25019 66.17 6.2377L63.5873 8.82042C62.5998 9.80793 62.5998 11.4031 63.5873 12.3906C64.0937 12.897 64.7267 13.1249 65.3851 13.1249C66.0434 13.1249 66.6764 12.8717 67.1828 12.3906L69.7656 9.80793C70.7531 8.82042 70.7531 7.22521 69.7656 6.2377H69.7402Z" fill="#BB9B80"/>
<path d="M59.8385 0.0849401C58.4965 -0.269549 57.1038 0.515399 56.7494 1.88272L55.8125 5.4276C55.458 6.7696 56.2429 8.16224 57.6102 8.51673C57.8381 8.56737 58.0407 8.59269 58.2686 8.59269C59.3827 8.59269 60.4208 7.8584 60.7247 6.71896L61.6616 3.17407C62.016 1.83207 61.2311 0.43943 59.8638 0.0849401H59.8385Z" fill="#BB9B80"/>
<path d="M75.894 16.1374C75.5395 14.7954 74.1469 13.9852 72.8049 14.3396L69.26 15.2765C67.918 15.631 67.1077 17.0236 67.4622 18.3656C67.7661 19.5051 68.7789 20.2393 69.9183 20.2393C70.1462 20.2393 70.3488 20.214 70.5767 20.1634L74.1215 19.2265C75.4635 18.872 76.2738 17.4794 75.9193 16.1374H75.894Z" fill="#BB9B80"/>
<path d="M8.82042 63.5888L6.2377 66.1715C5.25019 67.159 5.25019 68.7542 6.2377 69.7417C6.74411 70.2481 7.37713 70.476 8.03547 70.476C8.6938 70.476 9.32682 70.2228 9.83323 69.7417L12.416 67.159C13.4035 66.1715 13.4035 64.5763 12.416 63.5888C11.4284 62.6013 9.83323 62.6013 8.84573 63.5888H8.82042Z" fill="#BB9B80"/>
<path d="M18.3912 67.4629C17.0492 67.1084 15.6566 67.8933 15.3021 69.2606L14.3652 72.8055C14.0107 74.1475 14.7957 75.5402 16.163 75.8947C16.3909 75.9453 16.5934 75.9706 16.8213 75.9706C17.9354 75.9706 18.9736 75.2363 19.2774 74.0969L20.2143 70.552C20.5688 69.21 19.7838 67.8174 18.4165 67.4629H18.3912Z" fill="#BB9B80"/>
<path d="M8.51509 57.5876C8.1606 56.2456 6.76796 55.4354 5.42596 55.7898L1.88107 56.7267C0.539077 57.0812 -0.271192 58.4738 0.0832973 59.8158C0.387145 60.9553 1.39998 61.6896 2.53941 61.6896C2.76729 61.6896 2.96985 61.6642 3.19774 61.6136L6.74265 60.6767C8.08464 60.3222 8.8949 58.9296 8.54041 57.5876H8.51509Z" fill="#BB9B80"/>
<path d="M30.3926 0.00878906C13.6303 0.00878906 0.0078125 13.6313 0.0078125 30.3936C0.0078125 47.1559 13.6303 60.7784 30.3926 60.7784C47.1549 60.7784 60.7774 47.1559 60.7774 30.3936C60.7774 13.6313 47.1549 0.00878906 30.3926 0.00878906ZM30.3926 55.7143C16.4409 55.7143 5.07195 44.3453 5.07195 30.3936C5.07195 16.4419 16.4409 5.07293 30.3926 5.07293C44.3443 5.07293 55.7133 16.4419 55.7133 30.3936C55.7133 44.3453 44.3443 55.7143 30.3926 55.7143Z" fill="#BB9B80"/>
<path d="M65.8397 30.4443C65.8144 49.9666 49.9383 65.8173 30.4414 65.8427C35.0751 71.9703 42.3928 75.9709 50.6473 75.9709C64.599 75.9709 75.968 64.6019 75.968 50.6502C75.968 42.3957 71.9673 35.0527 65.8397 30.4443ZM54.9012 69.9193C53.5086 69.9193 52.3691 68.7799 52.3691 67.3872C52.3691 65.9946 53.5086 64.8551 54.9012 64.8551C60.4971 64.8551 65.0295 60.3227 65.0295 54.7269C65.0295 53.3342 66.1689 52.1948 67.5615 52.1948C68.9542 52.1948 70.0936 53.3342 70.0936 54.7269C70.0936 63.108 63.2823 69.9193 54.9012 69.9193Z" fill="#87919C"/>
</svg>
